<svg width="398" height="319" viewBox="0 0 398 319" fill="none" xmlns="http://www.w3.org/2000/svg">
<path fill-rule="evenodd" clip-rule="evenodd" d="M228.665 319C276.228 319 317.966 283.62 294.526 235.566C271.086 187.512 358.182 189.064 383.766 155.852C414.967 115.348 405.931 -56.5827 205.632 48.2347C173.547 65.0253 91.1436 30.9612 63.8102 47.8632C31.6361 67.7584 -13.631 108.498 31.6361 150.229C53.9338 170.785 -26.0087 224.139 9.00455 271.931C43.1687 318.563 67.1172 274.109 119.132 283.62C171.146 293.132 193.341 319 228.665 319Z" fill="#FF0000" fill-opacity="0.1"/>
<path d="M173.46 235.399C173.46 235.399 184.412 230.248 188.5 226.664C192.589 223.08 197.672 214.176 197.672 214.176C197.672 214.176 253.504 254.498 289.909 248.746C298.297 247.421 314.641 241.845 315.683 232.022C318.529 205.197 279.152 198.342 287.753 184.739C293.004 176.436 309.314 188.794 309.314 188.794L376.963 222.069C376.963 222.069 353.592 279.679 296.876 281.988C227.109 284.828 173.46 235.399 173.46 235.399Z" fill="white"/>
<path fill-rule="evenodd" clip-rule="evenodd" d="M119.826 9.78524C119.191 9.53597 115.781 5.36074 111.452 4.60083C109.485 4.25551 111.27 6.76036 109.105 6.7829C102.657 6.85003 92.1786 5.63864 90.2375 6.7829C88.7948 7.63062 91.9721 10.5921 90.2375 10.7281C73.8721 12.0109 48.9055 28.3511 43.4888 36.2786C41.7649 38.8014 55.7071 34.5211 53.4857 35.7683C50.9924 37.1682 48.2273 46.3344 46.574 53.4138C45.4294 58.2889 44.7088 64.5629 44.4544 71.3879C44.2424 77.2804 44.3272 78.2554 45.1751 81.4772C46.1501 85.0805 46.9131 86.1403 48.2273 85.6316C48.6936 85.462 48.9055 84.8261 48.9055 83.6391C48.9055 82.7065 49.4142 79.9087 50.0501 77.4076L51.1523 72.914L51.6186 74.7793C52.2121 76.9412 55.6882 83.6391 58.8252 88.5142C58.9944 88.7729 59.7223 88.4438 60.3787 86.8572C60.9769 85.4114 60.7341 83.1017 61.7502 80.6263C64.0649 74.9875 68.6097 67.6562 73.8721 61.7877C81.6496 53.1146 84.23 43.0771 91.5206 35.0198C105.126 19.9831 122.202 10.7184 119.826 9.78524Z" fill="white"/>
<path fill-rule="evenodd" clip-rule="evenodd" d="M53.6791 37.8143C51.4965 39.5693 48.2568 53.8049 48.2012 54.0428C47.0566 58.9179 45.9533 75.8472 47.0811 79.0523C48.2089 82.2575 51.3668 70.7035 51.3668 70.7035C51.3668 70.7035 56.14 83.0979 60.3575 86.4962C60.5377 86.6413 55.3444 71.1617 53.6791 62.125C51.4807 50.1961 54.9212 36.8154 53.6791 37.8143Z" fill="#E7EAEE"/>
<path fill-rule="evenodd" clip-rule="evenodd" d="M135.028 287.13C139.098 286.239 145.964 283.139 148.594 282.079C151.223 281.019 159.234 269.707 162.117 256.947C164.194 247.536 165.253 234.14 164.067 231.893C163.891 231.574 163.25 225.483 164.957 227.472C168.751 231.893 173.255 238.834 187.466 226.397C191.337 223.009 196.467 218.637 195.117 214.772C191.337 203.958 174.954 182.182 172.456 180.533C169.47 178.561 154.376 180.237 131.913 173.607C106.438 166.088 95.8304 143.947 85.8614 146.829C77.7993 149.16 58.4834 163.483 53.6357 172.554C30.7497 215.377 58.4834 245.383 64.7994 254.001L70.9319 256.65L71.1438 262.118L71.4406 265.552C71.9916 272.123 72.2036 272.716 75.171 274.921C82.5896 280.559 97.2147 285.815 110.441 287.681C116.588 288.529 129.941 288.232 135.028 287.13Z" fill="white"/>
<path fill-rule="evenodd" clip-rule="evenodd" d="M73.3437 260.117L73.6404 263.55C74.1915 270.121 74.4035 270.715 77.3709 272.919C81.7474 276.245 88.6318 279.438 96.2576 281.881C101.558 283.579 107.217 284.914 112.641 285.679C118.788 286.527 132.141 286.23 137.228 285.128C139.743 284.583 119.06 268.334 106.875 272.919C97.5185 276.44 75.4643 249.582 84.4312 242.566C94.4901 234.695 76.0578 203.649 75.4643 196.909C74.8708 190.169 72.5336 188.559 72.4654 188.795C72.3972 189.032 72.3972 189.838 72.5807 191.781C73.3715 200.156 73.3437 260.117 73.3437 260.117Z" fill="#E7EAEE"/>
<path fill-rule="evenodd" clip-rule="evenodd" d="M71.1354 194.985C72.0253 194.812 72.8872 195.393 73.0605 196.283C76.2599 212.72 89.7931 223.848 113.993 229.667C138.336 235.521 154.917 235.205 163.654 228.957C164.392 228.429 163.842 232.946 163.302 233.293C157.603 236.947 138.229 242.399 115.109 237.471C85.5478 231.17 71.6678 206.313 69.8376 196.91C69.6644 196.02 70.2454 195.158 71.1354 194.985Z" fill="#FFB61D"/>
<path fill-rule="evenodd" clip-rule="evenodd" d="M58.8079 165.329C59.5949 164.879 88.956 198.529 129.249 206.146C169.543 213.763 179.298 208.918 180.867 198.529C181.002 197.632 181.838 197.015 182.735 197.151C183.632 197.286 184.249 198.122 184.113 199.019C182.126 212.186 163.481 215.318 128.697 209.382C94.3498 203.521 70.8012 189.596 58.1983 167.569C57.748 166.782 58.021 165.779 58.8079 165.329Z" fill="#FFB61D"/>
<path fill-rule="evenodd" clip-rule="evenodd" d="M227.926 163.463C226.824 163.081 225.637 162.233 224.874 161.258L223.602 159.69L228.095 155.239C235.005 148.456 240.304 141.504 244.883 133.237C246.409 130.482 250.266 121.283 250.266 120.393C250.266 120.096 250.733 118.909 251.284 117.68C252.132 115.899 252.767 115.221 254.59 114.204C256.752 112.932 259.211 112.508 260.271 113.229C262.306 114.585 262.306 118.867 260.271 126.243C258.024 134.34 255.014 140.147 248.783 148.499C247.808 149.77 245.985 152.271 244.671 154.009C241.152 158.673 238.863 160.919 235.768 162.657C232.716 164.353 230.936 164.565 227.926 163.463ZM258.363 159.648L261.415 161.004C262.048 161.296 269.03 164.651 277.417 168.681C290.938 175.178 308.111 183.429 308.216 183.429C308.385 183.429 309.181 181.59 309.36 179.445C309.784 174.824 311.353 168.55 313.176 164.183C314.024 162.233 314.702 159.796 314.702 159.584C314.702 159.488 314.013 159.21 312.884 158.755C311.541 158.213 309.576 157.42 307.41 156.383C296.728 151.254 275.829 140.783 273.243 139.215C270.699 137.731 270.19 137.604 270.19 138.579C270.19 139.851 267.605 145.743 265.612 148.922C264.552 150.661 262.475 153.798 260.991 155.875L258.363 159.648ZM307.495 175.799C308.711 176.503 306.605 177.537 306.096 177.706C303.101 177.961 299.575 177.397 296.685 175.714C295.175 174.643 283.279 168.034 275.389 163.65C271.781 161.646 269.011 160.107 268.452 159.775C266.672 158.715 264.976 157.57 264.68 157.231C263.789 156.087 264.637 155.578 267.138 155.79C268.642 155.917 304.87 174.277 307.495 175.799ZM135.173 286.78C138.443 286.065 143.519 283.923 146.751 282.559C147.542 282.225 148.222 281.938 148.738 281.73C151.367 280.67 159.378 269.357 162.261 256.597C164.338 247.187 165.398 233.791 164.211 231.544C163.495 230.243 167.747 234.608 170.913 237.859C171.873 238.844 172.734 239.727 173.325 240.319C191.808 258.675 219.32 273.427 247.892 280.337C262.136 283.813 272.268 285.042 285.875 285.042C308.725 285.042 326.741 280.549 343.104 270.672C343.882 270.202 344.61 269.771 345.304 269.36C351.008 265.983 354.406 263.971 363.707 253.503C374.139 241.76 383.419 214.502 386.513 205.092C387.87 200.852 391.177 183.991 391.177 179.784C391.177 174.802 389.439 172.45 387.065 170.034C382.868 165.922 377.187 164.438 372.482 166.218L370.277 167.066L369.599 164.819C368.624 161.428 366.589 158.715 363.452 156.68C358.789 153.586 358.111 153.374 353.914 153.374C350.65 153.374 349.76 153.543 347.683 154.518L345.266 155.62L344.758 154.094C343.783 150.957 340.512 146.584 337.975 145.319C335.725 144.197 331.829 144.094 329.115 144.598C323.18 145.701 318.941 148.456 317.203 152.314C316.694 153.501 316.058 154.433 315.804 154.433C315.592 154.433 307.241 152.101 297.279 147.692C295.598 146.946 294.02 146.247 292.537 145.589C274.648 137.66 270.771 135.942 271.123 133.789C271.42 131.966 271.335 130.948 270.826 129.38C269.936 126.752 268.919 126.031 266.036 126.031C263.747 126.031 263.747 126.031 264.001 124.886C265.358 118.4 265.315 114.67 263.874 112.296C262.899 110.727 261.755 110.092 259.126 109.71C257.6 109.498 256.879 109.625 255.184 110.558C254.039 111.151 253.064 111.575 252.979 111.491C252.895 111.406 253.191 109.074 253.658 106.319C257.134 85.9283 254.448 68.3599 245.589 49.7075C245.504 49.5291 245.405 49.318 245.293 49.0765C242.599 43.2938 231.769 20.0417 200.795 8.309C199.393 7.77798 198.067 7.26452 196.792 6.77104C186.241 2.68711 179.227 -0.0279569 162.303 0.000217205C143.335 0.0317959 136.911 2.71329 124.405 8.43618C122.667 9.24162 121.141 9.70793 121.014 9.53836C120.887 9.3264 120.081 8.8177 119.276 8.39378C118.47 7.96987 116.732 6.91007 115.461 6.06224C111.815 3.60352 109.568 2.58611 108.424 2.84046C107.109 3.1796 107.109 4.28178 108.424 4.79049C108.975 5.00244 109.611 5.7231 109.865 6.44376C110.416 7.96987 111.052 8.13943 111.433 6.86768C111.603 6.40137 111.857 6.06224 111.984 6.14702C112.033 6.17114 112.194 6.24669 112.44 6.36198C113.06 6.65205 114.217 7.19365 115.461 7.8003C117.199 8.64813 119.106 9.53836 119.615 9.75032C120.548 10.0895 120.251 10.3438 116.224 12.7177C100.496 21.9591 87.694 36.3299 80.5298 52.6932C79.4276 55.1519 78.4526 56.678 77.4352 57.5258C74.8493 59.6878 69.7623 65.8346 68.5753 68.2509C67.9394 69.5651 66.5829 71.5999 65.5231 72.7868C64.5057 73.9738 63.4035 75.4999 63.022 76.1358C62.6829 76.8141 62.3437 77.2804 62.2165 77.1956C62.1318 77.0684 62.2589 74.9912 62.5557 72.5749C63.1916 66.9368 63.1916 65.4531 62.6829 65.3259C61.9198 65.1139 60.8176 68.0814 60.3513 71.7695C60.0122 74.0162 59.9274 77.4076 60.1394 80.8837L60.3937 86.3946L57.3839 81.5196C56.3489 79.8895 55.3298 78.2594 54.6059 77.1017L54.6054 77.1009L54.605 77.1002L54.6035 77.0979L54.6028 77.0967L54.6024 77.0961L54.6018 77.095L54.6006 77.0932C54.1412 76.3584 53.8015 75.8151 53.6534 75.5847C52.5512 73.9738 51.9154 71.5575 52.3817 70.7521C52.636 70.2857 52.5936 70.0738 52.1697 70.0738C51.2795 70.0738 49.5414 72.914 48.3968 76.1782C47.8457 77.7043 47.2947 78.976 47.1251 78.976C46.4892 78.976 46.7859 63.7998 47.4642 58.9248C48.8631 49.3018 52.5512 37.4321 54.2045 37.4321C54.5436 37.4321 54.8404 37.2626 54.8404 37.0082C54.8404 36.2452 53.7382 36.5419 52.848 37.5169C50.8556 39.6789 48.2273 46.3344 46.574 53.4138C45.4294 58.2889 44.7088 64.5629 44.4544 71.3879C44.2424 77.2804 44.3272 78.2554 45.1751 81.4772C46.1501 85.0805 46.9131 86.1403 48.2273 85.6316C48.6936 85.462 48.9055 84.8261 48.9055 83.6391C48.9055 82.7065 49.4142 79.9087 50.0501 77.4076L51.1523 72.914L51.6186 74.7793C52.2121 76.9412 55.6882 83.6391 58.8252 88.5142C60.9872 91.8207 61.0296 92.0327 61.7502 97.2045C62.1318 100.13 63.3187 107.244 66.0742 118.188C68.5088 127.858 82.1956 137.451 85.6131 139.846L85.6155 139.848C86.0644 140.162 86.3355 140.352 86.3798 140.402C86.8038 140.868 87.3972 141.122 87.7364 140.995C88.1179 140.868 88.3299 141.038 88.3299 141.504C88.3299 141.928 88.6266 142.479 88.9657 142.733C89.3897 143.03 89.6864 144.175 89.7712 146.167C89.9831 150.152 92.9506 157.782 95.2397 160.283C96.7234 161.894 99.818 162.573 103.252 161.979C105.499 161.64 106.134 161.386 105.922 160.877C105.795 160.538 106.601 160.962 107.703 161.81C120.59 171.644 133.647 177.537 148.314 180.08C153.995 181.055 163.406 181.606 168.535 181.225C173.071 180.928 173.071 180.928 172.859 181.818C172.562 183.005 172.944 183.726 179.175 194.282C184.135 202.633 184.559 203.184 190.07 208.822C201.77 220.904 214.53 230.272 228.986 237.521C242.593 244.304 264.319 249.942 284.18 251.722C304.04 253.503 318.305 235.274 318.263 230.611C318.178 224.21 317.288 220.013 315.126 215.944C313.006 212.001 311.607 210.645 305.248 206.406C298.169 201.7 293.803 197.843 290.92 193.731C289.097 191.145 288.419 188.22 288.419 186.651C288.419 185.634 289.733 183.345 291.683 182.878C293.464 182.412 293.803 182.454 295.795 183.429C296.982 183.98 300.077 185.422 302.62 186.651C305.206 187.838 307.707 189.025 308.216 189.279C309.716 189.696 310.35 192.632 310.693 194.223C310.77 194.578 310.832 194.867 310.887 195.045C311.48 197.249 314.289 200.095 316.101 201.064C319.283 202.766 327.123 202.993 329.285 200.662C329.836 200.068 331.664 199.339 332.04 199.56C332.416 199.781 333.778 201.615 333.778 203.099C333.82 205.643 335.135 207.974 337.932 210.306C343.231 214.714 347.344 215.774 351.498 213.824C353.66 212.807 355.432 212.409 355.432 212.409C355.432 212.409 357.199 214.664 357.306 215.435C358.138 221.458 367.055 223.983 369.429 224.237C369.974 224.292 371.032 224.059 372.108 223.823C373.546 223.507 375.013 223.184 375.322 223.532C375.928 224.215 365.19 241.972 363.707 244.219C349.59 265.415 322.12 278.387 288.504 279.743C266.672 280.634 239.838 274.529 216.565 263.423C201.685 256.258 188.502 247.483 174.385 235.19C171.926 233.07 169.086 230.654 168.069 229.806C167.051 229 164.635 226.245 162.77 223.701C159.633 219.462 157.852 217.936 157.852 219.378C157.852 220.013 159.887 223.913 162.219 227.771C163.151 229.297 163.745 230.357 163.533 230.187C163.321 230.018 162.643 233.07 162.007 236.97C159.93 249.476 156.496 261.812 153.02 269.485C151.112 273.639 147.454 276.741 146.352 277.589C142.283 280.684 136.19 282.075 127.754 282.923C117.071 283.983 101.344 281.609 89.3473 277.115C86.1679 275.928 77.9863 272.494 77.4352 272.113C77.4021 272.08 77.2143 270.86 76.9522 269.158C76.8783 268.678 76.7984 268.16 76.7145 267.619C75.1884 257.149 73.0688 216.834 73.0688 198.182C73.0688 190.466 72.9841 188.771 72.4753 188.771C71.4156 188.771 70.9916 189.788 70.5253 193.434C69.4655 201.743 69.6775 245.109 70.8221 254.224L71.0764 256.301L69.6351 255.495C67.4307 254.224 59.0372 245.703 56.1121 241.76C53.6359 238.39 52.1641 234.073 51.063 230.844C50.8069 230.093 50.5708 229.4 50.3469 228.792C44.2001 211.751 46.362 192.628 54.8404 175.417C62.047 160.75 70.9069 152.611 83.8787 148.668C85.9983 148.032 87.8636 147.354 88.0755 147.184C88.881 146.421 83.7092 146.803 80.8689 147.693C71.6275 150.533 61.9622 158.291 55.3915 168.211C46.1501 182.115 41.9957 202.633 44.9207 220.141C45.599 224.295 48.3544 233.282 49.1175 233.918C49.1851 233.985 49.5337 234.717 50.061 235.823C51.5191 238.882 54.3429 244.806 56.3665 247.483C58.8252 250.832 66.2438 258.124 69.3384 260.37L71.2884 261.769L71.5851 265.203C72.1362 271.774 72.3482 272.367 75.3156 274.572C82.7342 280.21 97.3593 285.466 110.586 287.332C116.732 288.179 130.086 287.883 135.173 286.78ZM278.457 246.975C253.827 244.813 224.068 233.069 202.533 214.926C193.461 207.253 181.676 192.332 177.013 184.065C176.038 182.37 175.318 181.564 174.47 181.352C173.58 181.098 174.343 180.843 177.988 180.25C193.377 177.622 208.341 171.221 220.423 162.106L222.203 160.792L222.712 162.021C223.856 164.777 228.265 167.575 231.529 167.575C232.843 167.575 237.252 165.582 239.923 163.76L241.746 162.53L243.229 164.014C244.586 165.37 244.84 165.455 247.384 165.455C250.309 165.455 253.827 164.141 255.777 162.276L256.837 161.301L259.847 163.293C261.458 164.438 265.951 166.939 269.809 168.931C275.574 171.899 281.679 175.333 287.486 178.893L288.419 179.487L287.529 180.674C286.596 181.946 284.859 184.362 284.859 188.05C284.859 192.204 289.179 199.669 297.448 204.795C303.945 208.822 315.126 216.743 314.702 228.322C314.651 229.721 313.091 233.197 311.014 236.334C309.657 238.327 305.884 241.294 302.451 243.032C296.601 245.957 286.299 247.653 278.457 246.975ZM52.4241 56.678C53.5686 56.9323 54.3317 57.3139 54.1621 57.4834C53.611 58.0345 50.686 57.7802 50.0077 57.1019C48.9479 56.0845 49.2023 55.3638 50.686 55.0671C51.449 54.9399 52.5936 54.3041 53.2295 53.6682C53.8654 53.0323 54.4165 52.7356 54.4165 52.9475C54.4165 53.4986 52.2969 55.4486 51.2371 55.8726C50.5588 56.1693 50.7708 56.2965 52.4241 56.678ZM69.296 57.3563C70.5253 56.678 70.271 56.2117 68.8297 56.4236C67.3883 56.6356 67.3036 56.466 68.2362 55.0247C68.6177 54.4736 68.8297 53.6682 68.7449 53.2443C68.6177 52.6932 68.321 52.9475 67.6427 54.3041C67.134 55.2791 66.4133 56.0845 66.0742 56.0845C65.0144 56.0845 64.9296 56.9323 65.947 57.3139C67.2612 57.865 68.2786 57.865 69.296 57.3563ZM54.6284 34.2104C53.611 34.3799 50.4316 35.6517 47.6338 37.0506C44.7935 38.4071 42.3772 39.5517 42.2076 39.5093C37.8837 39.043 43.9033 31.8364 54.8404 24.4603C65.3111 17.3808 72.3906 13.6504 78.9613 11.7427C83.0733 10.5558 87.694 10.3862 89.0081 11.3612C89.7288 11.9123 89.4744 11.9547 86.3375 11.9971C79.5548 11.9971 71.7123 15.4732 58.9524 23.9939C52.3393 28.4027 44.6664 34.7191 44.6664 35.7365C44.6664 35.9484 45.8957 35.5245 47.4218 34.8462C50.686 33.3625 54.0349 32.5995 55.5187 32.9386C57.0871 33.3625 56.748 33.9136 54.6284 34.2104ZM71.034 37.856C75.0189 37.0506 75.1884 37.0082 75.1884 36.5843C75.1884 36.3723 73.6623 36.1604 71.7547 36.0756L68.321 35.9484L71.5003 32.3451C73.2384 30.3527 75.2732 28.3603 75.9939 27.894C77.5624 26.8766 77.6471 26.1559 76.3754 25.732L75.4004 25.4353L76.4602 25.0537C77.0537 24.8418 78.1558 24.757 78.9189 24.8842C80.0635 25.0537 80.3178 24.969 80.1907 24.3755C80.0635 23.782 79.5972 23.6548 77.52 23.6972C71.4579 23.782 68.8721 25.3929 73.6199 26.1559C74.9341 26.3679 76.0363 26.707 76.0363 26.919C76.0363 27.0885 75.8243 27.2581 75.5699 27.2581C74.7645 27.2581 67.9394 34.168 67.0916 35.8636C65.7775 38.3648 66.4981 38.7463 71.034 37.856ZM99.0126 21.4081C97.7832 21.4928 97.4865 21.7048 97.5713 22.2983L97.5843 22.3846C97.6319 22.6982 97.6593 22.8783 97.589 22.933C97.4941 23.0069 97.2213 22.8521 96.5803 22.4885L96.4691 22.4255C95.6636 22.0015 95.5789 21.7896 96.0452 21.4504C96.3419 21.1961 97.1474 20.8146 97.7832 20.6874L98.9702 20.3906L98.08 19.458C97.6137 18.9069 97.3593 18.3982 97.4865 18.2287C97.8256 17.8895 101.98 18.3558 102.574 18.8222C102.828 19.0341 103.209 18.9917 103.464 18.7374C104.057 18.1439 104.863 18.6102 104.863 19.5428C104.863 20.0515 104.735 20.0939 104.354 19.7124C104.015 19.3732 103.718 19.3732 103.337 19.67C102.997 19.9667 102.743 19.9667 102.531 19.6276C102.404 19.4156 101.598 19.2037 100.751 19.2037C99.9685 19.2037 99.5986 19.2037 99.5231 19.3527C99.4554 19.4864 99.6245 19.74 99.9452 20.2211C100.621 21.2776 100.581 21.2809 99.027 21.4069L99.0126 21.4081ZM92.569 10.1318C92.569 9.58075 92.0603 8.60574 91.4245 7.96987L90.2375 6.7829L96.5963 7.03725C100.115 7.20681 104.1 7.58834 105.499 7.96987C106.897 8.309 108.508 8.56335 109.102 8.56335C109.992 8.56335 109.822 8.39378 108.169 7.50356C105.287 6.01985 101.598 5.29919 94.5191 4.79048C86.0407 4.197 81.7591 5.00244 82.5646 7.12203C82.6918 7.54595 83.37 7.75791 84.3874 7.75791C86.4646 7.75791 89.856 8.98727 91.0005 10.1318C92.2299 11.3612 92.569 11.3612 92.569 10.1318ZM71.8819 122.385C75.3156 126.794 79.8515 131.796 81.9711 133.492C83.2429 134.509 84.345 135.357 84.4298 135.357C84.4722 135.357 83.5396 133.407 82.3526 131.033C77.5624 121.495 74.7645 111.999 73.4504 101.062C73.1536 98.6458 72.6873 96.611 72.1786 95.7632C71.1612 94.0675 71.1612 91.8631 72.221 89.7859C72.7721 88.6838 73.0688 87.2848 73.0688 85.7587V83.4272L71.034 85.5468C69.0416 87.624 67.134 88.4718 67.134 87.2001C67.134 86.2674 70.271 81.7739 71.9243 80.375C73.2384 79.2728 73.408 78.8913 73.8319 75.5847C74.1286 73.5923 74.8069 70.0738 75.358 67.7422C75.9515 65.4107 76.2906 63.4183 76.2058 63.3335C75.9091 63.0367 65.947 74.4781 64.5905 78.1282C64.2927 78.9296 63.4883 80.3326 62.8524 81.1804L61.7502 82.5956C61.7502 82.5956 62.0926 84.5772 62.4709 87.0676C62.8531 89.5838 63.0324 91.3134 63.1921 92.854C63.4058 94.9149 63.5844 96.6374 64.1666 99.4513C64.8448 102.927 65.5231 105.937 65.6927 106.149C65.8198 106.404 66.3709 108.354 66.922 110.516C68.109 115.306 70.1014 120.054 71.8819 122.385ZM243.908 162.488L243.017 161.598C243.017 161.598 257.793 142.825 260.44 135.908C262.461 130.63 263.65 129.133 265.254 129.133C266.151 129.133 266.884 129.337 267.223 129.846C267.817 130.736 268.388 131.839 267.625 135.611C266.354 141.716 264.404 145.743 258.554 154.433C257.197 156.426 255.459 158.63 254.696 159.393C252.915 161.046 248.91 162.742 246.578 163.124C245.095 163.336 244.671 163.251 243.908 162.488Z" fill="#00160A"/>
<path d="M361.29 203.958C366.564 189.588 365.766 186.527 364.851 186.227C364.851 186.227 362.837 187.372 361.947 189.788C360.294 194.324 354.635 206.194 352.515 208.313C350.014 210.814 350.014 210.814 347.471 210.814C344.927 210.814 337.591 206.984 336.593 203.208C334.995 197.167 341.875 176.18 342.044 174.993L340.9 174.188C340.137 174.909 330.212 205.007 317.161 197.164C315.666 196.266 312.497 192.035 312.243 189.788C310.831 183.26 317.312 160.432 318.414 155.743C319.401 151.546 324.537 147.651 330.853 147.651C340.561 147.651 339.257 156.136 343.605 159.127C345.532 160.452 348.699 158.049 349.675 157.867C355.144 156.85 357.239 158.034 361.248 161.216C364.342 163.672 366.632 168.533 369.152 170.245C370.552 171.197 372.038 169.896 372.524 169.652C374.519 168.651 378.798 169.398 379.985 170.245C381.725 171.004 385.989 175.103 386.663 177.487C389.716 188.292 380.075 212.246 376.436 216.74C370.411 224.178 356.016 218.327 361.29 203.958Z" fill="white"/>
<path fill-rule="evenodd" clip-rule="evenodd" d="M117.58 164.584C129.196 171.918 141.172 176.708 154.823 178.022C165.59 179.04 180.108 177.641 190.536 174.25C199.311 171.409 211.181 163.541 219.108 156.886C234.497 143.999 244.204 123.869 248.444 102.503C249.037 99.4937 249.942 91.9279 249.9 84.4246C249.9 75.6919 246.057 51.8279 234.412 38.068C210.395 9.68829 170.916 -3.09597 137.737 7.82735C125.768 11.7677 113.024 18.9069 103.401 28.2331C91.2773 40.0604 82.3326 56.1693 78.7717 72.6173C75.0412 89.9979 79.8939 110.77 88.3299 127.811C95.0702 141.377 106.177 157.335 117.58 164.584ZM230.766 113.356C222.797 137.307 202.025 155.196 175.911 160.623C171.926 161.428 169.171 161.725 163.575 161.81C159.633 161.937 155.69 161.894 154.885 161.81C136.614 159.605 122.71 152.865 109.907 140.063C104.312 134.424 101.938 131.372 98.4615 125.353C92.993 115.814 90.0679 106.064 89.1777 94.3219C86.1255 54.0921 114.909 20.5602 155.436 17.0841C171.333 15.7276 188.968 20.6026 202.364 30.0984C207.324 33.6169 216.311 42.5191 219.108 46.6735C220.253 48.3268 231.36 64.5629 233.31 73.889C235.811 86.0131 234.836 101.189 230.766 113.356Z" fill="white"/>
<path fill-rule="evenodd" clip-rule="evenodd" d="M249.915 84.4246C249.915 112.878 236.455 143.986 219.085 157.271C210.798 163.609 199.968 171.284 190.536 174.25C176.715 178.595 154.823 178.022 154.823 178.022C154.823 178.022 177.157 175.037 185.434 171.706C209.168 162.154 222.125 147.492 230.125 133.423C245.917 105.653 249.915 83.7334 249.915 84.4246Z" fill="#E7EAEE"/>
<path fill-rule="evenodd" clip-rule="evenodd" d="M155.309 156.723C143.99 155.281 132.756 151.254 123.685 145.277C118.301 141.758 110.162 133.492 106.219 127.599C100.581 119.121 96.8506 110.049 95.0278 100.299C93.7136 93.2197 93.756 82.325 95.0702 76.0086C96.4267 69.5651 98.1647 64.6476 101.259 58.416C104.863 51.2095 108.678 45.9105 114.401 40.1876C124.151 30.4375 135.469 24.2483 148.95 21.2809C153.316 20.3483 169.129 19.5852 169.68 20.3059C169.807 20.5178 170.655 21.0689 171.545 21.5352C172.435 22.0439 174.809 23.8244 176.759 25.5624C179.684 28.1059 180.998 29.7168 183.542 33.7017C185.28 36.4147 186.679 38.8735 186.679 39.0854C186.679 39.5517 188.035 40.3996 188.798 40.3996C189.858 40.3996 190.579 37.2202 190.791 31.6245C190.918 28.5299 191.172 25.9864 191.342 25.9864C191.935 25.9864 198.464 29.5897 201.516 31.6245C207.493 35.6093 213.47 41.205 217.879 47.0551C219.871 49.6833 220.168 50.3616 220.168 51.9725C220.168 53.4562 220.592 54.6008 221.906 56.8899C225.213 62.6552 227.799 69.9042 229.367 77.9163C230.385 83.3 230.385 93.474 229.325 99.1121C226.442 114.628 217.879 130.058 206.73 139.851C197.277 148.117 187.23 153.204 175.36 155.705C171.291 156.595 159.082 157.189 155.309 156.723ZM124.999 127.727C125.38 127.303 125.635 126.667 125.507 126.37C125.469 126.281 124.938 126.031 124.162 125.666C122.35 124.815 119.202 123.334 117.837 121.792C112.411 115.603 110.418 110.982 109.189 101.444C108.002 92.1599 108.999 85.8837 111.139 75.7967C112.183 70.876 114.957 66.8115 116.683 64.2828C117.857 62.5634 118.546 61.554 117.877 61.4683C116.224 61.2139 115.969 61.3411 114.231 62.9944C110.501 66.5553 108.805 69.3955 107.025 74.8641C104.269 83.4272 103.737 106.569 109.189 117.001C114.641 127.434 124.024 128.829 124.999 127.727ZM185.28 92.1175C184.56 98.7029 181.507 108.226 177.946 112.381C176.293 114.331 170.224 117.68 165.101 117.001C160.153 116.346 156.284 114.034 152.977 109.074C150.137 104.793 148.67 99.5955 147.678 93.0501C145.966 81.7474 153.444 68.5901 156.665 65.3259C159.93 61.977 162.261 60.79 165.229 60.7476C168.111 60.7476 169.976 61.3835 172.901 63.4607C178.243 67.1911 186.679 79.3208 185.28 92.1175ZM128.136 57.0595C128.984 56.0845 129.111 55.6182 128.856 53.7953C128.687 52.0997 128.348 51.4214 127.457 50.7008C125.889 49.429 123.939 49.429 122.498 50.7855C121.48 51.7605 121.353 52.0997 121.48 54.4312C121.607 56.9323 121.692 57.1019 123.091 57.865C124.956 58.8824 126.779 58.5856 128.136 57.0595ZM154.588 30.9038C146.958 36.3723 143.651 38.6191 140.217 40.7387C137.504 42.4344 136.656 42.4767 136.656 40.9506C136.656 40.1452 137.25 39.255 138.776 37.856L140.896 35.906L136.784 35.3549C132.163 34.7615 127.669 33.4897 126.694 32.5147C125.084 30.8614 126.482 30.4799 131.061 31.3277C133.096 31.6669 137.038 32.0908 139.836 32.1756L144.923 32.3875L148.611 29.7168C156.708 23.8668 165.101 20.5602 169.129 21.5776C171.63 22.1711 171.333 22.8494 168.493 23.1885C165.229 23.57 163.236 24.6722 154.588 30.9038Z" fill="white"/>
<path d="M165.483 111.194C165.483 110.982 165.737 110.77 166.076 110.77C166.415 110.77 166.839 110.982 166.967 111.194C167.094 111.448 166.839 111.618 166.373 111.618C165.864 111.618 165.483 111.448 165.483 111.194Z" fill="white"/>
<path d="M168.026 110.812C168.026 110.346 169.086 109.922 170.273 109.922C171.206 109.964 171.206 109.964 170.4 110.558C169.468 111.279 168.026 111.406 168.026 110.812Z" fill="white"/>
<path d="M161.456 109.71C161.328 109.371 161.159 108.777 161.032 108.438C160.905 108.014 161.117 107.802 161.668 107.802C162.134 107.802 162.515 108.057 162.515 108.396C162.515 108.735 162.643 109.286 162.77 109.668C162.939 110.134 162.812 110.346 162.346 110.346C161.964 110.346 161.54 110.049 161.456 109.71Z" fill="white"/>
<path d="M163.702 108.65C163.49 107.379 163.957 106.955 165.483 106.955C165.949 106.955 166.331 107.379 166.5 108.099C166.839 109.329 166.288 109.922 164.805 109.922C164.126 109.922 163.83 109.625 163.702 108.65Z" fill="white"/>
<path d="M159.378 108.862C158.573 108.226 158.573 108.226 159.463 108.226C160.014 108.226 160.396 108.481 160.396 108.862C160.396 109.625 160.396 109.625 159.378 108.862Z" fill="white"/>
<path d="M167.899 108.82C167.348 108.269 167.602 106.615 168.281 106.361C169.51 105.895 170.061 106.107 170.316 107.209C170.485 107.845 170.57 108.396 170.485 108.438C170.146 108.82 168.154 109.074 167.899 108.82Z" fill="white"/>
<path d="M171.672 107.93C171.545 107.802 171.418 107.251 171.418 106.743C171.418 106.022 171.757 105.725 172.774 105.513C173.664 105.344 174.216 105.429 174.47 105.768C174.894 106.446 174.894 107.294 174.512 107.506C173.749 107.93 171.969 108.184 171.672 107.93Z" fill="white"/>
<path d="M157.428 106.615C157.428 106.107 157.81 105.683 158.361 105.556C159.463 105.259 159.421 105.217 159.633 106.319C159.718 106.955 159.506 107.209 158.615 107.294C157.683 107.421 157.428 107.251 157.428 106.615Z" fill="white"/>
<path d="M160.65 106.658C160.057 106.022 160.438 104.835 161.244 104.835C161.795 104.835 162.092 105.132 162.092 105.64C162.092 106.446 161.117 107.124 160.65 106.658Z" fill="white"/>
<path d="M163.194 105.386C162.855 104.581 163.575 103.987 164.974 103.987C165.61 103.987 165.907 104.242 165.907 104.793C165.907 105.259 165.525 105.683 164.974 105.852C163.575 106.192 163.49 106.192 163.194 105.386Z" fill="white"/>
<path d="M175.445 105.259C175.572 105.047 175.784 104.835 175.911 104.835C176.038 104.835 175.996 105.047 175.869 105.259C175.742 105.513 175.53 105.683 175.403 105.683C175.275 105.683 175.318 105.513 175.445 105.259Z" fill="white"/>
<path d="M167.009 104.538C166.67 103.69 167.094 103.267 168.45 103.055C169.213 102.97 169.552 103.139 169.637 103.733C169.934 105.132 167.518 105.895 167.009 104.538Z" fill="white"/>
<path d="M156.835 103.818C156.453 102.419 156.538 102.292 157.64 102.292C158.234 102.292 158.7 102.461 158.7 102.673C158.7 102.885 158.827 103.351 158.955 103.69C159.082 104.114 158.827 104.369 158.107 104.496C157.301 104.665 157.005 104.496 156.835 103.818Z" fill="white"/>
<path d="M170.994 103.351C170.994 102.588 171.291 102.249 172.096 102.037C173.283 101.74 173.961 102.334 173.961 103.69C173.961 104.242 173.622 104.411 172.477 104.411C171.163 104.411 170.994 104.284 170.994 103.351Z" fill="white"/>
<path d="M155.563 103.351C155.436 103.012 155.521 102.715 155.733 102.715C155.987 102.715 156.157 103.012 156.157 103.351C156.157 103.69 156.072 103.987 155.987 103.987C155.902 103.987 155.733 103.69 155.563 103.351Z" fill="white"/>
<path d="M159.845 103.69C159.251 103.139 159.59 101.952 160.353 101.74C160.82 101.613 161.286 101.656 161.413 101.783C161.922 102.249 161.625 103.478 160.989 103.733C160.184 104.03 160.184 104.03 159.845 103.69Z" fill="white"/>
<path d="M174.979 103.394C174.512 102.164 175.021 101.232 176.208 101.105C177.098 100.977 177.353 101.147 177.353 101.825C177.353 103.224 176.886 103.987 176.038 103.987C175.572 103.987 175.106 103.733 174.979 103.394Z" fill="white"/>
<path d="M162.812 102.843C162.303 102.376 162.473 101.528 163.194 101.274C163.999 100.977 165.695 101.825 165.229 102.292C164.635 102.8 163.109 103.182 162.812 102.843Z" fill="white"/>
<path d="M166.5 101.783C166.119 101.189 167.475 100.172 168.577 100.172C169.086 100.172 169.298 100.426 169.213 100.893C169.044 101.74 166.882 102.419 166.5 101.783Z" fill="white"/>
<path d="M154.885 101.486C154.885 101.274 154.758 100.808 154.631 100.426C154.503 100.045 154.546 99.748 154.8 99.748C155.351 99.748 155.775 101.359 155.266 101.698C155.054 101.825 154.885 101.74 154.885 101.486Z" fill="white"/>
<path d="M156.029 100.511C155.775 99.5784 156.284 98.9002 157.259 98.9002C157.81 98.9002 158.361 100.553 158.022 101.105C157.556 101.825 156.241 101.401 156.029 100.511Z" fill="white"/>
<path d="M158.997 100.723C158.361 100.087 158.743 98.5611 159.59 98.3491C160.226 98.1795 160.565 98.3915 160.905 99.1545C161.159 99.7056 161.286 100.257 161.201 100.341C160.777 100.723 159.251 101.02 158.997 100.723Z" fill="white"/>
<path d="M170.443 100.723C169.892 100.172 170.146 99.8328 171.418 99.3665C172.477 99.0274 172.774 99.0697 172.986 99.5784C173.368 100.596 171.248 101.571 170.443 100.723Z" fill="white"/>
<path d="M174.173 99.748C173.749 99.0698 174.343 98.4763 175.445 98.4763C176.759 98.4763 177.141 99.5784 175.954 99.9176C174.682 100.257 174.47 100.214 174.173 99.748Z" fill="white"/>
<path d="M177.776 98.7306C177.776 98.0947 178.54 97.4165 178.879 97.7556C179.175 98.0523 178.582 99.3241 178.158 99.3241C177.946 99.3241 177.776 99.0697 177.776 98.7306Z" fill="white"/>
<path d="M154.334 98.1795C154.164 98.0523 154.037 97.5012 154.079 97.0349C154.079 96.2295 154.122 96.2295 154.503 97.1621C154.927 98.1795 154.843 98.6882 154.334 98.1795Z" fill="white"/>
<path d="M155.139 97.5436C154.758 96.0599 154.8 95.9327 155.902 95.9327C157.132 95.9327 157.895 97.5012 156.962 98.0947C155.987 98.6882 155.436 98.5186 155.139 97.5436Z" fill="white"/>
<path d="M169.722 98.3915C169.722 98.2643 169.934 97.586 170.188 96.823C170.782 95.1273 172.096 95.0425 172.393 96.6958C172.52 97.3317 172.562 97.8828 172.52 97.9252C172.308 98.1795 169.722 98.561 169.722 98.3915Z" fill="white"/>
<path d="M158.149 97.3317C157.98 97.2045 157.852 96.6958 157.852 96.2295C157.852 95.5512 157.98 95.5088 158.488 95.9328C158.827 96.2295 159.124 96.7382 159.124 97.0349C159.124 97.6708 158.615 97.8404 158.149 97.3317Z" fill="white"/>
<path d="M173.41 96.4838C173.156 95.1697 173.707 94.5762 175.021 94.7458C175.657 94.8306 175.869 95.2121 175.869 96.1447C175.869 97.2045 175.699 97.4589 174.767 97.5436C173.834 97.6708 173.622 97.4589 173.41 96.4838Z" fill="white"/>
<path d="M177.564 96.6534C177.013 94.9577 177.183 94.4491 178.328 94.3219C179.345 94.1947 179.472 94.3219 179.472 95.4241C179.472 96.3567 179.218 96.7382 178.582 96.9078C178.116 97.035 177.649 96.9078 177.564 96.6534Z" fill="white"/>
<path d="M153.698 94.2371C153.698 93.4316 153.783 93.0925 153.91 93.5164C153.995 93.8979 153.995 94.5762 153.91 95.0001C153.783 95.3817 153.698 95.0425 153.698 94.2371Z" fill="white"/>
<path d="M154.758 94.7882C154.207 94.2795 154.461 92.6262 155.139 92.3718C156.114 91.9903 156.581 92.4566 156.581 93.8556C156.581 94.7458 156.369 95.0849 155.818 95.0849C155.394 95.0849 154.885 94.9577 154.758 94.7882Z" fill="white"/>
<path d="M157.301 93.6436C157.132 93.0077 157.047 92.3295 157.216 92.2023C157.64 91.7784 157.895 92.4566 157.768 93.686L157.64 94.873L157.301 93.6436Z" fill="white"/>
<path d="M170.994 93.3469C170.994 92.8805 171.206 92.6262 171.418 92.7534C171.672 92.8805 171.842 93.3045 171.842 93.6436C171.842 93.9827 171.672 94.2371 171.418 94.2371C171.206 94.2371 170.994 93.8556 170.994 93.3469Z" fill="white"/>
<path d="M172.901 93.898C172.308 93.2621 172.774 92.1175 173.749 91.8632C174.979 91.5664 175.021 91.5664 175.403 92.7958C175.657 93.5588 175.487 93.7284 174.385 93.898C173.707 94.0251 173.029 93.9827 172.901 93.898Z" fill="white"/>
<path d="M176.801 93.0925C176.335 92.6686 176.462 91.2697 176.929 91.2697C177.183 91.2697 177.353 91.1001 177.353 90.8457C177.353 90.6338 177.098 90.4218 176.759 90.4218C176.038 90.4218 175.445 88.3446 176.038 87.7511C176.801 86.9881 177.649 87.7935 178.158 89.8707C178.455 90.9729 178.751 92.2447 178.879 92.6686C179.048 93.2197 178.879 93.3892 178.073 93.3892C177.522 93.3892 176.929 93.2621 176.801 93.0925Z" fill="white"/>
<path d="M179.091 90.8457C178.794 89.574 178.031 87.0305 177.48 85.1652C176.632 82.4522 176.547 81.7739 177.013 81.4772C177.31 81.2652 177.692 81.0956 177.819 81.0956C178.285 81.0956 179.981 89.7859 179.811 91.4816L179.684 93.1773L179.091 90.8457Z" fill="white"/>
<path d="M153.274 90.6338C153.274 89.9555 153.359 89.7012 153.486 90.1251C153.571 90.5066 153.571 91.1001 153.486 91.3968C153.359 91.6512 153.274 91.3544 153.274 90.6338Z" fill="white"/>
<path d="M154.122 90.549C154.291 89.0653 155.521 88.7262 155.86 90.0827C156.157 91.1849 156.241 91.0577 154.97 91.4816C154.079 91.736 153.995 91.6512 154.122 90.549Z" fill="white"/>
<path d="M172.011 90.1675C171.672 88.9381 172.393 88.2174 173.749 88.387C174.767 88.5142 175.148 90.337 174.3 90.8881C173.241 91.5664 172.266 91.2697 172.011 90.1675Z" fill="white"/>
<path d="M156.581 89.8283C156.581 89.1077 156.793 88.7262 157.259 88.7262C157.683 88.7262 157.852 89.0229 157.768 89.6588C157.556 91.0153 156.581 91.1425 156.581 89.8283Z" fill="white"/>
<path d="M152.808 88.0479C152.808 87.5816 152.935 87.4544 153.062 87.7935C153.189 88.0903 153.147 88.4718 153.02 88.599C152.893 88.7685 152.765 88.5142 152.808 88.0479Z" fill="white"/>
<path d="M153.613 87.9207C153.613 87.2848 153.868 87.0305 154.503 87.0305C155.097 87.0305 155.309 87.2425 155.224 87.7512C155.012 88.8533 153.613 88.9805 153.613 87.9207Z" fill="white"/>
<path d="M155.945 87.5392C155.648 86.7761 155.648 86.7761 156.92 86.437C157.683 86.1826 157.852 86.3098 157.852 86.9457C157.852 87.9631 156.326 88.4718 155.945 87.5392Z" fill="white"/>
<path d="M171.291 86.9457C170.994 85.8859 171.545 85.3348 173.029 85.3348C173.749 85.3348 173.961 85.5892 173.961 86.3946C173.961 87.0305 173.707 87.4544 173.368 87.4544C173.029 87.4544 172.477 87.5816 172.138 87.7087C171.757 87.8359 171.46 87.5816 171.291 86.9457Z" fill="white"/>
<path d="M174.979 85.9707C174.639 85.1229 175.148 84.487 176.123 84.487C176.717 84.487 176.929 84.7837 176.929 85.5468C176.929 86.3098 176.717 86.6066 176.081 86.6066C175.614 86.6066 175.106 86.3098 174.979 85.9707Z" fill="white"/>
<path d="M153.189 85.3772C153.189 84.487 154.164 83.4696 154.588 83.9359C154.758 84.0631 154.885 84.6565 154.885 85.2076C154.885 85.8859 154.631 86.1826 154.037 86.1826C153.486 86.1826 153.189 85.8859 153.189 85.3772Z" fill="white"/>
<path d="M155.521 84.8685C155.182 83.8087 155.563 83.3424 157.005 83.1304C158.319 82.9609 158.743 84.3598 157.598 85.2076C156.496 86.0131 155.818 85.8859 155.521 84.8685Z" fill="white"/>
<path d="M170.867 84.6142C170.57 84.3598 170.443 82.7913 170.697 82.7913C170.739 82.7913 171.375 82.6217 172.138 82.4098C173.41 82.0283 173.495 82.0706 173.452 83.2152C173.41 84.0631 173.156 84.487 172.52 84.6565C171.375 84.9533 171.206 84.9533 170.867 84.6142Z" fill="white"/>
<path d="M169.298 83.6391C169.298 83.3424 169.425 83.2152 169.595 83.3424C169.722 83.512 169.722 83.7663 169.595 83.9359C169.425 84.0631 169.298 83.9359 169.298 83.6391Z" fill="white"/>
<path d="M174.046 82.9609C174.173 82.2402 175.487 81.1804 175.784 81.5196C175.911 81.6467 176.123 82.1554 176.25 82.7065C176.547 83.5544 176.42 83.6391 175.233 83.6391C174.216 83.6391 173.919 83.4696 174.046 82.9609Z" fill="white"/>
<path d="M153.613 82.9185C153.613 82.7065 153.825 82.2826 154.037 81.9435C154.376 81.4348 154.461 81.4772 154.461 82.2826C154.461 82.7913 154.291 83.2152 154.037 83.2152C153.825 83.2152 153.613 83.0881 153.613 82.9185Z" fill="white"/>
<path d="M154.885 81.9859C154.885 80.7989 155.775 80.4174 156.453 81.3076C156.877 81.9435 156.877 82.1554 156.453 82.4522C155.563 83.0033 154.885 82.8337 154.885 81.9859Z" fill="white"/>
<path d="M167.772 81.4348C167.009 80.5869 167.009 80.5445 167.73 80.7989C168.154 80.9685 168.705 81.0956 168.917 81.0956C169.129 81.0956 169.298 81.3924 169.298 81.7315C169.298 82.6217 168.705 82.537 167.772 81.4348Z" fill="white"/>
<path d="M158.658 81.3924C156.835 79.9934 156.581 76.8565 158.276 76.8565C159.421 76.8565 160.481 78.6369 160.311 80.2902C160.184 81.8163 159.675 82.1554 158.658 81.3924Z" fill="white"/>
<path d="M170.273 81.6467C170.443 81.5196 170.697 81.5196 170.867 81.6467C170.994 81.8163 170.867 81.9435 170.57 81.9435C170.273 81.9435 170.146 81.8163 170.273 81.6467Z" fill="white"/>
<path d="M176.674 79.9934C176.801 79.6119 176.929 79.2304 176.929 79.1456C176.929 79.0608 177.141 78.976 177.353 78.976C177.607 78.976 177.776 79.3576 177.776 79.8239C177.776 80.3326 177.48 80.6717 177.098 80.6717C176.632 80.6717 176.505 80.4598 176.674 79.9934Z" fill="white"/>
<path d="M154.461 79.8663C154.461 78.8913 155.351 77.2804 155.86 77.2804C156.75 77.2804 156.114 79.9934 155.182 80.163C154.8 80.2478 154.461 80.1206 154.461 79.8663Z" fill="white"/>
<path d="M163.999 79.4L162.727 79.1032L163.872 78.8065C165.059 78.4673 165.907 78.7217 165.907 79.4424C165.907 79.8663 165.864 79.8663 163.999 79.4Z" fill="white"/>
<path d="M162.515 77.3652C162.515 75.6271 163.49 75.3727 164.381 76.8988C164.974 77.9163 165.017 78.1282 164.465 78.1282C164.126 78.1282 163.575 78.2554 163.194 78.3826C162.685 78.5945 162.515 78.3402 162.515 77.3652Z" fill="white"/>
<path d="M169.892 77.9586C167.984 77.1108 166.755 74.864 166.755 72.1934C166.755 70.2857 166.924 69.8194 168.069 68.7596C168.789 68.0814 169.51 67.5303 169.722 67.5303C170.655 67.5303 174.088 70.7944 175.233 72.8292L176.547 75.1608L175.148 76.6445C173.537 78.3402 171.757 78.8065 169.892 77.9586Z" fill="white"/>
<path d="M161.032 76.8565C160.905 76.6445 160.989 76.4325 161.201 76.4325C161.456 76.4325 161.668 76.6445 161.668 76.8565C161.668 77.1108 161.583 77.2804 161.498 77.2804C161.371 77.2804 161.159 77.1108 161.032 76.8565Z" fill="white"/>
<path d="M155.478 76.1782C155.606 75.7967 155.733 75.4151 155.733 75.3304C155.733 75.2456 156.114 75.1608 156.581 75.1608C157.64 75.1608 157.683 75.8391 156.623 76.4325C155.478 77.026 155.182 76.9836 155.478 76.1782Z" fill="white"/>
<path d="M158.827 75.6695C157.852 75.5423 157.556 74.9912 158.191 74.6097C158.361 74.4825 159.124 74.2706 159.887 74.101C161.032 73.8466 161.244 73.9314 161.244 74.6521C161.244 75.5423 160.353 75.9238 158.827 75.6695Z" fill="white"/>
<path d="M162.092 74.2282C162.092 73.7195 162.134 73.4227 162.219 73.5075C162.261 73.5923 162.6 74.0162 162.897 74.4401C163.406 75.0336 163.363 75.1608 162.77 75.1608C162.346 75.1608 162.092 74.8217 162.092 74.2282Z" fill="white"/>
<path d="M156.157 73.9314C156.157 73.6771 156.369 73.3803 156.581 73.2532C156.835 73.126 157.005 73.2955 157.005 73.6347C157.005 74.0162 156.835 74.313 156.581 74.313C156.369 74.313 156.157 74.1434 156.157 73.9314Z" fill="white"/>
<path d="M157.725 73.2956C157.386 72.4477 160.396 71.5151 160.905 72.3205C161.286 72.9988 160.905 73.2956 159.294 73.6347C158.319 73.8466 157.895 73.7619 157.725 73.2956Z" fill="white"/>
<path d="M161.71 71.939C161.71 71.4727 161.837 71.3455 161.964 71.6847C162.092 71.9814 162.049 72.3629 161.922 72.4901C161.795 72.6597 161.668 72.4053 161.71 71.939Z" fill="white"/>
<path d="M158.107 71.2607C158.615 70.3281 160.099 68.802 160.481 68.802C160.905 68.802 160.947 70.7944 160.523 71.0488C160.311 71.1336 159.633 71.3455 158.997 71.5151C158.064 71.7271 157.852 71.6847 158.107 71.2607Z" fill="white"/>
<path d="M161.498 70.2857C161.032 69.014 161.244 68.4629 162.261 68.2933C163.321 68.0814 163.321 68.0814 162.643 69.3955C161.795 71.0912 161.837 71.0912 161.498 70.2857Z" fill="white"/>
<path d="M161.244 67.7422C161.244 67.6575 162.092 67.064 163.151 66.4705C164.423 65.7074 165.313 65.4531 165.949 65.6227C166.712 65.877 166.5 66.0466 164.635 66.9368C162.558 67.8694 161.244 68.2085 161.244 67.7422Z" fill="white"/>
<path d="M184.771 30.1831C183.627 28.5299 181.21 25.8592 179.472 24.2483C177.734 22.6374 176.589 21.3233 176.929 21.3233C177.861 21.3233 184.983 23.2733 186.764 24.0363C188.247 24.6722 188.29 24.757 187.908 26.0711C187.696 26.8342 187.527 28.7418 187.527 30.3103C187.527 31.9212 187.399 33.193 187.23 33.193C187.018 33.193 185.958 31.8364 184.771 30.1831Z" fill="white"/>
<path d="M98.5039 158.588C96.7658 157.698 96.3843 157.189 94.1799 152.822C91.0005 146.633 90.9158 145.192 93.9256 148.71C95.1125 150.109 97.868 152.992 100.03 155.112C103.718 158.673 103.888 158.927 102.658 158.757C101.768 158.63 101.429 158.715 101.641 159.054C102.15 159.817 100.539 159.605 98.5039 158.588Z" fill="white"/>
<path fill-rule="evenodd" clip-rule="evenodd" d="M169.548 235.822C169.196 234.986 169.588 234.024 170.424 233.672L171.337 233.284C180.217 229.485 185.314 227.203 188.777 223.578C192.24 219.954 192.654 214.631 193.305 211.392C193.484 210.503 195.496 212.064 196.385 212.243C197.274 212.421 197.85 213.287 197.672 214.176C196.889 218.07 194.783 221.783 191.391 225.307C188.011 228.82 181.467 232.585 171.698 236.698C170.862 237.05 169.899 236.658 169.548 235.822Z" fill="#00160A"/>
<path fill-rule="evenodd" clip-rule="evenodd" d="M209.704 66.6787C210.483 66.2149 211.49 66.4705 211.954 67.2496C216.598 75.0504 219.085 83.9677 219.085 93.2453C219.085 121.352 196.3 144.138 168.193 144.138C160.724 144.138 153.48 142.527 146.847 139.458C146.024 139.077 142.915 136.045 146.046 137.278C149.177 138.511 161.29 141.279 168.28 141.279C194.574 141.279 213.175 119.539 213.175 93.2453C213.175 84.563 209.703 76.8565 209.133 68.9291C209.066 68.0102 208.924 67.1425 209.704 66.6787Z" fill="#00160A"/>
<path fill-rule="evenodd" clip-rule="evenodd" d="M47.1143 190.929C47.6946 190.233 48.7298 188.825 49.4264 189.405C52.2844 191.786 55.3342 194.544 58.5965 195.076C61.9913 195.63 66.0186 195.63 70.6733 195.067C71.5734 194.958 72.3914 195.599 72.5004 196.499C72.6093 197.399 71.968 198.217 71.0679 198.326C66.1249 198.925 61.7932 198.925 58.0677 198.317C54.2098 197.687 50.622 195.988 47.3251 193.241C46.6284 192.661 46.534 191.626 47.1143 190.929Z" fill="#00160A"/>
<path d="M81.9711 133.492C79.8515 131.796 75.3156 126.794 71.8819 122.385C70.1014 120.054 68.109 115.306 66.922 110.516C66.3709 108.354 65.8198 106.404 65.6927 106.149C65.5231 105.937 64.8448 102.927 64.1666 99.4513C63.1492 94.5338 63.3644 92.9496 62.4709 87.0676C62.0926 84.5772 61.7502 82.5956 61.7502 82.5956L62.8524 81.1804C63.4883 80.3326 64.2927 78.9296 64.5905 78.1282C65.947 74.4781 75.9091 63.0367 76.2058 63.3335C76.2906 63.4183 75.9515 65.4107 75.358 67.7422C74.8069 70.0738 74.1286 73.5923 73.8319 75.5847C73.408 78.8913 73.2384 79.2728 71.9243 80.375C70.271 81.7739 67.134 86.2674 67.134 87.2001C67.134 88.4718 69.0416 87.624 71.034 85.5468L73.0688 83.4272V85.7587C73.0688 87.2848 72.7721 88.6838 72.221 89.7859C71.1612 91.8631 71.1612 94.0675 72.1786 95.7632C72.6873 96.611 73.1536 98.6458 73.4504 101.062C74.7645 111.999 77.5624 121.495 82.3526 131.033C83.5396 133.407 84.4722 135.357 84.4298 135.357C84.345 135.357 83.2429 134.509 81.9711 133.492Z" fill="white"/>
<path fill-rule="evenodd" clip-rule="evenodd" d="M258.363 159.648L261.415 161.004C262.048 161.296 269.03 164.651 277.417 168.681C290.938 175.178 308.111 183.429 308.216 183.429C308.385 183.429 309.181 181.59 309.36 179.445C309.784 174.824 311.353 168.55 313.176 164.183C314.024 162.233 314.702 159.796 314.702 159.584C314.702 159.488 314.013 159.21 312.884 158.755C311.541 158.213 309.576 157.42 307.41 156.383C296.728 151.254 275.829 140.783 273.243 139.215C270.699 137.731 270.19 137.604 270.19 138.579C270.19 139.851 267.605 145.743 265.612 148.922C264.552 150.661 262.475 153.798 260.991 155.875L258.363 159.648ZM307.495 175.799C308.711 176.503 306.605 177.537 306.096 177.706C303.101 177.961 299.575 177.397 296.685 175.714C295.175 174.643 283.279 168.034 275.389 163.65C271.781 161.646 269.011 160.107 268.452 159.775C266.672 158.715 264.976 157.57 264.68 157.231C263.789 156.087 264.637 155.578 267.138 155.79C268.642 155.917 304.87 174.277 307.495 175.799Z" fill="white"/>
<path d="M227.926 163.463C226.824 163.081 225.637 162.233 224.874 161.258L223.602 159.69L228.095 155.239C235.005 148.456 240.092 141.043 244.671 132.777C246.197 130.022 250.733 118.909 251.284 117.68C252.132 115.899 252.767 115.221 254.59 114.204C256.752 112.932 259.211 112.508 260.271 113.229C262.306 114.585 262.306 118.867 260.271 126.243C258.024 134.34 255.014 140.147 248.783 148.499C247.808 149.77 245.985 152.271 244.671 154.009C241.152 158.673 238.863 160.919 235.768 162.657C232.716 164.353 230.936 164.565 227.926 163.463Z" fill="white"/>
<path d="M243.908 162.488L243.017 161.598C243.017 161.598 257.793 142.825 260.44 135.908C262.461 130.63 263.65 129.133 265.254 129.133C266.151 129.133 266.884 129.337 267.223 129.846C267.817 130.736 268.388 131.839 267.625 135.611C266.354 141.716 264.404 145.743 258.554 154.433C257.197 156.426 255.459 158.63 254.696 159.393C252.915 161.046 248.91 162.742 246.578 163.124C245.095 163.336 244.671 163.251 243.908 162.488Z" fill="white"/>
<path fill-rule="evenodd" clip-rule="evenodd" d="M268.726 142.858C269.581 140.902 270.19 139.196 270.19 138.579C270.19 137.604 270.699 137.731 273.243 139.215C275.829 140.783 296.728 151.254 307.41 156.383C311.395 158.291 314.702 159.372 314.702 159.584C314.702 159.796 267.82 144.932 268.726 142.858Z" fill="#E7EAEE"/>
<path fill-rule="evenodd" clip-rule="evenodd" d="M123.685 145.277C118.301 141.758 110.162 133.492 106.219 127.599C100.581 119.121 96.8506 110.049 95.0278 100.299C93.7136 93.2197 93.756 82.325 95.0702 76.0086C96.4267 69.5651 98.1647 64.6476 101.259 58.416C104.863 51.2095 108.678 45.9105 114.401 40.1876C120.013 34.5755 95.0702 57.7837 101.259 99.3082C106.219 134.105 127.535 147.814 123.685 145.277Z" fill="#E7EAEE"/>
</svg>
