<svg width="106" height="106" viewBox="0 0 106 106" fill="none" xmlns="http://www.w3.org/2000/svg">
<rect x="5.44684" y="5.41754" width="95.1056" height="95.2" rx="47.5528" fill="#FF0000"/>
<rect x="5.44684" y="5.41754" width="95.1056" height="95.2" rx="47.5528" stroke="#F4E9EE" stroke-width="9.12"/>
<path fill-rule="evenodd" clip-rule="evenodd" d="M37.272 26.0458C47.7252 24.8884 58.2742 24.8884 68.7274 26.0458C74.5151 26.6945 79.1844 31.2523 79.8636 37.0602C81.1023 47.6625 81.1023 58.373 79.8636 68.9752C79.1844 74.7832 74.5151 79.341 68.7274 79.9897C58.2742 81.1471 47.7252 81.1471 37.272 79.9897C31.4843 79.341 26.815 74.7832 26.1359 68.9752C24.8974 58.3741 24.8974 47.6648 26.1359 37.0636C26.4794 34.242 27.7657 31.619 29.7863 29.6199C31.8069 27.6207 34.4435 26.3625 37.2686 26.0491M41.073 41.091C41.5481 40.6165 42.1922 40.3499 42.8637 40.3499C43.5352 40.3499 44.1793 40.6165 44.6544 41.091L52.9997 49.4363L61.345 41.091C61.577 40.842 61.8568 40.6424 62.1676 40.5039C62.4785 40.3654 62.814 40.2909 63.1542 40.2849C63.4945 40.2789 63.8325 40.3415 64.148 40.4689C64.4635 40.5964 64.7501 40.7861 64.9908 41.0267C65.2314 41.2673 65.4211 41.5539 65.5485 41.8695C65.676 42.185 65.7386 42.523 65.7326 42.8632C65.7266 43.2034 65.6521 43.539 65.5136 43.8498C65.3751 44.1607 65.1754 44.4404 64.9264 44.6724L56.5811 53.0177L64.9264 61.3631C65.374 61.8434 65.6177 62.4788 65.6061 63.1353C65.5946 63.7917 65.3286 64.4181 64.8643 64.8824C64.4001 65.3466 63.7737 65.6126 63.1172 65.6242C62.4608 65.6357 61.8254 65.3921 61.345 64.9445L52.9997 56.5991L44.6544 64.9445C44.4224 65.1934 44.1426 65.3931 43.8318 65.5316C43.521 65.6701 43.1854 65.7446 42.8452 65.7506C42.5049 65.7566 42.167 65.694 41.8514 65.5665C41.5359 65.4391 41.2493 65.2494 41.0087 65.0088C40.768 64.7682 40.5783 64.4815 40.4509 64.166C40.3234 63.8505 40.2609 63.5125 40.2669 63.1723C40.2729 62.832 40.3473 62.4965 40.4858 62.1856C40.6243 61.8748 40.824 61.595 41.073 61.3631L49.4183 53.0177L41.073 44.6724C40.5984 44.1973 40.3319 43.5532 40.3319 42.8817C40.3319 42.2102 40.5984 41.5661 41.073 41.091Z" fill="white"/>
</svg>
