<svg xmlns="http://www.w3.org/2000/svg" width="2500" height="2500" fill="none" viewBox="0 0 2500 2500" id="cashier">
  <path fill="#2F444C" d="M878.906 1326.11H97.6562V1833.93H878.906V1326.11Z"></path>
  <path fill="#455A64" d="M566.406 1843.69H410.156V2078.07H566.406V1843.69zM1054.69 2419.86V1631.04C1054.69 1339.52 1269.17 1102.63 1542.97 1091.74H1933.59C2206.71 1102.6 2421.88 1339.51 2421.88 1631.04V2419.86H1054.69z"></path>
  <path fill="#E8E5D1" d="M1581.04 1134.34H1895.53L1738.28 1512.52L1581.04 1134.34Z"></path>
  <path fill="#E53935" d="M1745.95 1155.89C1740.89 1154.87 1735.67 1154.87 1730.61 1155.89L1542.97 1193.42V998.106L1730.61 1035.63C1735.67 1036.65 1740.89 1036.65 1745.95 1035.63L1933.59 998.106V1193.42L1745.95 1155.89Z"></path>
  <path fill="#C62828" d="M1542.97 998.106L1699.22 1029.36V1162.17L1542.97 1193.42V998.106Z"></path>
  <path fill="#FFD54F" d="M1191.41 1755.8H996.094V1951.11H1191.41V1755.8Z"></path>
  <path fill="#78909C" d="M1230.47 1951.11H957.031V2107.36H1230.47V1951.11Z"></path>
  <path fill="#B0BEC5" d="M1484.38 2107.36H78.125V2419.86H1484.38V2107.36Z"></path>
  <path fill="#F0BEB4" d="M1738.28 900.449C1651.92 900.376 1567.79 873.021 1497.9 822.291C1428.01 771.562 1375.93 700.049 1349.1 617.962C1322.27 535.876 1322.06 447.411 1348.5 365.196C1374.93 282.982 1426.67 211.22 1496.31 160.154C1565.96 109.089 1649.95 81.331 1736.31 80.8423C1822.67 80.3536 1906.98 107.159 1977.2 157.433C2047.41 207.707 2099.96 278.879 2127.32 360.789C2154.69 442.699 2155.47 531.161 2129.57 613.546C2103.71 696.985 2051.72 769.907 1981.27 821.562C1910.82 873.217 1825.64 900.871 1738.28 900.449Z"></path>
  <path fill="#8D6E63" d="M2051.35 550.442C1898.6 549.082 1751.31 493.461 1635.78 393.516C1628.68 387.354 1619.59 383.962 1610.18 383.96C1608.45 383.961 1606.72 384.075 1605 384.303C1599.51 385.038 1594.23 386.933 1589.53 389.861C1584.83 392.79 1580.8 396.685 1577.72 401.288C1523.65 482.036 1434.33 495.215 1347.96 507.966L1328.56 507.986C1328.28 501.966 1328.12 496.082 1328.12 490.293C1328.12 381.513 1371.34 277.188 1448.26 200.269C1525.18 123.349 1629.5 80.1367 1738.28 80.1367C1847.06 80.1367 1951.39 123.349 2028.31 200.269C2105.22 277.188 2148.44 381.513 2148.44 490.293C2148.41 507.48 2147.26 524.648 2145 541.687C2114.15 547.651 2082.78 550.584 2051.35 550.442Z"></path>
  <path fill="#000" d="M644.531 1638.61H332.031C321.671 1638.61 311.736 1642.73 304.41 1650.05C297.084 1657.38 292.969 1667.32 292.969 1677.68C292.969 1688.04 297.084 1697.97 304.41 1705.3C311.736 1712.62 321.671 1716.74 332.031 1716.74H644.531C654.891 1716.74 664.827 1712.62 672.153 1705.3C679.478 1697.97 683.594 1688.04 683.594 1677.68C683.594 1667.32 679.478 1657.38 672.153 1650.05C664.827 1642.73 654.891 1638.61 644.531 1638.61Z"></path>
  <path fill="#000" d="M1972.66 1055.69V998.106C1972.66 992.326 1971.37 986.618 1968.9 981.394 1966.43 976.17 1962.83 971.56 1958.36 967.897 1953.88 964.233 1948.66 961.607 1943.05 960.208 1937.44 958.809 1931.59 958.671 1925.93 959.806L1738.28 997.336 1550.64 959.807C1544.97 958.672 1539.12 958.809 1533.51 960.208 1527.91 961.607 1522.68 964.233 1518.21 967.897 1513.74 971.561 1510.14 976.171 1507.66 981.395 1505.19 986.618 1503.91 992.326 1503.91 998.106V1055.69C1227.25 1086.42 1015.62 1331.78 1015.62 1630.99V1638.61C1015.62 1648.97 1019.74 1658.91 1027.07 1666.23 1034.39 1673.56 1044.33 1677.68 1054.69 1677.68 1065.05 1677.68 1074.98 1673.56 1082.31 1666.23 1089.63 1658.91 1093.75 1648.97 1093.75 1638.61V1630.99C1093.75 1375.17 1270.88 1164.88 1503.91 1134.34V1193.42C1503.9 1202.71 1507.2 1211.69 1513.24 1218.76 1519.27 1225.82 1527.62 1230.5 1536.8 1231.95L1699.22 1621.95V2380.8H1523.44V2107.36C1523.44 2097 1519.32 2087.07 1512 2079.74 1504.67 2072.42 1494.73 2068.3 1484.38 2068.3H1269.53V1951.11C1269.53 1940.75 1265.42 1930.82 1258.09 1923.49 1250.76 1916.17 1240.83 1912.05 1230.47 1912.05V1755.8C1230.47 1745.44 1226.35 1735.51 1219.03 1728.18 1211.7 1720.85 1201.77 1716.74 1191.41 1716.74H996.094C985.734 1716.74 975.798 1720.85 968.473 1728.18 961.147 1735.51 957.032 1745.44 957.031 1755.8V1912.05C946.671 1912.05 936.736 1916.17 929.41 1923.49 922.085 1930.82 917.969 1940.75 917.969 1951.11V2068.3H605.469V1872.99H878.906C889.266 1872.99 899.202 1868.87 906.527 1861.55 913.853 1854.22 917.968 1844.29 917.969 1833.93V1326.11C917.968 1315.75 913.853 1305.82 906.527 1298.49 899.202 1291.17 889.266 1287.05 878.906 1287.05H97.6562C87.2964 1287.05 77.361 1291.17 70.0355 1298.49 62.7099 1305.82 58.5943 1315.75 58.5938 1326.11V1833.93C58.5943 1844.29 62.7099 1854.22 70.0355 1861.55 77.361 1868.87 87.2964 1872.99 97.6562 1872.99H371.094V2068.3H78.125C67.0972 2073.85 57.6994 2082.17 50.8519 2092.44 44.0044 2102.71 39.9419 2114.58 39.0625 2126.89V2419.86C39.063 2430.22 43.1787 2440.16 50.5042 2447.48 57.8297 2454.81 67.7651 2458.93 78.125 2458.93H2421.88C2432.23 2458.93 2442.17 2454.81 2449.5 2447.48 2456.82 2440.16 2460.94 2430.22 2460.94 2419.86V1630.99C2460.94 1331.78 2249.31 1086.42 1972.66 1055.69zM1738.28 1512.52L1615.91 1218.66 1738.28 1194.19 1860.65 1218.66 1738.28 1512.52zM1894.53 1145.77L1777.34 1122.33V1069.19L1894.53 1045.75V1145.77zM1582.03 1045.75L1699.22 1069.19V1122.33L1582.03 1145.77V1045.75zM117.188 2146.43H1445.31V2224.55H117.188V2146.43zM1035.16 1794.86H1152.34V1912.05H1035.16V1794.86zM996.094 1990.18H1191.41V2068.3H996.094V1990.18zM136.719 1365.18H839.844V1794.86H136.719V1365.18zM449.219 1872.99H527.344V2068.3H449.219V1872.99zM117.188 2380.8V2302.68H1445.31V2380.8H117.188zM2382.81 2380.8H2187.5V1794.86C2187.5 1784.5 2183.38 1774.57 2176.06 1767.24 2168.73 1759.92 2158.8 1755.8 2148.44 1755.8 2138.08 1755.8 2128.14 1759.92 2120.82 1767.24 2113.49 1774.57 2109.38 1784.5 2109.38 1794.86V2380.8H1777.34V1621.95L1939.77 1231.95C1948.94 1230.5 1957.3 1225.83 1963.33 1218.76 1969.36 1211.69 1972.67 1202.71 1972.66 1193.42V1134.34C2205.68 1164.88 2382.81 1375.17 2382.81 1630.99V2380.8zM1738.28 939.512C1832.81 939.523 1924.93 909.719 2001.54 854.341 2078.15 798.963 2135.33 720.833 2164.96 631.07 2194.6 541.307 2195.16 444.485 2166.57 354.383 2137.99 264.281 2081.71 185.491 2005.76 129.225 1929.8 72.959 1838.03 42.0847 1743.51 40.9958 1648.99 39.907 1556.53 68.6591 1479.3 123.16 1402.07 177.661 1343.99 255.134 1313.34 344.554 1282.69 433.973 1281.02 530.783 1308.57 621.204 1336.36 713.465 1393.2 794.287 1470.62 851.641 1548.05 908.995 1641.93 939.814 1738.28 939.512zM1738.28 861.387C1658.64 861.749 1581.03 836.324 1517.04 788.914 1453.05 741.503 1406.13 674.655 1383.29 598.363 1377.84 580.585 1373.76 562.414 1371.1 544.011 1457.96 530.866 1551.46 511.941 1611.08 421.667 1758.14 543.9 1917.46 594.034 2042.14 594.025 2059.93 594.042 2077.7 592.931 2095.35 590.699 2094.31 594.401 2093.46 598.156 2092.3 601.826 2068.8 677.255 2021.73 743.165 1958.02 789.88 1894.3 836.595 1817.29 861.657 1738.28 861.387zM1738.28 119.199C1836.67 119.311 1930.99 158.444 2000.56 228.013 2070.13 297.583 2109.26 391.907 2109.37 490.293 2109.37 496.59 2108.98 502.835 2108.67 509.092 1989.62 535.286 1797.98 491.107 1626.59 331.249 1622 326.966 1616.44 323.852 1610.4 322.172 1604.35 320.492 1597.98 320.294 1591.84 321.595 1585.7 322.897 1579.97 325.66 1575.12 329.649 1570.28 333.639 1566.46 338.738 1564.01 344.514 1526.02 433.75 1453.72 452.073 1368.45 465.36 1374.81 371.558 1416.52 283.662 1485.16 219.414 1553.8 155.167 1644.26 119.352 1738.28 119.199z"></path>
</svg>
