<svg width="106" height="106" viewBox="0 0 106 106" fill="none" xmlns="http://www.w3.org/2000/svg">
<rect x="5.45562" y="5.41754" width="95.089" height="95.2" rx="47.5445" fill="#FF0000"/>
<rect x="5.45562" y="5.41754" width="95.089" height="95.2" rx="47.5445" stroke="#F4E9EE" stroke-width="9.12"/>
<rect x="25.2156" y="25.1777" width="55.569" height="55.68" rx="27.7845" fill="white"/>
<path fill-rule="evenodd" clip-rule="evenodd" d="M65.2705 51.8007C65.6005 55.0625 64.6214 58.3218 62.5484 60.8616C60.4754 63.4014 57.4783 65.0137 54.2166 65.3438C50.9548 65.6739 47.6955 64.6948 45.1557 62.6218C42.6158 60.5487 41.0035 57.5517 40.6734 54.2899C40.6411 53.9842 40.7315 53.6782 40.9247 53.4391C41.118 53.2001 41.3983 53.0476 41.704 53.0152C42.0098 52.9828 42.3158 53.0732 42.5549 53.2665C42.7939 53.4598 42.9464 53.7401 42.9788 54.0458C43.1572 55.7355 43.7615 57.3522 44.7349 58.7448C45.7083 60.1374 47.0191 61.2603 48.5446 62.0084C50.0701 62.7564 51.7604 63.1053 53.4575 63.0222C55.1545 62.9392 56.8027 62.427 58.2479 61.5335C59.6931 60.6401 60.888 59.3946 61.7208 57.9137C62.5536 56.4327 62.9971 54.7647 63.0097 53.0656C63.0224 51.3666 62.6038 49.6922 61.7931 48.199C60.9825 46.7058 59.8062 45.4426 58.3745 44.5278V47.1962C58.3745 47.5036 58.2524 47.7983 58.0351 48.0157C57.8178 48.233 57.523 48.3551 57.2157 48.3551C56.9083 48.3551 56.6136 48.233 56.3962 48.0157C56.1789 47.7983 56.0568 47.5036 56.0568 47.1962V40.6294H62.6236C62.931 40.6294 63.2257 40.7515 63.4431 40.9688C63.6604 41.1861 63.7825 41.4809 63.7825 41.7882C63.7825 42.0956 63.6604 42.3904 63.4431 42.6077C63.2257 42.825 62.931 42.9471 62.6236 42.9471H60.173C61.6046 43.9743 62.8001 45.2957 63.6792 46.8227C64.5583 48.3496 65.1009 50.0469 65.2705 51.8007ZM51.4214 43.7197C51.8312 43.7197 52.2242 43.5569 52.514 43.2671C52.8037 42.9773 52.9665 42.5843 52.9665 42.1745C52.9665 41.7647 52.8037 41.3717 52.514 41.082C52.2242 40.7922 51.8312 40.6294 51.4214 40.6294C51.0116 40.6294 50.6186 40.7922 50.3288 41.082C50.0391 41.3717 49.8763 41.7647 49.8763 42.1745C49.8763 42.5843 50.0391 42.9773 50.3288 43.2671C50.6186 43.5569 51.0116 43.7197 51.4214 43.7197ZM47.9448 44.1059C47.9448 44.5157 47.7821 44.9088 47.4923 45.1985C47.2025 45.4883 46.8095 45.6511 46.3997 45.6511C45.9899 45.6511 45.5969 45.4883 45.3071 45.1985C45.0174 44.9088 44.8546 44.5157 44.8546 44.1059C44.8546 43.6962 45.0174 43.3031 45.3071 43.0134C45.5969 42.7236 45.9899 42.5608 46.3997 42.5608C46.8095 42.5608 47.2025 42.7236 47.4923 43.0134C47.7821 43.3031 47.9448 43.6962 47.9448 44.1059ZM42.9232 49.9002C43.333 49.9002 43.726 49.7374 44.0157 49.4476C44.3055 49.1579 44.4683 48.7649 44.4683 48.3551C44.4683 47.9453 44.3055 47.5523 44.0157 47.2625C43.726 46.9727 43.333 46.8099 42.9232 46.8099C42.5134 46.8099 42.1204 46.9727 41.8306 47.2625C41.5408 47.5523 41.378 47.9453 41.378 48.3551C41.378 48.7649 41.5408 49.1579 41.8306 49.4476C42.1204 49.7374 42.5134 49.9002 42.9232 49.9002Z" fill="#FF0000"/>
</svg>
