<svg width="17" height="12" viewBox="0 0 17 12" fill="none" xmlns="http://www.w3.org/2000/svg">
<path d="M2.30889 0.784515C1.30148 0.784515 0.482422 1.60357 0.482422 2.61098V9.91683C0.482422 10.9242 1.30148 11.7433 2.30889 11.7433H15.0941C16.1015 11.7433 16.9206 10.9242 16.9206 9.91683V2.61098C16.9206 1.60357 16.1015 0.784515 15.0941 0.784515H2.30889ZM8.24489 4.43744H14.6375C14.8887 4.43744 15.0941 4.64292 15.0941 4.89406C15.0941 5.1452 14.8887 5.35067 14.6375 5.35067H8.24489C7.99375 5.35067 7.78828 5.1452 7.78828 4.89406C7.78828 4.64292 7.99375 4.43744 8.24489 4.43744ZM7.78828 7.63375C7.78828 7.38262 7.99375 7.17714 8.24489 7.17714H14.6375C14.8887 7.17714 15.0941 7.38262 15.0941 7.63375C15.0941 7.88489 14.8887 8.09037 14.6375 8.09037H8.24489C7.99375 8.09037 7.78828 7.88489 7.78828 7.63375ZM5.16273 3.2959V3.69259C5.37677 3.72683 5.5794 3.77535 5.7649 3.82672C6.07026 3.90663 6.25005 4.22055 6.17014 4.52591C6.09024 4.83127 5.77631 5.01107 5.47095 4.93116C5.15703 4.8484 4.85452 4.78847 4.58055 4.78276C4.3551 4.7799 4.12393 4.83413 3.96697 4.92545C3.82999 5.00536 3.79003 5.08527 3.79003 5.19086C3.79003 5.24223 3.79289 5.29074 3.94129 5.38207C4.12108 5.49051 4.38363 5.57328 4.74893 5.68172L4.7689 5.68743C5.08853 5.78446 5.49949 5.90718 5.82768 6.11551C6.19583 6.34667 6.52117 6.72338 6.52973 7.30271C6.53829 7.89916 6.23007 8.33295 5.82197 8.58694C5.6165 8.71536 5.38819 8.79527 5.15988 8.84379V9.23762C5.15988 9.55154 4.90303 9.80839 4.58911 9.80839C4.27519 9.80839 4.01834 9.55154 4.01834 9.23762V8.82096C3.7244 8.75817 3.44757 8.66399 3.21356 8.58123C3.15363 8.56126 3.09655 8.54128 3.03947 8.5213C2.73982 8.42142 2.58 8.09893 2.67989 7.79928C2.77977 7.49962 3.10226 7.33981 3.40191 7.43969C3.47326 7.46252 3.54175 7.48821 3.60739 7.50818C3.99551 7.63946 4.29231 7.73935 4.60909 7.75076C4.85452 7.75932 5.07997 7.7051 5.21981 7.61663C5.33682 7.54528 5.39104 7.45967 5.38819 7.31698C5.38819 7.23422 5.36536 7.17428 5.21981 7.08296C5.04002 6.96881 4.78032 6.88605 4.42073 6.7776L4.37222 6.76333C4.06115 6.66915 3.67017 6.55215 3.35625 6.36379C2.99381 6.14404 2.6542 5.77875 2.65135 5.20227C2.64849 4.60011 2.9881 4.18345 3.38764 3.94943C3.58456 3.83243 3.80145 3.75537 4.0212 3.70686V3.30732C4.0212 2.99339 4.27804 2.73655 4.59197 2.73655C4.90589 2.73655 5.16273 2.99339 5.16273 3.30732V3.2959Z" fill="#990000"/>
</svg>
