<svg xmlns="http://www.w3.org/2000/svg" viewBox="0 0 2010 2010" id="customer">
  <path fill="#ec508e" d="M695.77 1035.84c-65.47 0-127.02-25.5-173.32-71.79s-71.79-107.85-71.79-173.32 25.5-127.02 71.79-173.32 107.85-71.79 173.32-71.79 127.02 25.5 173.32 71.79 71.79 107.85 71.79 173.32-25.5 127.02-71.79 173.32c-46.29 46.3-107.85 71.79-173.32 71.79zm0-390.22c-80.01 0-145.11 65.1-145.11 145.11s65.1 145.11 145.11 145.11 145.11-65.1 145.11-145.11-65.1-145.11-145.11-145.11zM861.28 1564.51H366.09c-27.61 0-50-22.39-50-50v-90.29c0-45.01 11.25-88.52 33.45-129.33 20.85-38.34 50.42-72.55 87.88-101.68 74.52-57.95 172.9-89.87 277.01-89.87 95.15 0 187.18 27.27 259.11 76.78 22.75 15.66 28.5 46.79 12.84 69.54-15.66 22.75-46.79 28.5-69.54 12.84-55.42-38.14-127.31-59.15-202.42-59.15-41.71 0-82.07 6.32-119.97 18.78-36.02 11.85-68.2 28.68-95.65 50.03-53.34 41.48-82.72 95.49-82.72 152.07v40.29h445.19c27.61 0 50 22.39 50 50s-22.39 50-50 50z"></path>
  <path fill="#3edad7" d="M1263.95 988.21c-72.48 0-140.63-28.23-191.88-79.48-51.25-51.25-79.48-119.4-79.48-191.88s28.23-140.63 79.48-191.88 119.4-79.48 191.88-79.48 140.63 28.23 191.88 79.48 79.48 119.4 79.48 191.88-28.23 140.63-79.48 191.88-119.4 79.48-191.88 79.48zm0-442.73c-94.49 0-171.36 76.87-171.36 171.36s76.87 171.36 171.36 171.36 171.36-76.87 171.36-171.36-76.87-171.36-171.36-171.36zM1643.91 1563.47H861.28c-27.61 0-50-22.39-50-50v-101.43c0-49.52 12.39-97.41 36.83-142.34 23.02-42.32 55.68-80.11 97.09-112.3 82.64-64.26 191.81-99.66 307.39-99.66s224.75 35.39 307.39 99.66c41.41 32.2 74.07 69.98 97.09 112.3 24.44 44.93 36.83 92.82 36.83 142.34v101.43c0 27.61-22.39 50-50 50zm-732.62-100h682.62v-51.43c0-65.51-33.85-127.91-95.31-175.7-31.4-24.42-68.18-43.66-109.31-57.19-43.19-14.21-89.18-21.41-136.69-21.41s-93.5 7.2-136.69 21.41c-41.14 13.53-77.91 32.77-109.31 57.19-61.46 47.79-95.31 110.19-95.31 175.7v51.43z"></path>
</svg>
