<svg width="15" height="10" viewBox="0 0 15 10" fill="none" xmlns="http://www.w3.org/2000/svg">
<path d="M1.625 0C0.728711 0 0 0.728711 0 1.625V8.125C0 9.02129 0.728711 9.75 1.625 9.75H13C13.8963 9.75 14.625 9.02129 14.625 8.125V1.625C14.625 0.728711 13.8963 0 13 0H1.625ZM6.90625 3.25H12.5938C12.8172 3.25 13 3.43281 13 3.65625C13 3.87969 12.8172 4.0625 12.5938 4.0625H6.90625C6.68281 4.0625 6.5 3.87969 6.5 3.65625C6.5 3.43281 6.68281 3.25 6.90625 3.25ZM6.5 6.09375C6.5 5.87031 6.68281 5.6875 6.90625 5.6875H12.5938C12.8172 5.6875 13 5.87031 13 6.09375C13 6.31719 12.8172 6.5 12.5938 6.5H6.90625C6.68281 6.5 6.5 6.31719 6.5 6.09375ZM4.16406 2.23438V2.5873C4.35449 2.61777 4.53477 2.66094 4.6998 2.70664C4.97148 2.77773 5.13145 3.05703 5.06035 3.32871C4.98926 3.60039 4.70996 3.76035 4.43828 3.68926C4.15898 3.61563 3.88984 3.5623 3.64609 3.55723C3.44551 3.55469 3.23984 3.60293 3.1002 3.68418C2.97832 3.75527 2.94277 3.82637 2.94277 3.92031C2.94277 3.96602 2.94531 4.00918 3.07734 4.09043C3.2373 4.18691 3.4709 4.26055 3.7959 4.35703L3.81367 4.36211C4.09805 4.44844 4.46367 4.55762 4.75566 4.74297C5.0832 4.94863 5.37266 5.28379 5.38027 5.79922C5.38789 6.32988 5.11367 6.71582 4.75059 6.9418C4.56777 7.05605 4.36465 7.12715 4.16152 7.17031V7.5207C4.16152 7.8 3.93301 8.02852 3.65371 8.02852C3.37441 8.02852 3.1459 7.8 3.1459 7.5207V7.15C2.88438 7.09414 2.63809 7.01035 2.42988 6.93672C2.37656 6.91895 2.32578 6.90117 2.275 6.8834C2.0084 6.79453 1.86621 6.50762 1.95508 6.24102C2.04395 5.97441 2.33086 5.83223 2.59746 5.92109C2.66094 5.94141 2.72187 5.96426 2.78027 5.98203C3.12559 6.09883 3.38965 6.1877 3.67148 6.19785C3.88984 6.20547 4.09043 6.15723 4.21484 6.07852C4.31895 6.01504 4.36719 5.93887 4.36465 5.81191C4.36465 5.73828 4.34434 5.68496 4.21484 5.60371C4.05488 5.50215 3.82383 5.42852 3.50391 5.33203L3.46074 5.31934C3.18398 5.23555 2.83613 5.13145 2.55684 4.96387C2.23438 4.76836 1.93223 4.44336 1.92969 3.93047C1.92715 3.39473 2.2293 3.02402 2.58477 2.81582C2.75996 2.71172 2.95293 2.64316 3.14844 2.6V2.24453C3.14844 1.96523 3.37695 1.73672 3.65625 1.73672C3.93555 1.73672 4.16406 1.96523 4.16406 2.24453V2.23438Z" fill="#990000"/>
</svg>
