<svg width="24" height="23" viewBox="0 0 24 23" fill="none" xmlns="http://www.w3.org/2000/svg">
<path d="M19.7872 22.0226C18.6658 22.0226 17.7116 21.6291 16.9246 20.8421C16.1376 20.0551 15.744 19.1009 15.744 17.9795C15.744 16.8581 16.1376 15.9039 16.9246 15.1169C17.7116 14.3299 18.6658 13.9363 19.7872 13.9363C20.9086 13.9363 21.8628 14.3299 22.6498 15.1169C23.4369 15.9039 23.8304 16.8581 23.8304 17.9795C23.8304 19.1009 23.4369 20.0551 22.6498 20.8421C21.8628 21.6291 20.9086 22.0226 19.7872 22.0226ZM19.7872 20.0011C20.3488 20.0011 20.8261 19.8045 21.2192 19.4114C21.6123 19.0184 21.8088 18.541 21.8088 17.9795C21.8088 17.4179 21.6123 16.9406 21.2192 16.5475C20.8261 16.1544 20.3488 15.9579 19.7872 15.9579C19.2257 15.9579 18.7483 16.1544 18.3552 16.5475C17.9622 16.9406 17.7656 17.4179 17.7656 17.9795C17.7656 18.541 17.9622 19.0184 18.3552 19.4114C18.7483 19.8045 19.2257 20.0011 19.7872 20.0011ZM0.918945 18.9902V16.9687H12.5302V18.9902H0.918945ZM4.96212 9.06367C3.84076 9.06367 2.88655 8.67015 2.09949 7.88312C1.31246 7.09609 0.918945 6.14189 0.918945 5.02053C0.918945 3.89914 1.31246 2.94494 2.09949 2.1579C2.88655 1.37087 3.84076 0.977356 4.96212 0.977356C6.08348 0.977356 7.03769 1.37087 7.82474 2.1579C8.61177 2.94494 9.00529 3.89914 9.00529 5.02053C9.00529 6.14189 8.61177 7.09609 7.82474 7.88312C7.03769 8.67015 6.08348 9.06367 4.96212 9.06367ZM4.96212 7.04213C5.52367 7.04213 6.001 6.84559 6.39409 6.4525C6.78718 6.05941 6.98372 5.58208 6.98372 5.02053C6.98372 4.45897 6.78718 3.98165 6.39409 3.58856C6.001 3.19547 5.52367 2.99892 4.96212 2.99892C4.40056 2.99892 3.92324 3.19547 3.53015 3.58856C3.13706 3.98165 2.94051 4.45897 2.94051 5.02053C2.94051 5.58208 3.13706 6.05941 3.53015 6.4525C3.92324 6.84559 4.40056 7.04213 4.96212 7.04213ZM12.2191 6.0313V4.00976H23.8304V6.0313H12.2191Z" fill="#5B5B5B"/>
</svg>
