<svg width="20" height="21" viewBox="0 0 20 21" fill="none" xmlns="http://www.w3.org/2000/svg">
<path d="M10 19.3385C9.35 19.3385 8.71666 19.0052 8.28333 18.4219L7.44166 17.2969C7.26666 17.0635 7.03333 16.9302 6.78333 16.9135C6.53333 16.9052 6.28333 17.0135 6.08333 17.2219L5.60833 16.7969L6.06666 17.2219C4.86666 18.5052 3.94166 18.4052 3.5 18.2302C3.05 18.0552 2.29166 17.4802 2.29166 15.6302V6.24687C2.29166 2.54687 3.35833 1.42188 6.85 1.42188H13.15C16.6417 1.42188 17.7083 2.54687 17.7083 6.24687V15.6302C17.7083 17.4719 16.95 18.0469 16.5 18.2302C16.0583 18.4052 15.1417 18.5052 13.9333 17.2219C13.7333 17.0052 13.4833 16.8885 13.225 16.9135C12.975 16.9302 12.7333 17.0635 12.5583 17.2969L11.7167 18.4219C11.2833 19.0052 10.65 19.3385 10 19.3385ZM6.73333 15.6552C6.76666 15.6552 6.80833 15.6552 6.84166 15.6552C7.45833 15.6885 8.04166 16.0135 8.43333 16.5385L9.275 17.6635C9.68333 18.2052 10.3083 18.2052 10.7167 17.6635L11.5583 16.5385C11.9583 16.0135 12.5333 15.6885 13.1583 15.6552C13.775 15.6219 14.3917 15.8802 14.8417 16.3635C15.475 17.0385 15.8833 17.1219 16.0333 17.0635C16.2333 16.9802 16.45 16.4969 16.45 15.6302V6.24687C16.45 3.23854 15.925 2.67188 13.1417 2.67188H6.85C4.06666 2.67188 3.54166 3.23854 3.54166 6.24687V15.6302C3.54166 16.5052 3.75833 16.9885 3.95833 17.0635C4.1 17.1219 4.51666 17.0385 5.15 16.3635C5.6 15.9052 6.15833 15.6552 6.73333 15.6552Z" fill="white"/>
<path d="M13.5254 10.1719H8.94205C8.60039 10.1719 8.31705 9.88854 8.31705 9.54688C8.31705 9.20521 8.60039 8.92188 8.94205 8.92188H13.5254C13.8671 8.92188 14.1504 9.20521 14.1504 9.54688C14.1504 9.88854 13.8671 10.1719 13.5254 10.1719Z" fill="white"/>
<path d="M13.5254 6.83789H8.94205C8.60039 6.83789 8.31705 6.55456 8.31705 6.21289C8.31705 5.87122 8.60039 5.58789 8.94205 5.58789H13.5254C13.8671 5.58789 14.1504 5.87122 14.1504 6.21289C14.1504 6.55456 13.8671 6.83789 13.5254 6.83789Z" fill="white"/>
<path d="M6.48275 7.04655C6.02441 7.04655 5.64941 6.67155 5.64941 6.21322C5.64941 5.75488 6.02441 5.37988 6.48275 5.37988C6.94108 5.37988 7.31608 5.75488 7.31608 6.21322C7.31608 6.67155 6.94108 7.04655 6.48275 7.04655Z" fill="white"/>
<path d="M6.48275 10.3796C6.02441 10.3796 5.64941 10.0046 5.64941 9.54622C5.64941 9.08789 6.02441 8.71289 6.48275 8.71289C6.94108 8.71289 7.31608 9.08789 7.31608 9.54622C7.31608 10.0046 6.94108 10.3796 6.48275 10.3796Z" fill="white"/>
</svg>
