<svg width="328" height="458" viewBox="0 0 328 458" fill="none" xmlns="http://www.w3.org/2000/svg">
<path d="M0.962891 457.894L0.962891 0.845642L49.0112 29.2676H327.692V457.894H0.962891Z" fill="white"/>
<path d="M75.2356 99.749C75.2356 101.158 74.0827 102.553 71.9336 102.553C69.9411 102.553 68.5321 101.443 68.5036 99.8059H69.8842C69.9696 100.631 70.5531 101.457 71.9336 101.457C73.1861 101.457 73.9262 100.745 73.9262 99.8059C73.9262 97.1302 68.5606 98.8381 68.5606 95.1519C68.5606 93.5152 69.8842 92.4051 71.8482 92.4051C73.7411 92.4051 74.9794 93.444 75.1359 94.9527H73.7127C73.6273 94.2837 73.0011 93.5294 71.7913 93.5152C70.7239 93.4867 69.8842 94.0418 69.8842 95.1092C69.8842 97.671 75.2356 96.077 75.2356 99.749ZM77.725 96.0912C78.1947 95.2658 79.2194 94.5257 80.6426 94.5257C82.7348 94.5257 84.3431 96.0912 84.3431 98.525C84.3431 100.944 82.7348 102.581 80.6426 102.581C79.2194 102.581 78.2089 101.813 77.725 101.016V106.154H76.4298V94.6538H77.725V96.0912ZM83.0194 98.525C83.0194 96.689 81.8097 95.65 80.3722 95.65C78.9632 95.65 77.725 96.7317 77.725 98.5392C77.725 100.375 78.9632 101.443 80.3722 101.443C81.8097 101.443 83.0194 100.361 83.0194 98.525ZM84.8523 98.525C84.8523 96.0912 86.4606 94.5257 88.5527 94.5257C90.0044 94.5257 91.0007 95.2658 91.4561 96.077V94.6538H92.7655V102.453H91.4561V101.001C90.9865 101.841 89.976 102.581 88.5385 102.581C86.4606 102.581 84.8523 100.944 84.8523 98.525ZM91.4561 98.5392C91.4561 96.7317 90.2322 95.65 88.8089 95.65C87.3857 95.65 86.1759 96.689 86.1759 98.525C86.1759 100.361 87.3857 101.443 88.8089 101.443C90.2322 101.443 91.4561 100.375 91.4561 98.5392ZM103.986 102.453L103.189 100.247H98.8624L98.0654 102.453H96.6991L100.286 92.5901H101.78L105.352 102.453H103.986ZM102.819 99.1939L101.026 94.1841L99.2325 99.1939H102.819ZM107.499 96.0912C107.969 95.2658 108.993 94.5257 110.417 94.5257C112.509 94.5257 114.117 96.0912 114.117 98.525C114.117 100.944 112.509 102.581 110.417 102.581C108.993 102.581 107.983 101.813 107.499 101.016V106.154H106.204V94.6538H107.499V96.0912ZM112.793 98.525C112.793 96.689 111.584 95.65 110.146 95.65C108.737 95.65 107.499 96.7317 107.499 98.5392C107.499 100.375 108.737 101.443 110.146 101.443C111.584 101.443 112.793 100.361 112.793 98.525ZM116.405 96.0912C116.875 95.2658 117.9 94.5257 119.323 94.5257C121.415 94.5257 123.023 96.0912 123.023 98.525C123.023 100.944 121.415 102.581 119.323 102.581C117.9 102.581 116.889 101.813 116.405 101.016V106.154H115.11V94.6538H116.405V96.0912ZM121.7 98.525C121.7 96.689 120.49 95.65 119.053 95.65C117.644 95.65 116.405 96.7317 116.405 98.5392C116.405 100.375 117.644 101.443 119.053 101.443C120.49 101.443 121.7 100.361 121.7 98.525ZM131.417 98.5392C131.417 101.016 129.638 102.581 127.418 102.581C125.212 102.581 123.533 101.016 123.533 98.5392C123.533 96.077 125.269 94.5257 127.475 94.5257C129.695 94.5257 131.417 96.077 131.417 98.5392ZM124.856 98.5392C124.856 100.518 126.066 101.443 127.418 101.443C128.77 101.443 130.094 100.518 130.094 98.5392C130.094 96.5751 128.799 95.65 127.461 95.65C126.095 95.65 124.856 96.5751 124.856 98.5392ZM132.409 102.453V94.6538H133.704V102.453H132.409ZM133.078 93.3871C132.58 93.3871 132.195 93.0028 132.195 92.5047C132.195 92.0065 132.58 91.6223 133.078 91.6223C133.547 91.6223 133.932 92.0065 133.932 92.5047C133.932 93.0028 133.547 93.3871 133.078 93.3871ZM140.907 102.453V98.0411C140.907 96.4471 140.039 95.6358 138.729 95.6358C137.406 95.6358 136.495 96.4613 136.495 98.1407V102.453H135.2V94.6538H136.495V95.7639C137.007 94.9527 137.946 94.5115 139 94.5115C140.807 94.5115 142.188 95.6216 142.188 97.8561V102.453H140.907ZM143.876 100.318V95.7212H142.866V94.6538H143.876V92.6897H145.172V94.6538H147.207V95.7212H145.172V100.318C145.172 101.087 145.456 101.357 146.253 101.357H147.207V102.453H146.04C144.659 102.453 143.876 101.884 143.876 100.318ZM159.322 102.453V98.0411C159.322 96.4471 158.468 95.6358 157.187 95.6358C155.878 95.6358 154.981 96.4755 154.981 98.1549V102.453H153.7V98.0411C153.7 96.4471 152.846 95.6358 151.566 95.6358C150.256 95.6358 149.36 96.4755 149.36 98.1549V102.453H148.064V94.6538H149.36V95.7781C149.872 94.9527 150.797 94.5115 151.822 94.5115C153.103 94.5115 154.17 95.0807 154.682 96.2478C155.138 95.1234 156.248 94.5115 157.444 94.5115C159.223 94.5115 160.603 95.6216 160.603 97.8561V102.453H159.322ZM165.332 95.6216C164.065 95.6216 163.012 96.4613 162.87 97.9842H167.794C167.809 96.4613 166.67 95.6216 165.332 95.6216ZM168.976 100.048C168.577 101.471 167.325 102.581 165.389 102.581C163.169 102.581 161.532 101.016 161.532 98.5392C161.532 96.077 163.112 94.5257 165.389 94.5257C167.652 94.5257 169.132 96.1197 169.132 98.2546C169.132 98.5392 169.118 98.7669 169.089 99.0374H162.856C162.955 100.617 164.065 101.485 165.389 101.485C166.556 101.485 167.296 100.888 167.581 100.048H168.976ZM175.837 102.453V98.0411C175.837 96.4471 174.969 95.6358 173.66 95.6358C172.336 95.6358 171.425 96.4613 171.425 98.1407V102.453H170.13V94.6538H171.425V95.7639C171.938 94.9527 172.877 94.5115 173.93 94.5115C175.738 94.5115 177.118 95.6216 177.118 97.8561V102.453H175.837ZM178.807 100.318V95.7212H177.796V94.6538H178.807V92.6897H180.102V94.6538H182.137V95.7212H180.102V100.318C180.102 101.087 180.387 101.357 181.184 101.357H182.137V102.453H180.97C179.59 102.453 178.807 101.884 178.807 100.318ZM188.602 100.332C188.602 101.613 187.478 102.581 185.756 102.581C183.934 102.581 182.653 101.585 182.568 100.162H183.906C183.977 100.916 184.646 101.485 185.742 101.485C186.766 101.485 187.336 100.973 187.336 100.332C187.336 98.5961 182.724 99.6066 182.724 96.7032C182.724 95.5077 183.849 94.5257 185.585 94.5257C187.307 94.5257 188.446 95.4508 188.531 96.9737H187.236C187.179 96.1909 186.581 95.6216 185.542 95.6216C184.589 95.6216 184.02 96.077 184.02 96.7032C184.02 98.5534 188.546 97.5429 188.602 100.332ZM198.779 94.6538H197.484C197.513 93.8425 196.972 93.4013 196.275 93.4013C195.506 93.4013 195.008 93.8852 195.008 94.5399C195.008 95.1234 195.335 95.6073 196.033 96.3474L198.993 99.322C199.078 99.1939 199.164 99.0658 199.249 98.9235L200.217 97.301H201.612L200.445 99.322C200.26 99.6493 200.075 99.934 199.875 100.219L202.11 102.453H200.416L199.121 101.144C198.167 102.14 197.1 102.624 195.705 102.624C193.642 102.624 192.233 101.443 192.233 99.6066C192.233 98.2403 193.015 97.1444 194.567 96.5325C193.955 95.8208 193.713 95.2658 193.713 94.5399C193.713 93.2732 194.723 92.3339 196.332 92.3339C197.897 92.3339 198.851 93.3302 198.779 94.6538ZM195.705 101.514C196.73 101.514 197.527 101.115 198.267 100.29L195.349 97.3579C194.111 97.8276 193.528 98.5677 193.528 99.5639C193.528 100.674 194.41 101.514 195.705 101.514ZM205.082 93.5863V92.5331H211.8V93.5863H209.096V102.453H207.801V93.5863H205.082ZM213.978 98.2119V102.453H212.683V94.6538H213.978V95.9205C214.419 95.0523 215.259 94.5115 216.497 94.5115V95.8493H216.155C214.917 95.8493 213.978 96.4044 213.978 98.2119ZM220.597 95.6216C219.33 95.6216 218.277 96.4613 218.134 97.9842H223.059C223.073 96.4613 221.934 95.6216 220.597 95.6216ZM224.24 100.048C223.842 101.471 222.589 102.581 220.654 102.581C218.433 102.581 216.797 101.016 216.797 98.5392C216.797 96.077 218.376 94.5257 220.654 94.5257C222.917 94.5257 224.397 96.1197 224.397 98.2546C224.397 98.5392 224.382 98.7669 224.354 99.0374H218.12C218.22 100.617 219.33 101.485 220.654 101.485C221.821 101.485 222.561 100.888 222.845 100.048H224.24ZM224.911 98.525C224.911 96.0912 226.519 94.5257 228.611 94.5257C230.063 94.5257 231.059 95.2658 231.515 96.077V94.6538H232.824V102.453H231.515V101.001C231.045 101.841 230.034 102.581 228.597 102.581C226.519 102.581 224.911 100.944 224.911 98.525ZM231.515 98.5392C231.515 96.7317 230.291 95.65 228.867 95.65C227.444 95.65 226.234 96.689 226.234 98.525C226.234 100.361 227.444 101.443 228.867 101.443C230.291 101.443 231.515 100.375 231.515 98.5392ZM234.586 100.318V95.7212H233.575V94.6538H234.586V92.6897H235.881V94.6538H237.916V95.7212H235.881V100.318C235.881 101.087 236.165 101.357 236.962 101.357H237.916V102.453H236.749C235.368 102.453 234.586 101.884 234.586 100.318ZM250.031 102.453V98.0411C250.031 96.4471 249.177 95.6358 247.897 95.6358C246.587 95.6358 245.691 96.4755 245.691 98.1549V102.453H244.41V98.0411C244.41 96.4471 243.556 95.6358 242.275 95.6358C240.965 95.6358 240.069 96.4755 240.069 98.1549V102.453H238.774V94.6538H240.069V95.7781C240.581 94.9527 241.506 94.5115 242.531 94.5115C243.812 94.5115 244.879 95.0807 245.392 96.2478C245.847 95.1234 246.957 94.5115 248.153 94.5115C249.932 94.5115 251.312 95.6216 251.312 97.8561V102.453H250.031ZM256.041 95.6216C254.775 95.6216 253.722 96.4613 253.579 97.9842H258.504C258.518 96.4613 257.379 95.6216 256.041 95.6216ZM259.685 100.048C259.286 101.471 258.034 102.581 256.098 102.581C253.878 102.581 252.241 101.016 252.241 98.5392C252.241 96.077 253.821 94.5257 256.098 94.5257C258.361 94.5257 259.841 96.1197 259.841 98.2546C259.841 98.5392 259.827 98.7669 259.799 99.0374H253.565C253.665 100.617 254.775 101.485 256.098 101.485C257.265 101.485 258.005 100.888 258.29 100.048H259.685ZM266.547 102.453V98.0411C266.547 96.4471 265.678 95.6358 264.369 95.6358C263.045 95.6358 262.135 96.4613 262.135 98.1407V102.453H260.839V94.6538H262.135V95.7639C262.647 94.9527 263.586 94.5115 264.639 94.5115C266.447 94.5115 267.827 95.6216 267.827 97.8561V102.453H266.547ZM269.516 100.318V95.7212H268.506V94.6538H269.516V92.6897H270.811V94.6538H272.847V95.7212H270.811V100.318C270.811 101.087 271.096 101.357 271.893 101.357H272.847V102.453H271.679C270.299 102.453 269.516 101.884 269.516 100.318ZM279.312 100.332C279.312 101.613 278.187 102.581 276.465 102.581C274.643 102.581 273.363 101.585 273.277 100.162H274.615C274.686 100.916 275.355 101.485 276.451 101.485C277.476 101.485 278.045 100.973 278.045 100.332C278.045 98.5961 273.434 99.6066 273.434 96.7032C273.434 95.5077 274.558 94.5257 276.294 94.5257C278.017 94.5257 279.155 95.4508 279.241 96.9737H277.945C277.888 96.1909 277.291 95.6216 276.252 95.6216C275.298 95.6216 274.729 96.077 274.729 96.7032C274.729 98.5534 279.255 97.5429 279.312 100.332ZM70.0834 133.244H71.9906C73.4707 133.244 74.097 132.547 74.097 131.437C74.097 130.284 73.4707 129.601 71.9906 129.601H70.0834V133.244ZM75.4206 131.437C75.4206 132.945 74.4528 134.311 71.9906 134.311H70.0834V138.453H68.7883V128.533H71.9906C74.3247 128.533 75.4206 129.814 75.4206 131.437ZM76.3187 138.453V127.921H77.6138V131.778C78.1262 130.953 79.094 130.511 80.1899 130.511C81.9262 130.511 83.3068 131.622 83.3068 133.856V138.453H82.0258V134.041C82.0258 132.447 81.1577 131.636 79.8483 131.636C78.5247 131.636 77.6138 132.461 77.6138 134.141V138.453H76.3187ZM84.2269 134.525C84.2269 132.091 85.8351 130.526 87.9273 130.526C89.379 130.526 90.3753 131.266 90.8307 132.077V130.654H92.1401V138.453H90.8307V137.001C90.361 137.841 89.3505 138.581 87.9131 138.581C85.8351 138.581 84.2269 136.944 84.2269 134.525ZM90.8307 134.539C90.8307 132.732 89.6067 131.65 88.1835 131.65C86.7602 131.65 85.5505 132.689 85.5505 134.525C85.5505 136.361 86.7602 137.443 88.1835 137.443C89.6067 137.443 90.8307 136.375 90.8307 134.539ZM94.9123 134.212V138.453H93.6171V130.654H94.9123V131.92C95.3535 131.052 96.1932 130.511 97.4314 130.511V131.849H97.0898C95.8516 131.849 94.9123 132.404 94.9123 134.212ZM109.473 138.453V134.041C109.473 132.447 108.619 131.636 107.338 131.636C106.028 131.636 105.132 132.476 105.132 134.155V138.453H103.851V134.041C103.851 132.447 102.997 131.636 101.716 131.636C100.407 131.636 99.51 132.476 99.51 134.155V138.453H98.2149V130.654H99.51V131.778C100.022 130.953 100.947 130.511 101.972 130.511C103.253 130.511 104.321 131.081 104.833 132.248C105.288 131.123 106.398 130.511 107.594 130.511C109.373 130.511 110.754 131.622 110.754 133.856V138.453H109.473ZM111.683 134.525C111.683 132.091 113.291 130.526 115.383 130.526C116.835 130.526 117.831 131.266 118.286 132.077V130.654H119.596V138.453H118.286V137.001C117.817 137.841 116.806 138.581 115.369 138.581C113.291 138.581 111.683 136.944 111.683 134.525ZM118.286 134.539C118.286 132.732 117.062 131.65 115.639 131.65C114.216 131.65 113.006 132.689 113.006 134.525C113.006 136.361 114.216 137.443 115.639 137.443C117.062 137.443 118.286 136.375 118.286 134.539ZM120.589 134.539C120.589 132.091 122.169 130.526 124.389 130.526C126.325 130.526 127.591 131.522 127.99 133.159H126.595C126.325 132.219 125.542 131.622 124.389 131.622C122.966 131.622 121.913 132.632 121.913 134.539C121.913 136.475 122.966 137.485 124.389 137.485C125.542 137.485 126.31 136.93 126.595 135.948H127.99C127.591 137.5 126.325 138.581 124.389 138.581C122.169 138.581 120.589 137.016 120.589 134.539ZM131.967 136.973L134.386 130.654H135.724L131.027 142.125H129.689L131.227 138.368L128.081 130.654H129.519L131.967 136.973ZM145.375 130.654H144.08C144.108 129.843 143.567 129.401 142.87 129.401C142.101 129.401 141.603 129.885 141.603 130.54C141.603 131.123 141.93 131.607 142.628 132.347L145.588 135.322C145.674 135.194 145.759 135.066 145.844 134.923L146.812 133.301H148.207L147.04 135.322C146.855 135.649 146.67 135.934 146.471 136.219L148.705 138.453H147.011L145.716 137.144C144.763 138.14 143.695 138.624 142.3 138.624C140.237 138.624 138.828 137.443 138.828 135.607C138.828 134.24 139.611 133.144 141.162 132.532C140.55 131.821 140.308 131.266 140.308 130.54C140.308 129.273 141.318 128.334 142.927 128.334C144.492 128.334 145.446 129.33 145.375 130.654ZM142.3 137.514C143.325 137.514 144.122 137.115 144.862 136.29L141.945 133.358C140.706 133.828 140.123 134.568 140.123 135.564C140.123 136.674 141.005 137.514 142.3 137.514ZM153.585 133.244H155.492C156.972 133.244 157.598 132.547 157.598 131.437C157.598 130.284 156.972 129.601 155.492 129.601H153.585V133.244ZM158.922 131.437C158.922 132.945 157.954 134.311 155.492 134.311H153.585V138.453H152.29V128.533H155.492C157.826 128.533 158.922 129.814 158.922 131.437ZM161.115 134.212V138.453H159.82V130.654H161.115V131.92C161.556 131.052 162.396 130.511 163.634 130.511V131.849H163.293C162.054 131.849 161.115 132.404 161.115 134.212ZM167.734 131.622C166.467 131.622 165.414 132.461 165.272 133.984H170.196C170.21 132.461 169.072 131.622 167.734 131.622ZM171.377 136.048C170.979 137.471 169.726 138.581 167.791 138.581C165.571 138.581 163.934 137.016 163.934 134.539C163.934 132.077 165.514 130.526 167.791 130.526C170.054 130.526 171.534 132.12 171.534 134.255C171.534 134.539 171.52 134.767 171.491 135.037H165.257C165.357 136.617 166.467 137.485 167.791 137.485C168.958 137.485 169.698 136.888 169.983 136.048H171.377ZM178.139 136.332C178.139 137.613 177.015 138.581 175.293 138.581C173.471 138.581 172.19 137.585 172.105 136.162H173.443C173.514 136.916 174.183 137.485 175.279 137.485C176.303 137.485 176.873 136.973 176.873 136.332C176.873 134.596 172.261 135.607 172.261 132.703C172.261 131.508 173.386 130.526 175.122 130.526C176.844 130.526 177.983 131.451 178.068 132.974H176.773C176.716 132.191 176.118 131.622 175.079 131.622C174.126 131.622 173.557 132.077 173.557 132.703C173.557 134.553 178.082 133.543 178.139 136.332ZM178.772 134.539C178.772 132.091 180.352 130.526 182.572 130.526C184.508 130.526 185.775 131.522 186.173 133.159H184.778C184.508 132.219 183.725 131.622 182.572 131.622C181.149 131.622 180.096 132.632 180.096 134.539C180.096 136.475 181.149 137.485 182.572 137.485C183.725 137.485 184.494 136.93 184.778 135.948H186.173C185.775 137.5 184.508 138.581 182.572 138.581C180.352 138.581 178.772 137.016 178.772 134.539ZM188.485 134.212V138.453H187.19V130.654H188.485V131.92C188.926 131.052 189.766 130.511 191.004 130.511V131.849H190.662C189.424 131.849 188.485 132.404 188.485 134.212ZM191.787 138.453V130.654H193.082V138.453H191.787ZM192.456 129.387C191.958 129.387 191.574 129.003 191.574 128.505C191.574 128.007 191.958 127.622 192.456 127.622C192.926 127.622 193.31 128.007 193.31 128.505C193.31 129.003 192.926 129.387 192.456 129.387ZM195.873 132.091C196.343 131.266 197.368 130.526 198.791 130.526C200.883 130.526 202.491 132.091 202.491 134.525C202.491 136.944 200.883 138.581 198.791 138.581C197.368 138.581 196.357 137.813 195.873 137.016V142.154H194.578V130.654H195.873V132.091ZM201.168 134.525C201.168 132.689 199.958 131.65 198.521 131.65C197.112 131.65 195.873 132.732 195.873 134.539C195.873 136.375 197.112 137.443 198.521 137.443C199.958 137.443 201.168 136.361 201.168 134.525ZM203.769 136.318V131.721H202.759V130.654H203.769V128.69H205.064V130.654H207.1V131.721H205.064V136.318C205.064 137.087 205.349 137.357 206.146 137.357H207.1V138.453H205.932C204.552 138.453 203.769 137.884 203.769 136.318ZM207.957 138.453V130.654H209.252V138.453H207.957ZM208.626 129.387C208.128 129.387 207.744 129.003 207.744 128.505C207.744 128.007 208.128 127.622 208.626 127.622C209.096 127.622 209.48 128.007 209.48 128.505C209.48 129.003 209.096 129.387 208.626 129.387ZM218.149 134.539C218.149 137.016 216.37 138.581 214.15 138.581C211.944 138.581 210.264 137.016 210.264 134.539C210.264 132.077 212 130.526 214.207 130.526C216.427 130.526 218.149 132.077 218.149 134.539ZM211.588 134.539C211.588 136.518 212.798 137.443 214.15 137.443C215.502 137.443 216.825 136.518 216.825 134.539C216.825 132.575 215.53 131.65 214.192 131.65C212.826 131.65 211.588 132.575 211.588 134.539ZM224.847 138.453V134.041C224.847 132.447 223.979 131.636 222.67 131.636C221.346 131.636 220.435 132.461 220.435 134.141V138.453H219.14V130.654H220.435V131.764C220.948 130.953 221.887 130.511 222.94 130.511C224.748 130.511 226.128 131.622 226.128 133.856V138.453H224.847ZM237.062 135.749C237.062 137.158 235.909 138.553 233.76 138.553C231.768 138.553 230.359 137.443 230.33 135.806H231.711C231.796 136.631 232.38 137.457 233.76 137.457C235.013 137.457 235.753 136.745 235.753 135.806C235.753 133.13 230.387 134.838 230.387 131.152C230.387 129.515 231.711 128.405 233.675 128.405C235.568 128.405 236.806 129.444 236.963 130.953H235.539C235.454 130.284 234.828 129.529 233.618 129.515C232.551 129.487 231.711 130.042 231.711 131.109C231.711 133.671 237.062 132.077 237.062 135.749ZM241.573 131.622C240.306 131.622 239.253 132.461 239.111 133.984H244.035C244.049 132.461 242.911 131.622 241.573 131.622ZM245.216 136.048C244.818 137.471 243.565 138.581 241.63 138.581C239.409 138.581 237.773 137.016 237.773 134.539C237.773 132.077 239.352 130.526 241.63 130.526C243.893 130.526 245.373 132.12 245.373 134.255C245.373 134.539 245.359 134.767 245.33 135.037H239.096C239.196 136.617 240.306 137.485 241.63 137.485C242.797 137.485 243.537 136.888 243.821 136.048H245.216ZM247.666 134.212V138.453H246.371V130.654H247.666V131.92C248.107 131.052 248.947 130.511 250.185 130.511V131.849H249.843C248.605 131.849 247.666 132.404 247.666 134.212ZM250.043 130.654H251.438L253.872 137.258L256.291 130.654H257.672L254.612 138.453H253.103L250.043 130.654ZM258.235 138.453V130.654H259.53V138.453H258.235ZM258.904 129.387C258.406 129.387 258.021 129.003 258.021 128.505C258.021 128.007 258.406 127.622 258.904 127.622C259.373 127.622 259.758 128.007 259.758 128.505C259.758 129.003 259.373 129.387 258.904 129.387ZM260.542 134.539C260.542 132.091 262.122 130.526 264.342 130.526C266.277 130.526 267.544 131.522 267.943 133.159H266.548C266.277 132.219 265.495 131.622 264.342 131.622C262.919 131.622 261.865 132.632 261.865 134.539C261.865 136.475 262.919 137.485 264.342 137.485C265.495 137.485 266.263 136.93 266.548 135.948H267.943C267.544 137.5 266.277 138.581 264.342 138.581C262.122 138.581 260.542 137.016 260.542 134.539ZM272.275 131.622C271.009 131.622 269.955 132.461 269.813 133.984H274.737C274.752 132.461 273.613 131.622 272.275 131.622ZM275.919 136.048C275.52 137.471 274.268 138.581 272.332 138.581C270.112 138.581 268.475 137.016 268.475 134.539C268.475 132.077 270.055 130.526 272.332 130.526C274.595 130.526 276.075 132.12 276.075 134.255C276.075 134.539 276.061 134.767 276.033 135.037H269.799C269.898 136.617 271.009 137.485 272.332 137.485C273.499 137.485 274.239 136.888 274.524 136.048H275.919ZM282.681 136.332C282.681 137.613 281.556 138.581 279.834 138.581C278.013 138.581 276.732 137.585 276.646 136.162H277.984C278.055 136.916 278.724 137.485 279.82 137.485C280.845 137.485 281.414 136.973 281.414 136.332C281.414 134.596 276.803 135.607 276.803 132.703C276.803 131.508 277.927 130.526 279.663 130.526C281.386 130.526 282.524 131.451 282.61 132.974H281.314C281.258 132.191 280.66 131.622 279.621 131.622C278.667 131.622 278.098 132.077 278.098 132.703C278.098 134.553 282.624 133.543 282.681 136.332ZM68.7883 164.533H70.0834V173.4H73.5561V174.453H68.7883V164.533ZM81.1369 166.654V174.453H79.8417V173.3C79.3436 174.112 78.39 174.567 77.3511 174.567C75.5578 174.567 74.1488 173.457 74.1488 171.222V166.654H75.4297V171.052C75.4297 172.631 76.2979 173.443 77.6072 173.443C78.9451 173.443 79.8417 172.617 79.8417 170.938V166.654H81.1369ZM86.6825 174.453L84.8323 171.55L83.0532 174.453H81.7012L84.2203 170.582L81.7012 166.654H83.1671L85.0173 169.543L86.7821 166.654H88.1342L85.6293 170.511L88.1484 174.453H86.6825ZM95.6278 166.654V174.453H94.3326V173.3C93.8345 174.112 92.8809 174.567 91.842 174.567C90.0487 174.567 88.6397 173.457 88.6397 171.222V166.654H89.9206V171.052C89.9206 172.631 90.7888 173.443 92.0982 173.443C93.436 173.443 94.3326 172.617 94.3326 170.938V166.654H95.6278ZM98.3981 170.212V174.453H97.103V166.654H98.3981V167.92C98.8393 167.052 99.679 166.511 100.917 166.511V167.849H100.576C99.3374 167.849 98.3981 168.404 98.3981 170.212ZM104.661 172.973L107.081 166.654H108.418L103.722 178.125H102.384L103.921 174.368L100.776 166.654H102.213L104.661 172.973ZM118.539 171.749C118.539 173.158 117.386 174.553 115.237 174.553C113.244 174.553 111.835 173.443 111.807 171.806H113.187C113.273 172.631 113.856 173.457 115.237 173.457C116.489 173.457 117.229 172.745 117.229 171.806C117.229 169.13 111.864 170.838 111.864 167.152C111.864 165.515 113.187 164.405 115.151 164.405C117.044 164.405 118.283 165.444 118.439 166.953H117.016C116.93 166.284 116.304 165.529 115.094 165.515C114.027 165.487 113.187 166.042 113.187 167.109C113.187 169.671 118.539 168.077 118.539 171.749ZM119.733 174.453V163.921H121.028V170.112L124.031 166.654H125.839L122.167 170.539L125.853 174.453H124.088L121.028 171.009V174.453H119.733ZM126.346 174.453V166.654H127.641V174.453H126.346ZM127.015 165.387C126.517 165.387 126.133 165.003 126.133 164.505C126.133 164.007 126.517 163.622 127.015 163.622C127.485 163.622 127.869 164.007 127.869 164.505C127.869 165.003 127.485 165.387 127.015 165.387ZM134.844 174.453V170.041C134.844 168.447 133.976 167.636 132.667 167.636C131.343 167.636 130.432 168.461 130.432 170.141V174.453H129.137V166.654H130.432V167.764C130.944 166.953 131.884 166.511 132.937 166.511C134.745 166.511 136.125 167.622 136.125 169.856V174.453H134.844ZM137.045 170.539C137.045 168.091 138.625 166.526 140.845 166.526C142.781 166.526 144.047 167.522 144.446 169.159H143.051C142.781 168.219 141.998 167.622 140.845 167.622C139.422 167.622 138.369 168.632 138.369 170.539C138.369 172.475 139.422 173.485 140.845 173.485C141.998 173.485 142.767 172.93 143.051 171.948H144.446C144.047 173.5 142.781 174.581 140.845 174.581C138.625 174.581 137.045 173.016 137.045 170.539ZM144.979 170.525C144.979 168.091 146.587 166.526 148.679 166.526C150.131 166.526 151.127 167.266 151.582 168.077V166.654H152.892V174.453H151.582V173.001C151.113 173.841 150.102 174.581 148.665 174.581C146.587 174.581 144.979 172.944 144.979 170.525ZM151.582 170.539C151.582 168.732 150.358 167.65 148.935 167.65C147.512 167.65 146.302 168.689 146.302 170.525C146.302 172.361 147.512 173.443 148.935 173.443C150.358 173.443 151.582 172.375 151.582 170.539ZM155.664 170.212V174.453H154.369V166.654H155.664V167.92C156.105 167.052 156.945 166.511 158.183 166.511V167.849H157.842C156.603 167.849 155.664 168.404 155.664 170.212ZM162.283 167.622C161.016 167.622 159.963 168.461 159.821 169.984H164.745C164.759 168.461 163.621 167.622 162.283 167.622ZM165.926 172.048C165.528 173.471 164.275 174.581 162.34 174.581C160.119 174.581 158.483 173.016 158.483 170.539C158.483 168.077 160.062 166.526 162.34 166.526C164.603 166.526 166.083 168.12 166.083 170.255C166.083 170.539 166.069 170.767 166.04 171.037H159.806C159.906 172.617 161.016 173.485 162.34 173.485C163.507 173.485 164.247 172.888 164.531 172.048H165.926ZM176.141 166.654H174.846C174.874 165.843 174.334 165.401 173.636 165.401C172.868 165.401 172.37 165.885 172.37 166.54C172.37 167.123 172.697 167.607 173.394 168.347L176.355 171.322C176.44 171.194 176.525 171.066 176.611 170.923L177.579 169.301H178.973L177.806 171.322C177.621 171.649 177.436 171.934 177.237 172.219L179.471 174.453H177.778L176.483 173.144C175.529 174.14 174.462 174.624 173.067 174.624C171.003 174.624 169.594 173.443 169.594 171.607C169.594 170.24 170.377 169.144 171.928 168.532C171.316 167.821 171.074 167.266 171.074 166.54C171.074 165.273 172.085 164.334 173.693 164.334C175.259 164.334 176.212 165.33 176.141 166.654ZM173.067 173.514C174.092 173.514 174.889 173.115 175.629 172.29L172.711 169.358C171.473 169.828 170.889 170.568 170.889 171.564C170.889 172.674 171.772 173.514 173.067 173.514ZM188.692 171.664C188.692 170.568 187.867 169.885 186.6 169.885H184.351V173.386H186.643C187.924 173.386 188.692 172.745 188.692 171.664ZM188.436 167.209C188.436 166.227 187.767 165.601 186.5 165.601H184.351V168.817H186.529C187.738 168.817 188.436 168.219 188.436 167.209ZM189.987 171.792C189.987 173.286 188.806 174.453 186.756 174.453H183.056V164.533H186.614C188.706 164.533 189.759 165.672 189.759 167.052C189.759 168.305 188.977 169.031 188.023 169.344C189.105 169.529 189.987 170.568 189.987 171.792ZM194.389 167.622C193.122 167.622 192.069 168.461 191.927 169.984H196.851C196.865 168.461 195.727 167.622 194.389 167.622ZM198.033 172.048C197.634 173.471 196.382 174.581 194.446 174.581C192.226 174.581 190.589 173.016 190.589 170.539C190.589 168.077 192.169 166.526 194.446 166.526C196.709 166.526 198.189 168.12 198.189 170.255C198.189 170.539 198.175 170.767 198.146 171.037H191.913C192.012 172.617 193.122 173.485 194.446 173.485C195.613 173.485 196.353 172.888 196.638 172.048H198.033ZM198.703 170.525C198.703 168.091 200.311 166.526 202.404 166.526C203.855 166.526 204.851 167.266 205.307 168.077V166.654H206.616V174.453H205.307V173.001C204.837 173.841 203.827 174.581 202.389 174.581C200.311 174.581 198.703 172.944 198.703 170.525ZM205.307 170.539C205.307 168.732 204.083 167.65 202.66 167.65C201.236 167.65 200.027 168.689 200.027 170.525C200.027 172.361 201.236 173.443 202.66 173.443C204.083 173.443 205.307 172.375 205.307 170.539ZM215.01 166.654V174.453H213.715V173.3C213.217 174.112 212.263 174.567 211.224 174.567C209.431 174.567 208.022 173.457 208.022 171.222V166.654H209.303V171.052C209.303 172.631 210.171 173.443 211.481 173.443C212.819 173.443 213.715 172.617 213.715 170.938V166.654H215.01ZM216.77 172.318V167.721H215.76V166.654H216.77V164.69H218.065V166.654H220.101V167.721H218.065V172.318C218.065 173.087 218.35 173.357 219.147 173.357H220.101V174.453H218.933C217.553 174.453 216.77 173.884 216.77 172.318ZM223.918 172.973L226.338 166.654H227.676L222.979 178.125H221.641L223.178 174.368L220.033 166.654H221.47L223.918 172.973ZM237.796 171.749C237.796 173.158 236.643 174.553 234.494 174.553C232.502 174.553 231.093 173.443 231.064 171.806H232.445C232.53 172.631 233.114 173.457 234.494 173.457C235.747 173.457 236.487 172.745 236.487 171.806C236.487 169.13 231.121 170.838 231.121 167.152C231.121 165.515 232.445 164.405 234.409 164.405C236.302 164.405 237.54 165.444 237.697 166.953H236.273C236.188 166.284 235.562 165.529 234.352 165.515C233.284 165.487 232.445 166.042 232.445 167.109C232.445 169.671 237.796 168.077 237.796 171.749ZM239.275 172.318V167.721H238.265V166.654H239.275V164.69H240.57V166.654H242.605V167.721H240.57V172.318C240.57 173.087 240.855 173.357 241.652 173.357H242.605V174.453H241.438C240.058 174.453 239.275 173.884 239.275 172.318ZM250.864 170.539C250.864 173.016 249.085 174.581 246.865 174.581C244.659 174.581 242.979 173.016 242.979 170.539C242.979 168.077 244.716 166.526 246.922 166.526C249.142 166.526 250.864 168.077 250.864 170.539ZM244.303 170.539C244.303 172.518 245.513 173.443 246.865 173.443C248.217 173.443 249.54 172.518 249.54 170.539C249.54 168.575 248.245 167.65 246.907 167.65C245.541 167.65 244.303 168.575 244.303 170.539ZM253.15 170.212V174.453H251.855V166.654H253.15V167.92C253.592 167.052 254.431 166.511 255.669 166.511V167.849H255.328C254.09 167.849 253.15 168.404 253.15 170.212ZM259.769 167.622C258.502 167.622 257.449 168.461 257.307 169.984H262.231C262.246 168.461 261.107 167.622 259.769 167.622ZM263.413 172.048C263.014 173.471 261.762 174.581 259.826 174.581C257.606 174.581 255.969 173.016 255.969 170.539C255.969 168.077 257.549 166.526 259.826 166.526C262.089 166.526 263.569 168.12 263.569 170.255C263.569 170.539 263.555 170.767 263.526 171.037H257.293C257.392 172.617 258.502 173.485 259.826 173.485C260.993 173.485 261.733 172.888 262.018 172.048H263.413ZM75.1359 210.453V205.956H70.0834V210.453H68.7883V200.533H70.0834V204.888H75.1359V200.533H76.4311V210.453H75.1359ZM81.2332 203.622C79.9665 203.622 78.9133 204.461 78.771 205.984H83.6954C83.7096 204.461 82.571 203.622 81.2332 203.622ZM84.8767 208.048C84.4782 209.471 83.2257 210.581 81.2901 210.581C79.0698 210.581 77.4331 209.016 77.4331 206.539C77.4331 204.077 79.0129 202.526 81.2901 202.526C83.553 202.526 85.0332 204.12 85.0332 206.255C85.0332 206.539 85.019 206.767 84.9905 207.037H78.7567C78.8564 208.617 79.9665 209.485 81.2901 209.485C82.4572 209.485 83.1972 208.888 83.4819 208.048H84.8767ZM85.5473 206.525C85.5473 204.091 87.1555 202.526 89.2477 202.526C90.6994 202.526 91.6956 203.266 92.1511 204.077V202.654H93.4605V210.453H92.1511V209.001C91.6814 209.841 90.6709 210.581 89.2334 210.581C87.1555 210.581 85.5473 208.944 85.5473 206.525ZM92.1511 206.539C92.1511 204.732 90.9271 203.65 89.5039 203.65C88.0806 203.65 86.8709 204.689 86.8709 206.525C86.8709 208.361 88.0806 209.443 89.5039 209.443C90.9271 209.443 92.1511 208.375 92.1511 206.539ZM94.9375 210.453V199.921H96.2327V210.453H94.9375ZM98.013 208.318V203.721H97.0025V202.654H98.013V200.69H99.3082V202.654H101.343V203.721H99.3082V208.318C99.3082 209.087 99.5928 209.357 100.39 209.357H101.343V210.453H100.176C98.7958 210.453 98.013 209.884 98.013 208.318ZM102.201 210.453V199.921H103.496V203.778C104.009 202.953 104.976 202.511 106.072 202.511C107.809 202.511 109.189 203.622 109.189 205.856V210.453H107.908V206.041C107.908 204.447 107.04 203.636 105.731 203.636C104.407 203.636 103.496 204.461 103.496 206.141V210.453H102.201ZM119.654 202.654H118.358C118.387 201.843 117.846 201.401 117.149 201.401C116.38 201.401 115.882 201.885 115.882 202.54C115.882 203.123 116.209 203.607 116.907 204.347L119.867 207.322C119.952 207.194 120.038 207.066 120.123 206.923L121.091 205.301H122.486L121.319 207.322C121.134 207.649 120.949 207.934 120.749 208.219L122.984 210.453H121.29L119.995 209.144C119.042 210.14 117.974 210.624 116.579 210.624C114.516 210.624 113.107 209.443 113.107 207.607C113.107 206.24 113.889 205.144 115.441 204.532C114.829 203.821 114.587 203.266 114.587 202.54C114.587 201.273 115.597 200.334 117.206 200.334C118.771 200.334 119.725 201.33 119.654 202.654ZM116.579 209.514C117.604 209.514 118.401 209.115 119.141 208.29L116.224 205.358C114.985 205.828 114.402 206.568 114.402 207.564C114.402 208.674 115.284 209.514 116.579 209.514ZM128.575 210.467L125.8 200.533H127.18L129.344 208.944L131.735 200.533H133.187L135.464 208.916L137.641 200.533H139.036L136.161 210.453H134.709L132.404 202.469L130.013 210.453L128.575 210.467ZM143.058 203.622C141.791 203.622 140.738 204.461 140.596 205.984H145.52C145.534 204.461 144.396 203.622 143.058 203.622ZM146.701 208.048C146.303 209.471 145.05 210.581 143.115 210.581C140.895 210.581 139.258 209.016 139.258 206.539C139.258 204.077 140.838 202.526 143.115 202.526C145.378 202.526 146.858 204.12 146.858 206.255C146.858 206.539 146.844 206.767 146.815 207.037H140.581C140.681 208.617 141.791 209.485 143.115 209.485C144.282 209.485 145.022 208.888 145.307 208.048H146.701ZM147.856 210.453V199.921H149.151V210.453H147.856ZM150.647 210.453V199.921H151.942V210.453H150.647ZM159.145 210.453V206.041C159.145 204.447 158.277 203.636 156.967 203.636C155.644 203.636 154.733 204.461 154.733 206.141V210.453H153.438V202.654H154.733V203.764C155.245 202.953 156.184 202.511 157.238 202.511C159.045 202.511 160.426 203.622 160.426 205.856V210.453H159.145ZM165.146 203.622C163.879 203.622 162.826 204.461 162.684 205.984H167.608C167.622 204.461 166.484 203.622 165.146 203.622ZM168.789 208.048C168.391 209.471 167.138 210.581 165.203 210.581C162.983 210.581 161.346 209.016 161.346 206.539C161.346 204.077 162.926 202.526 165.203 202.526C167.466 202.526 168.946 204.12 168.946 206.255C168.946 206.539 168.932 206.767 168.903 207.037H162.669C162.769 208.617 163.879 209.485 165.203 209.485C166.37 209.485 167.11 208.888 167.395 208.048H168.789ZM175.551 208.332C175.551 209.613 174.427 210.581 172.705 210.581C170.883 210.581 169.602 209.585 169.517 208.162H170.855C170.926 208.916 171.595 209.485 172.691 209.485C173.715 209.485 174.285 208.973 174.285 208.332C174.285 206.596 169.673 207.607 169.673 204.703C169.673 203.508 170.798 202.526 172.534 202.526C174.256 202.526 175.395 203.451 175.48 204.974H174.185C174.128 204.191 173.53 203.622 172.491 203.622C171.538 203.622 170.969 204.077 170.969 204.703C170.969 206.553 175.495 205.543 175.551 208.332ZM182.276 208.332C182.276 209.613 181.151 210.581 179.429 210.581C177.607 210.581 176.327 209.585 176.241 208.162H177.579C177.65 208.916 178.319 209.485 179.415 209.485C180.44 209.485 181.009 208.973 181.009 208.332C181.009 206.596 176.398 207.607 176.398 204.703C176.398 203.508 177.522 202.526 179.258 202.526C180.981 202.526 182.119 203.451 182.205 204.974H180.909C180.852 204.191 180.255 203.622 179.216 203.622C178.262 203.622 177.693 204.077 177.693 204.703C177.693 206.553 182.219 205.543 182.276 208.332ZM185.991 205.486C185.991 202.511 188.169 200.405 190.944 200.405C193.093 200.405 194.801 201.487 195.541 203.408H193.99C193.449 202.213 192.396 201.544 190.944 201.544C188.866 201.544 187.315 203.052 187.315 205.486C187.315 207.906 188.866 209.414 190.944 209.414C192.396 209.414 193.449 208.745 193.99 207.564H195.541C194.801 209.471 193.093 210.539 190.944 210.539C188.169 210.539 185.991 208.461 185.991 205.486ZM204.158 206.539C204.158 209.016 202.379 210.581 200.159 210.581C197.953 210.581 196.274 209.016 196.274 206.539C196.274 204.077 198.01 202.526 200.216 202.526C202.436 202.526 204.158 204.077 204.158 206.539ZM197.597 206.539C197.597 208.518 198.807 209.443 200.159 209.443C201.511 209.443 202.835 208.518 202.835 206.539C202.835 204.575 201.54 203.65 200.202 203.65C198.835 203.65 197.597 204.575 197.597 206.539ZM210.857 210.453V206.041C210.857 204.447 209.989 203.636 208.679 203.636C207.356 203.636 206.445 204.461 206.445 206.141V210.453H205.15V202.654H206.445V203.764C206.957 202.953 207.896 202.511 208.95 202.511C210.757 202.511 212.138 203.622 212.138 205.856V210.453H210.857ZM219.149 208.332C219.149 209.613 218.025 210.581 216.303 210.581C214.481 210.581 213.2 209.585 213.115 208.162H214.453C214.524 208.916 215.193 209.485 216.289 209.485C217.313 209.485 217.883 208.973 217.883 208.332C217.883 206.596 213.271 207.607 213.271 204.703C213.271 203.508 214.396 202.526 216.132 202.526C217.854 202.526 218.993 203.451 219.078 204.974H217.783C217.726 204.191 217.128 203.622 216.089 203.622C215.136 203.622 214.566 204.077 214.566 204.703C214.566 206.553 219.092 205.543 219.149 208.332ZM227.183 202.654V210.453H225.888V209.3C225.39 210.112 224.436 210.567 223.397 210.567C221.604 210.567 220.195 209.457 220.195 207.222V202.654H221.476V207.052C221.476 208.631 222.344 209.443 223.653 209.443C224.991 209.443 225.888 208.617 225.888 206.938V202.654H227.183ZM228.658 210.453V199.921H229.953V210.453H228.658ZM231.734 208.318V203.721H230.723V202.654H231.734V200.69H233.029V202.654H235.064V203.721H233.029V208.318C233.029 209.087 233.313 209.357 234.11 209.357H235.064V210.453H233.897C232.516 210.453 231.734 209.884 231.734 208.318ZM235.438 206.525C235.438 204.091 237.046 202.526 239.138 202.526C240.59 202.526 241.586 203.266 242.042 204.077V202.654H243.351V210.453H242.042V209.001C241.572 209.841 240.561 210.581 239.124 210.581C237.046 210.581 235.438 208.944 235.438 206.525ZM242.042 206.539C242.042 204.732 240.818 203.65 239.394 203.65C237.971 203.65 236.761 204.689 236.761 206.525C236.761 208.361 237.971 209.443 239.394 209.443C240.818 209.443 242.042 208.375 242.042 206.539ZM245.113 208.318V203.721H244.102V202.654H245.113V200.69H246.408V202.654H248.443V203.721H246.408V208.318C246.408 209.087 246.692 209.357 247.489 209.357H248.443V210.453H247.276C245.895 210.453 245.113 209.884 245.113 208.318ZM249.301 210.453V202.654H250.596V210.453H249.301ZM249.97 201.387C249.471 201.387 249.087 201.003 249.087 200.505C249.087 200.007 249.471 199.622 249.97 199.622C250.439 199.622 250.823 200.007 250.823 200.505C250.823 201.003 250.439 201.387 249.97 201.387ZM259.492 206.539C259.492 209.016 257.713 210.581 255.493 210.581C253.287 210.581 251.608 209.016 251.608 206.539C251.608 204.077 253.344 202.526 255.55 202.526C257.77 202.526 259.492 204.077 259.492 206.539ZM252.931 206.539C252.931 208.518 254.141 209.443 255.493 209.443C256.845 209.443 258.169 208.518 258.169 206.539C258.169 204.575 256.874 203.65 255.536 203.65C254.169 203.65 252.931 204.575 252.931 206.539ZM266.191 210.453V206.041C266.191 204.447 265.323 203.636 264.013 203.636C262.69 203.636 261.779 204.461 261.779 206.141V210.453H260.484V202.654H261.779V203.764C262.291 202.953 263.23 202.511 264.284 202.511C266.091 202.511 267.472 203.622 267.472 205.856V210.453H266.191ZM274.483 208.332C274.483 209.613 273.359 210.581 271.637 210.581C269.815 210.581 268.534 209.585 268.449 208.162H269.787C269.858 208.916 270.527 209.485 271.623 209.485C272.647 209.485 273.217 208.973 273.217 208.332C273.217 206.596 268.605 207.607 268.605 204.703C268.605 203.508 269.73 202.526 271.466 202.526C273.188 202.526 274.327 203.451 274.412 204.974H273.117C273.06 204.191 272.462 203.622 271.423 203.622C270.47 203.622 269.9 204.077 269.9 204.703C269.9 206.553 274.426 205.543 274.483 208.332ZM70.0834 241.244H71.9906C73.4707 241.244 74.097 240.547 74.097 239.437C74.097 238.284 73.4707 237.601 71.9906 237.601H70.0834V241.244ZM75.4206 239.437C75.4206 240.945 74.4528 242.311 71.9906 242.311H70.0834V246.453H68.7883V236.533H71.9906C74.3247 236.533 75.4206 237.814 75.4206 239.437ZM79.6348 239.622C78.3681 239.622 77.3149 240.461 77.1726 241.984H82.097C82.1112 240.461 80.9726 239.622 79.6348 239.622ZM83.2783 244.048C82.8798 245.471 81.6273 246.581 79.6917 246.581C77.4715 246.581 75.8348 245.016 75.8348 242.539C75.8348 240.077 77.4146 238.526 79.6917 238.526C81.9547 238.526 83.4349 240.12 83.4349 242.255C83.4349 242.539 83.4206 242.767 83.3922 243.037H77.1584C77.258 244.617 78.3681 245.485 79.6917 245.485C80.8588 245.485 81.5989 244.888 81.8835 244.048H83.2783ZM85.7279 242.212V246.453H84.4328V238.654H85.7279V239.92C86.1691 239.052 87.0089 238.511 88.2471 238.511V239.849H87.9055C86.6673 239.849 85.7279 240.404 85.7279 242.212ZM94.6381 244.332C94.6381 245.613 93.5137 246.581 91.7916 246.581C89.9699 246.581 88.6889 245.585 88.6035 244.162H89.9414C90.0126 244.916 90.6815 245.485 91.7774 245.485C92.8021 245.485 93.3714 244.973 93.3714 244.332C93.3714 242.596 88.7601 243.607 88.7601 240.703C88.7601 239.508 89.8845 238.526 91.6208 238.526C93.3429 238.526 94.4815 239.451 94.5669 240.974H93.2718C93.2148 240.191 92.6171 239.622 91.5781 239.622C90.6245 239.622 90.0553 240.077 90.0553 240.703C90.0553 242.553 94.5812 241.543 94.6381 244.332ZM103.156 242.539C103.156 245.016 101.377 246.581 99.1563 246.581C96.9503 246.581 95.2709 245.016 95.2709 242.539C95.2709 240.077 97.0072 238.526 99.2132 238.526C101.433 238.526 103.156 240.077 103.156 242.539ZM96.5945 242.539C96.5945 244.518 97.8042 245.443 99.1563 245.443C100.508 245.443 101.832 244.518 101.832 242.539C101.832 240.575 100.537 239.65 99.199 239.65C97.8327 239.65 96.5945 240.575 96.5945 242.539ZM109.854 246.453V242.041C109.854 240.447 108.986 239.636 107.677 239.636C106.353 239.636 105.442 240.461 105.442 242.141V246.453H104.147V238.654H105.442V239.764C105.954 238.953 106.894 238.511 107.947 238.511C109.754 238.511 111.135 239.622 111.135 241.856V246.453H109.854ZM112.055 242.525C112.055 240.091 113.663 238.526 115.756 238.526C117.207 238.526 118.203 239.266 118.659 240.077V238.654H119.968V246.453H118.659V245.001C118.189 245.841 117.179 246.581 115.741 246.581C113.663 246.581 112.055 244.944 112.055 242.525ZM118.659 242.539C118.659 240.732 117.435 239.65 116.012 239.65C114.588 239.65 113.379 240.689 113.379 242.525C113.379 244.361 114.588 245.443 116.012 245.443C117.435 245.443 118.659 244.375 118.659 242.539ZM121.445 246.453V235.921H122.74V246.453H121.445ZM124.236 246.453V238.654H125.531V246.453H124.236ZM124.905 237.387C124.407 237.387 124.023 237.003 124.023 236.505C124.023 236.007 124.407 235.622 124.905 235.622C125.375 235.622 125.759 236.007 125.759 236.505C125.759 237.003 125.375 237.387 124.905 237.387ZM131.795 238.654V239.707L127.995 245.386H131.823V246.453H126.515V245.386L130.301 239.707H126.543V238.654H131.795ZM136.108 239.622C134.842 239.622 133.789 240.461 133.646 241.984H138.571C138.585 240.461 137.446 239.622 136.108 239.622ZM139.752 244.048C139.353 245.471 138.101 246.581 136.165 246.581C133.945 246.581 132.308 245.016 132.308 242.539C132.308 240.077 133.888 238.526 136.165 238.526C138.428 238.526 139.909 240.12 139.909 242.255C139.909 242.539 139.894 242.767 139.866 243.037H133.632C133.732 244.617 134.842 245.485 136.165 245.485C137.332 245.485 138.073 244.888 138.357 244.048H139.752ZM140.423 242.525C140.423 240.091 142.031 238.526 144.137 238.526C145.361 238.526 146.486 239.152 147.026 240.049V235.921H148.336V246.453H147.026V244.987C146.557 245.855 145.546 246.581 144.123 246.581C142.031 246.581 140.423 244.944 140.423 242.525ZM147.026 242.539C147.026 240.732 145.802 239.65 144.379 239.65C142.956 239.65 141.746 240.689 141.746 242.525C141.746 244.361 142.956 245.443 144.379 245.443C145.802 245.443 147.026 244.375 147.026 242.539ZM154.902 246.467L152.127 236.533H153.508L155.671 244.944L158.062 236.533H159.514L161.791 244.916L163.968 236.533H165.363L162.488 246.453H161.037L158.731 238.469L156.34 246.453L154.902 246.467ZM169.385 239.622C168.118 239.622 167.065 240.461 166.923 241.984H171.847C171.861 240.461 170.723 239.622 169.385 239.622ZM173.029 244.048C172.63 245.471 171.378 246.581 169.442 246.581C167.222 246.581 165.585 245.016 165.585 242.539C165.585 240.077 167.165 238.526 169.442 238.526C171.705 238.526 173.185 240.12 173.185 242.255C173.185 242.539 173.171 242.767 173.142 243.037H166.909C167.008 244.617 168.118 245.485 169.442 245.485C170.609 245.485 171.349 244.888 171.634 244.048H173.029ZM174.183 246.453V235.921H175.478V246.453H174.183ZM176.974 246.453V235.921H178.269V246.453H176.974ZM185.472 246.453V242.041C185.472 240.447 184.604 239.636 183.294 239.636C181.971 239.636 181.06 240.461 181.06 242.141V246.453H179.765V238.654H181.06V239.764C181.572 238.953 182.512 238.511 183.565 238.511C185.372 238.511 186.753 239.622 186.753 241.856V246.453H185.472ZM191.473 239.622C190.206 239.622 189.153 240.461 189.011 241.984H193.935C193.949 240.461 192.811 239.622 191.473 239.622ZM195.117 244.048C194.718 245.471 193.466 246.581 191.53 246.581C189.31 246.581 187.673 245.016 187.673 242.539C187.673 240.077 189.253 238.526 191.53 238.526C193.793 238.526 195.273 240.12 195.273 242.255C195.273 242.539 195.259 242.767 195.23 243.037H188.997C189.096 244.617 190.206 245.485 191.53 245.485C192.697 245.485 193.437 244.888 193.722 244.048H195.117ZM201.879 244.332C201.879 245.613 200.754 246.581 199.032 246.581C197.21 246.581 195.929 245.585 195.844 244.162H197.182C197.253 244.916 197.922 245.485 199.018 245.485C200.043 245.485 200.612 244.973 200.612 244.332C200.612 242.596 196.001 243.607 196.001 240.703C196.001 239.508 197.125 238.526 198.861 238.526C200.583 238.526 201.722 239.451 201.807 240.974H200.512C200.455 240.191 199.858 239.622 198.819 239.622C197.865 239.622 197.296 240.077 197.296 240.703C197.296 242.553 201.822 241.543 201.879 244.332ZM208.603 244.332C208.603 245.613 207.478 246.581 205.756 246.581C203.935 246.581 202.654 245.585 202.568 244.162H203.906C203.977 244.916 204.646 245.485 205.742 245.485C206.767 245.485 207.336 244.973 207.336 244.332C207.336 242.596 202.725 243.607 202.725 240.703C202.725 239.508 203.849 238.526 205.586 238.526C207.308 238.526 208.446 239.451 208.532 240.974H207.237C207.18 240.191 206.582 239.622 205.543 239.622C204.589 239.622 204.02 240.077 204.02 240.703C204.02 242.553 208.546 241.543 208.603 244.332ZM214.097 241.244H216.005C217.485 241.244 218.111 240.547 218.111 239.437C218.111 238.284 217.485 237.601 216.005 237.601H214.097V241.244ZM219.435 239.437C219.435 240.945 218.467 242.311 216.005 242.311H214.097V246.453H212.802V236.533H216.005C218.339 236.533 219.435 237.814 219.435 239.437ZM220.333 246.453V235.921H221.628V246.453H220.333ZM222.64 242.525C222.64 240.091 224.248 238.526 226.34 238.526C227.792 238.526 228.788 239.266 229.243 240.077V238.654H230.553V246.453H229.243V245.001C228.774 245.841 227.763 246.581 226.326 246.581C224.248 246.581 222.64 244.944 222.64 242.525ZM229.243 242.539C229.243 240.732 228.019 239.65 226.596 239.65C225.173 239.65 223.963 240.689 223.963 242.525C223.963 244.361 225.173 245.443 226.596 245.443C228.019 245.443 229.243 244.375 229.243 242.539ZM237.737 246.453V242.041C237.737 240.447 236.869 239.636 235.56 239.636C234.236 239.636 233.325 240.461 233.325 242.141V246.453H232.03V238.654H233.325V239.764C233.837 238.953 234.777 238.511 235.83 238.511C237.637 238.511 239.018 239.622 239.018 241.856V246.453H237.737ZM246.03 244.332C246.03 245.613 244.905 246.581 243.183 246.581C241.361 246.581 240.08 245.585 239.995 244.162H241.333C241.404 244.916 242.073 245.485 243.169 245.485C244.194 245.485 244.763 244.973 244.763 244.332C244.763 242.596 240.152 243.607 240.152 240.703C240.152 239.508 241.276 238.526 243.012 238.526C244.734 238.526 245.873 239.451 245.958 240.974H244.663C244.606 240.191 244.009 239.622 242.97 239.622C242.016 239.622 241.447 240.077 241.447 240.703C241.447 242.553 245.973 241.543 246.03 244.332ZM74.4243 279.664C74.4243 278.568 73.5988 277.885 72.3321 277.885H70.0834V281.386H72.3748C73.6558 281.386 74.4243 280.745 74.4243 279.664ZM74.1681 275.209C74.1681 274.227 73.4992 273.601 72.2325 273.601H70.0834V276.817H72.261C73.4707 276.817 74.1681 276.219 74.1681 275.209ZM75.7195 279.792C75.7195 281.286 74.5382 282.453 72.4887 282.453H68.7883V272.533H72.3464C74.4385 272.533 75.4917 273.672 75.4917 275.052C75.4917 276.305 74.709 277.031 73.7554 277.344C74.837 277.529 75.7195 278.568 75.7195 279.792ZM80.1213 275.622C78.8546 275.622 77.8014 276.461 77.6591 277.984H82.5835C82.5977 276.461 81.4591 275.622 80.1213 275.622ZM83.7648 280.048C83.3662 281.471 82.1138 282.581 80.1782 282.581C77.9579 282.581 76.3212 281.016 76.3212 278.539C76.3212 276.077 77.901 274.526 80.1782 274.526C82.4411 274.526 83.9213 276.12 83.9213 278.255C83.9213 278.539 83.9071 278.767 83.8786 279.037H77.6448C77.7445 280.617 78.8546 281.485 80.1782 281.485C81.3452 281.485 82.0853 280.888 82.37 280.048H83.7648ZM84.4353 278.525C84.4353 276.091 86.0436 274.526 88.1358 274.526C89.5875 274.526 90.5837 275.266 91.0392 276.077V274.654H92.3486V282.453H91.0392V281.001C90.5695 281.841 89.559 282.581 88.1215 282.581C86.0436 282.581 84.4353 280.944 84.4353 278.525ZM91.0392 278.539C91.0392 276.732 89.8152 275.65 88.392 275.65C86.9687 275.65 85.759 276.689 85.759 278.525C85.759 280.361 86.9687 281.443 88.392 281.443C89.8152 281.443 91.0392 280.375 91.0392 278.539ZM100.743 274.654V282.453H99.4474V281.3C98.9493 282.112 97.9957 282.567 96.9567 282.567C95.1635 282.567 93.7544 281.457 93.7544 279.222V274.654H95.0354V279.052C95.0354 280.631 95.9035 281.443 97.2129 281.443C98.5508 281.443 99.4474 280.617 99.4474 278.938V274.654H100.743ZM102.502 280.318V275.721H101.492V274.654H102.502V272.69H103.798V274.654H105.833V275.721H103.798V280.318C103.798 281.087 104.082 281.357 104.879 281.357H105.833V282.453H104.666C103.285 282.453 102.502 281.884 102.502 280.318ZM109.651 280.973L112.07 274.654H113.408L108.711 286.125H107.374L108.911 282.368L105.765 274.654H107.203L109.651 280.973ZM116.597 278.525C116.597 276.091 118.205 274.526 120.298 274.526C121.749 274.526 122.746 275.266 123.201 276.077V274.654H124.51V282.453H123.201V281.001C122.731 281.841 121.721 282.581 120.283 282.581C118.205 282.581 116.597 280.944 116.597 278.525ZM123.201 278.539C123.201 276.732 121.977 275.65 120.554 275.65C119.131 275.65 117.921 276.689 117.921 278.525C117.921 280.361 119.131 281.443 120.554 281.443C121.977 281.443 123.201 280.375 123.201 278.539ZM131.695 282.453V278.041C131.695 276.447 130.826 275.636 129.517 275.636C128.194 275.636 127.283 276.461 127.283 278.141V282.453H125.987V274.654H127.283V275.764C127.795 274.953 128.734 274.511 129.788 274.511C131.595 274.511 132.976 275.622 132.976 277.856V282.453H131.695ZM133.896 278.525C133.896 276.091 135.504 274.526 137.61 274.526C138.834 274.526 139.959 275.152 140.5 276.049V271.921H141.809V282.453H140.5V280.987C140.03 281.855 139.019 282.581 137.596 282.581C135.504 282.581 133.896 280.944 133.896 278.525ZM140.5 278.539C140.5 276.732 139.276 275.65 137.852 275.65C136.429 275.65 135.219 276.689 135.219 278.525C135.219 280.361 136.429 281.443 137.852 281.443C139.276 281.443 140.5 280.375 140.5 278.539ZM148.375 282.467L145.6 272.533H146.981L149.144 280.944L151.535 272.533H152.987L155.264 280.916L157.442 272.533H158.836L155.961 282.453H154.51L152.204 274.469L149.813 282.453L148.375 282.467ZM162.858 275.622C161.591 275.622 160.538 276.461 160.396 277.984H165.32C165.335 276.461 164.196 275.622 162.858 275.622ZM166.502 280.048C166.103 281.471 164.851 282.581 162.915 282.581C160.695 282.581 159.058 281.016 159.058 278.539C159.058 276.077 160.638 274.526 162.915 274.526C165.178 274.526 166.658 276.12 166.658 278.255C166.658 278.539 166.644 278.767 166.616 279.037H160.382C160.481 280.617 161.591 281.485 162.915 281.485C164.082 281.485 164.822 280.888 165.107 280.048H166.502ZM167.656 282.453V271.921H168.951V282.453H167.656ZM170.447 282.453V271.921H171.742V282.453H170.447ZM178.945 282.453V278.041C178.945 276.447 178.077 275.636 176.768 275.636C175.444 275.636 174.533 276.461 174.533 278.141V282.453H173.238V274.654H174.533V275.764C175.045 274.953 175.985 274.511 177.038 274.511C178.845 274.511 180.226 275.622 180.226 277.856V282.453H178.945ZM184.946 275.622C183.679 275.622 182.626 276.461 182.484 277.984H187.408C187.423 276.461 186.284 275.622 184.946 275.622ZM188.59 280.048C188.191 281.471 186.939 282.581 185.003 282.581C182.783 282.581 181.146 281.016 181.146 278.539C181.146 276.077 182.726 274.526 185.003 274.526C187.266 274.526 188.746 276.12 188.746 278.255C188.746 278.539 188.732 278.767 188.704 279.037H182.47C182.569 280.617 183.679 281.485 185.003 281.485C186.17 281.485 186.91 280.888 187.195 280.048H188.59ZM195.352 280.332C195.352 281.613 194.227 282.581 192.505 282.581C190.683 282.581 189.403 281.585 189.317 280.162H190.655C190.726 280.916 191.395 281.485 192.491 281.485C193.516 281.485 194.085 280.973 194.085 280.332C194.085 278.596 189.474 279.607 189.474 276.703C189.474 275.508 190.598 274.526 192.334 274.526C194.057 274.526 195.195 275.451 195.281 276.974H193.985C193.928 276.191 193.331 275.622 192.292 275.622C191.338 275.622 190.769 276.077 190.769 276.703C190.769 278.553 195.295 277.543 195.352 280.332ZM202.076 280.332C202.076 281.613 200.952 282.581 199.229 282.581C197.408 282.581 196.127 281.585 196.041 280.162H197.379C197.45 280.916 198.119 281.485 199.215 281.485C200.24 281.485 200.809 280.973 200.809 280.332C200.809 278.596 196.198 279.607 196.198 276.703C196.198 275.508 197.322 274.526 199.059 274.526C200.781 274.526 201.919 275.451 202.005 276.974H200.71C200.653 276.191 200.055 275.622 199.016 275.622C198.062 275.622 197.493 276.077 197.493 276.703C197.493 278.553 202.019 277.543 202.076 280.332ZM205.791 277.486C205.791 274.511 207.969 272.405 210.744 272.405C212.893 272.405 214.601 273.487 215.341 275.408H213.79C213.249 274.213 212.196 273.544 210.744 273.544C208.666 273.544 207.115 275.052 207.115 277.486C207.115 279.906 208.666 281.414 210.744 281.414C212.196 281.414 213.249 280.745 213.79 279.564H215.341C214.601 281.471 212.893 282.539 210.744 282.539C207.969 282.539 205.791 280.461 205.791 277.486ZM223.959 278.539C223.959 281.016 222.18 282.581 219.959 282.581C217.753 282.581 216.074 281.016 216.074 278.539C216.074 276.077 217.81 274.526 220.016 274.526C222.236 274.526 223.959 276.077 223.959 278.539ZM217.397 278.539C217.397 280.518 218.607 281.443 219.959 281.443C221.311 281.443 222.635 280.518 222.635 278.539C222.635 276.575 221.34 275.65 220.002 275.65C218.636 275.65 217.397 276.575 217.397 278.539ZM230.657 282.453V278.041C230.657 276.447 229.789 275.636 228.479 275.636C227.156 275.636 226.245 276.461 226.245 278.141V282.453H224.95V274.654H226.245V275.764C226.757 274.953 227.697 274.511 228.75 274.511C230.557 274.511 231.938 275.622 231.938 277.856V282.453H230.657ZM233.627 280.318V275.721H232.616V274.654H233.627V272.69H234.922V274.654H236.957V275.721H234.922V280.318C234.922 281.087 235.206 281.357 236.003 281.357H236.957V282.453H235.79C234.409 282.453 233.627 281.884 233.627 280.318ZM241.131 275.622C239.864 275.622 238.811 276.461 238.669 277.984H243.593C243.607 276.461 242.469 275.622 241.131 275.622ZM244.774 280.048C244.376 281.471 243.123 282.581 241.188 282.581C238.967 282.581 237.331 281.016 237.331 278.539C237.331 276.077 238.91 274.526 241.188 274.526C243.451 274.526 244.931 276.12 244.931 278.255C244.931 278.539 244.917 278.767 244.888 279.037H238.654C238.754 280.617 239.864 281.485 241.188 281.485C242.355 281.485 243.095 280.888 243.379 280.048H244.774ZM251.636 282.453V278.041C251.636 276.447 250.768 275.636 249.458 275.636C248.135 275.636 247.224 276.461 247.224 278.141V282.453H245.929V274.654H247.224V275.764C247.736 274.953 248.676 274.511 249.729 274.511C251.536 274.511 252.917 275.622 252.917 277.856V282.453H251.636ZM254.605 280.318V275.721H253.595V274.654H254.605V272.69H255.901V274.654H257.936V275.721H255.901V280.318C255.901 281.087 256.185 281.357 256.982 281.357H257.936V282.453H256.769C255.388 282.453 254.605 281.884 254.605 280.318ZM75.2356 315.749C75.2356 317.158 74.0827 318.553 71.9336 318.553C69.9411 318.553 68.5321 317.443 68.5036 315.806H69.8842C69.9696 316.631 70.5531 317.457 71.9336 317.457C73.1861 317.457 73.9262 316.745 73.9262 315.806C73.9262 313.13 68.5606 314.838 68.5606 311.152C68.5606 309.515 69.8842 308.405 71.8482 308.405C73.7411 308.405 74.9794 309.444 75.1359 310.953H73.7127C73.6273 310.284 73.0011 309.529 71.7913 309.515C70.7239 309.487 69.8842 310.042 69.8842 311.109C69.8842 313.671 75.2356 312.077 75.2356 315.749ZM76.7145 316.318V311.721H75.704V310.654H76.7145V308.69H78.0096V310.654H80.0449V311.721H78.0096V316.318C78.0096 317.087 78.2943 317.357 79.0913 317.357H80.0449V318.453H78.8778C77.4973 318.453 76.7145 317.884 76.7145 316.318ZM88.3033 314.539C88.3033 317.016 86.5243 318.581 84.304 318.581C82.098 318.581 80.4186 317.016 80.4186 314.539C80.4186 312.077 82.1549 310.526 84.361 310.526C86.5812 310.526 88.3033 312.077 88.3033 314.539ZM81.7422 314.539C81.7422 316.518 82.952 317.443 84.304 317.443C85.6561 317.443 86.9797 316.518 86.9797 314.539C86.9797 312.575 85.6846 311.65 84.3467 311.65C82.9804 311.65 81.7422 312.575 81.7422 314.539ZM90.5897 314.212V318.453H89.2946V310.654H90.5897V311.92C91.0309 311.052 91.8707 310.511 93.1089 310.511V311.849H92.7673C91.5291 311.849 90.5897 312.404 90.5897 314.212ZM97.2085 311.622C95.9418 311.622 94.8886 312.461 94.7463 313.984H99.6707C99.6849 312.461 98.5463 311.622 97.2085 311.622ZM100.852 316.048C100.453 317.471 99.201 318.581 97.2654 318.581C95.0451 318.581 93.4084 317.016 93.4084 314.539C93.4084 312.077 94.9882 310.526 97.2654 310.526C99.5284 310.526 101.009 312.12 101.009 314.255C101.009 314.539 100.994 314.767 100.966 315.037H94.732C94.8317 316.617 95.9418 317.485 97.2654 317.485C98.4325 317.485 99.1725 316.888 99.4572 316.048H100.852ZM105.089 308.533H106.384V317.4H109.857V318.453H105.089V308.533ZM117.922 314.539C117.922 317.016 116.143 318.581 113.922 318.581C111.716 318.581 110.037 317.016 110.037 314.539C110.037 312.077 111.773 310.526 113.979 310.526C116.2 310.526 117.922 312.077 117.922 314.539ZM111.361 314.539C111.361 316.518 112.57 317.443 113.922 317.443C115.274 317.443 116.598 316.518 116.598 314.539C116.598 312.575 115.303 311.65 113.965 311.65C112.599 311.65 111.361 312.575 111.361 314.539ZM118.429 314.539C118.429 312.091 120.009 310.526 122.229 310.526C124.165 310.526 125.431 311.522 125.83 313.159H124.435C124.165 312.219 123.382 311.622 122.229 311.622C120.806 311.622 119.753 312.632 119.753 314.539C119.753 316.475 120.806 317.485 122.229 317.485C123.382 317.485 124.15 316.93 124.435 315.948H125.83C125.431 317.5 124.165 318.581 122.229 318.581C120.009 318.581 118.429 317.016 118.429 314.539ZM126.363 314.525C126.363 312.091 127.971 310.526 130.063 310.526C131.515 310.526 132.511 311.266 132.966 312.077V310.654H134.276V318.453H132.966V317.001C132.497 317.841 131.486 318.581 130.049 318.581C127.971 318.581 126.363 316.944 126.363 314.525ZM132.966 314.539C132.966 312.732 131.742 311.65 130.319 311.65C128.896 311.65 127.686 312.689 127.686 314.525C127.686 316.361 128.896 317.443 130.319 317.443C131.742 317.443 132.966 316.375 132.966 314.539ZM136.037 316.318V311.721H135.027V310.654H136.037V308.69H137.333V310.654H139.368V311.721H137.333V316.318C137.333 317.087 137.617 317.357 138.414 317.357H139.368V318.453H138.201C136.82 318.453 136.037 317.884 136.037 316.318ZM147.626 314.539C147.626 317.016 145.847 318.581 143.627 318.581C141.421 318.581 139.742 317.016 139.742 314.539C139.742 312.077 141.478 310.526 143.684 310.526C145.904 310.526 147.626 312.077 147.626 314.539ZM141.065 314.539C141.065 316.518 142.275 317.443 143.627 317.443C144.979 317.443 146.303 316.518 146.303 314.539C146.303 312.575 145.008 311.65 143.67 311.65C142.303 311.65 141.065 312.575 141.065 314.539ZM149.913 314.212V318.453H148.618V310.654H149.913V311.92C150.354 311.052 151.194 310.511 152.432 310.511V311.849H152.09C150.852 311.849 149.913 312.404 149.913 314.212ZM155.814 314.525C155.814 312.091 157.422 310.526 159.515 310.526C160.966 310.526 161.963 311.266 162.418 312.077V310.654H163.727V318.453H162.418V317.001C161.948 317.841 160.938 318.581 159.5 318.581C157.422 318.581 155.814 316.944 155.814 314.525ZM162.418 314.539C162.418 312.732 161.194 311.65 159.771 311.65C158.347 311.65 157.138 312.689 157.138 314.525C157.138 316.361 158.347 317.443 159.771 317.443C161.194 317.443 162.418 316.375 162.418 314.539ZM170.912 318.453V314.041C170.912 312.447 170.043 311.636 168.734 311.636C167.41 311.636 166.5 312.461 166.5 314.141V318.453H165.204V310.654H166.5V311.764C167.012 310.953 167.951 310.511 169.004 310.511C170.812 310.511 172.192 311.622 172.192 313.856V318.453H170.912ZM173.113 314.525C173.113 312.091 174.721 310.526 176.827 310.526C178.051 310.526 179.176 311.152 179.716 312.049V307.921H181.026V318.453H179.716V316.987C179.247 317.855 178.236 318.581 176.813 318.581C174.721 318.581 173.113 316.944 173.113 314.525ZM179.716 314.539C179.716 312.732 178.492 311.65 177.069 311.65C175.646 311.65 174.436 312.689 174.436 314.525C174.436 316.361 175.646 317.443 177.069 317.443C178.492 317.443 179.716 316.375 179.716 314.539ZM191.222 315.664C191.222 314.568 190.396 313.885 189.129 313.885H186.881V317.386H189.172C190.453 317.386 191.222 316.745 191.222 315.664ZM190.965 311.209C190.965 310.227 190.297 309.601 189.03 309.601H186.881V312.817H189.058C190.268 312.817 190.965 312.219 190.965 311.209ZM192.517 315.792C192.517 317.286 191.336 318.453 189.286 318.453H185.586V308.533H189.144C191.236 308.533 192.289 309.672 192.289 311.052C192.289 312.305 191.506 313.031 190.553 313.344C191.634 313.529 192.517 314.568 192.517 315.792ZM201.003 314.539C201.003 317.016 199.224 318.581 197.004 318.581C194.798 318.581 193.119 317.016 193.119 314.539C193.119 312.077 194.855 310.526 197.061 310.526C199.281 310.526 201.003 312.077 201.003 314.539ZM194.442 314.539C194.442 316.518 195.652 317.443 197.004 317.443C198.356 317.443 199.68 316.518 199.68 314.539C199.68 312.575 198.385 311.65 197.047 311.65C195.68 311.65 194.442 312.575 194.442 314.539ZM209.395 314.539C209.395 317.016 207.616 318.581 205.396 318.581C203.19 318.581 201.511 317.016 201.511 314.539C201.511 312.077 203.247 310.526 205.453 310.526C207.673 310.526 209.395 312.077 209.395 314.539ZM202.834 314.539C202.834 316.518 204.044 317.443 205.396 317.443C206.748 317.443 208.072 316.518 208.072 314.539C208.072 312.575 206.777 311.65 205.439 311.65C204.072 311.65 202.834 312.575 202.834 314.539ZM210.387 318.453V307.921H211.682V314.112L214.685 310.654H216.492L212.82 314.539L216.507 318.453H214.742L211.682 315.009V318.453H210.387ZM217 318.453V310.654H218.295V318.453H217ZM217.669 309.387C217.171 309.387 216.786 309.003 216.786 308.505C216.786 308.007 217.171 307.622 217.669 307.622C218.138 307.622 218.523 308.007 218.523 308.505C218.523 309.003 218.138 309.387 217.669 309.387ZM225.498 318.453V314.041C225.498 312.447 224.63 311.636 223.32 311.636C221.997 311.636 221.086 312.461 221.086 314.141V318.453H219.791V310.654H221.086V311.764C221.598 310.953 222.537 310.511 223.591 310.511C225.398 310.511 226.779 311.622 226.779 313.856V318.453H225.498ZM227.699 314.525C227.699 312.091 229.307 310.526 231.399 310.526C232.822 310.526 233.847 311.237 234.303 312.077V310.654H235.612V318.624C235.612 320.773 234.175 322.296 231.883 322.296C229.834 322.296 228.368 321.257 228.112 319.592H229.392C229.677 320.531 230.602 321.172 231.883 321.172C233.264 321.172 234.303 320.289 234.303 318.624V316.987C233.833 317.827 232.822 318.581 231.399 318.581C229.307 318.581 227.699 316.944 227.699 314.525ZM234.303 314.539C234.303 312.732 233.079 311.65 231.655 311.65C230.232 311.65 229.022 312.689 229.022 314.525C229.022 316.361 230.232 317.443 231.655 317.443C233.079 317.443 234.303 316.375 234.303 314.539ZM246.619 315.749C246.619 317.158 245.466 318.553 243.317 318.553C241.325 318.553 239.916 317.443 239.887 315.806H241.268C241.353 316.631 241.937 317.457 243.317 317.457C244.57 317.457 245.31 316.745 245.31 315.806C245.31 313.13 239.944 314.838 239.944 311.152C239.944 309.515 241.268 308.405 243.232 308.405C245.125 308.405 246.363 309.444 246.519 310.953H245.096C245.011 310.284 244.385 309.529 243.175 309.515C242.107 309.487 241.268 310.042 241.268 311.109C241.268 313.671 246.619 312.077 246.619 315.749ZM250.774 316.973L253.193 310.654H254.531L249.834 322.125H248.497L250.034 318.368L246.888 310.654H248.326L250.774 316.973ZM260.729 316.332C260.729 317.613 259.605 318.581 257.883 318.581C256.061 318.581 254.78 317.585 254.694 316.162H256.032C256.103 316.916 256.772 317.485 257.868 317.485C258.893 317.485 259.462 316.973 259.462 316.332C259.462 314.596 254.851 315.607 254.851 312.703C254.851 311.508 255.975 310.526 257.712 310.526C259.434 310.526 260.572 311.451 260.658 312.974H259.363C259.306 312.191 258.708 311.622 257.669 311.622C256.715 311.622 256.146 312.077 256.146 312.703C256.146 314.553 260.672 313.543 260.729 316.332ZM262.13 316.318V311.721H261.12V310.654H262.13V308.69H263.425V310.654H265.461V311.721H263.425V316.318C263.425 317.087 263.71 317.357 264.507 317.357H265.461V318.453H264.294C262.913 318.453 262.13 317.884 262.13 316.318ZM269.634 311.622C268.368 311.622 267.315 312.461 267.172 313.984H272.097C272.111 312.461 270.972 311.622 269.634 311.622ZM273.278 316.048C272.879 317.471 271.627 318.581 269.691 318.581C267.471 318.581 265.834 317.016 265.834 314.539C265.834 312.077 267.414 310.526 269.691 310.526C271.954 310.526 273.435 312.12 273.435 314.255C273.435 314.539 273.42 314.767 273.392 315.037H267.158C267.258 316.617 268.368 317.485 269.691 317.485C270.858 317.485 271.599 316.888 271.883 316.048H273.278ZM285.69 318.453V314.041C285.69 312.447 284.836 311.636 283.555 311.636C282.246 311.636 281.349 312.476 281.349 314.155V318.453H280.068V314.041C280.068 312.447 279.215 311.636 277.934 311.636C276.624 311.636 275.728 312.476 275.728 314.155V318.453H274.432V310.654H275.728V311.778C276.24 310.953 277.165 310.511 278.19 310.511C279.471 310.511 280.538 311.081 281.051 312.248C281.506 311.123 282.616 310.511 283.812 310.511C285.591 310.511 286.971 311.622 286.971 313.856V318.453H285.69ZM75.2356 351.749C75.2356 353.158 74.0827 354.553 71.9336 354.553C69.9411 354.553 68.5321 353.443 68.5036 351.806H69.8842C69.9696 352.631 70.5531 353.457 71.9336 353.457C73.1861 353.457 73.9262 352.745 73.9262 351.806C73.9262 349.13 68.5606 350.838 68.5606 347.152C68.5606 345.515 69.8842 344.405 71.8482 344.405C73.7411 344.405 74.9794 345.444 75.1359 346.953H73.7127C73.6273 346.284 73.0011 345.529 71.7913 345.515C70.7239 345.487 69.8842 346.042 69.8842 347.109C69.8842 349.671 75.2356 348.077 75.2356 351.749ZM77.725 348.091C78.1947 347.266 79.2194 346.526 80.6426 346.526C82.7348 346.526 84.3431 348.091 84.3431 350.525C84.3431 352.944 82.7348 354.581 80.6426 354.581C79.2194 354.581 78.2089 353.813 77.725 353.016V358.154H76.4298V346.654H77.725V348.091ZM83.0194 350.525C83.0194 348.689 81.8097 347.65 80.3722 347.65C78.9632 347.65 77.725 348.732 77.725 350.539C77.725 352.375 78.9632 353.443 80.3722 353.443C81.8097 353.443 83.0194 352.361 83.0194 350.525ZM84.8523 350.525C84.8523 348.091 86.4606 346.526 88.5527 346.526C90.0044 346.526 91.0007 347.266 91.4561 348.077V346.654H92.7655V354.453H91.4561V353.001C90.9865 353.841 89.976 354.581 88.5385 354.581C86.4606 354.581 84.8523 352.944 84.8523 350.525ZM91.4561 350.539C91.4561 348.732 90.2322 347.65 88.8089 347.65C87.3857 347.65 86.1759 348.689 86.1759 350.525C86.1759 352.361 87.3857 353.443 88.8089 353.443C90.2322 353.443 91.4561 352.375 91.4561 350.539ZM101.823 344.419C103.915 344.419 105.651 345.501 106.391 347.408H104.84C104.299 346.255 103.218 345.586 101.823 345.586C99.7306 345.586 98.165 347.095 98.165 349.486C98.165 351.863 99.7306 353.371 101.823 353.371C103.773 353.371 105.11 352.119 105.31 350.155H101.353V349.102H106.69V350.098C106.463 352.56 104.513 354.539 101.823 354.539C99.0332 354.539 96.8414 352.461 96.8414 349.486C96.8414 346.511 99.0332 344.419 101.823 344.419ZM107.691 354.453V346.654H108.986V354.453H107.691ZM108.36 345.387C107.862 345.387 107.478 345.003 107.478 344.505C107.478 344.007 107.862 343.622 108.36 343.622C108.83 343.622 109.214 344.007 109.214 344.505C109.214 345.003 108.83 345.387 108.36 345.387ZM110.724 354.453V347.721H109.713V346.654H110.724V346.099C110.724 344.362 111.578 343.58 113.57 343.58V344.661C112.403 344.661 112.019 345.088 112.019 346.099V346.654H113.656V347.721H112.019V354.453H110.724ZM114.739 352.318V347.721H113.728V346.654H114.739V344.69H116.034V346.654H118.069V347.721H116.034V352.318C116.034 353.087 116.319 353.357 117.116 353.357H118.069V354.453H116.902C115.522 354.453 114.739 353.884 114.739 352.318ZM121.526 349.486C121.526 346.511 123.703 344.405 126.479 344.405C128.628 344.405 130.336 345.487 131.076 347.408H129.524C128.984 346.213 127.93 345.544 126.479 345.544C124.401 345.544 122.849 347.052 122.849 349.486C122.849 351.906 124.401 353.414 126.479 353.414C127.93 353.414 128.984 352.745 129.524 351.564H131.076C130.336 353.471 128.628 354.539 126.479 354.539C123.703 354.539 121.526 352.461 121.526 349.486ZM131.808 350.525C131.808 348.091 133.416 346.526 135.509 346.526C136.96 346.526 137.956 347.266 138.412 348.077V346.654H139.721V354.453H138.412V353.001C137.942 353.841 136.932 354.581 135.494 354.581C133.416 354.581 131.808 352.944 131.808 350.525ZM138.412 350.539C138.412 348.732 137.188 347.65 135.765 347.65C134.341 347.65 133.132 348.689 133.132 350.525C133.132 352.361 134.341 353.443 135.765 353.443C137.188 353.443 138.412 352.375 138.412 350.539ZM142.493 350.212V354.453H141.198V346.654H142.493V347.92C142.935 347.052 143.774 346.511 145.013 346.511V347.849H144.671C143.433 347.849 142.493 348.404 142.493 350.212ZM145.312 350.525C145.312 348.091 146.92 346.526 149.027 346.526C150.251 346.526 151.375 347.152 151.916 348.049V343.921H153.225V354.453H151.916V352.987C151.446 353.855 150.436 354.581 149.013 354.581C146.92 354.581 145.312 352.944 145.312 350.525ZM151.916 350.539C151.916 348.732 150.692 347.65 149.269 347.65C147.846 347.65 146.636 348.689 146.636 350.525C146.636 352.361 147.846 353.443 149.269 353.443C150.692 353.443 151.916 352.375 151.916 350.539ZM160.31 352.332C160.31 353.613 159.186 354.581 157.464 354.581C155.642 354.581 154.361 353.585 154.275 352.162H155.613C155.684 352.916 156.353 353.485 157.449 353.485C158.474 353.485 159.043 352.973 159.043 352.332C159.043 350.596 154.432 351.607 154.432 348.703C154.432 347.508 155.556 346.526 157.293 346.526C159.015 346.526 160.153 347.451 160.239 348.974H158.944C158.887 348.191 158.289 347.622 157.25 347.622C156.296 347.622 155.727 348.077 155.727 348.703C155.727 350.553 160.253 349.543 160.31 352.332ZM164.026 350.525C164.026 348.091 165.634 346.526 167.726 346.526C169.178 346.526 170.174 347.266 170.629 348.077V346.654H171.939V354.453H170.629V353.001C170.16 353.841 169.149 354.581 167.712 354.581C165.634 354.581 164.026 352.944 164.026 350.525ZM170.629 350.539C170.629 348.732 169.405 347.65 167.982 347.65C166.559 347.65 165.349 348.689 165.349 350.525C165.349 352.361 166.559 353.443 167.982 353.443C169.405 353.443 170.629 352.375 170.629 350.539ZM179.123 354.453V350.041C179.123 348.447 178.255 347.636 176.945 347.636C175.622 347.636 174.711 348.461 174.711 350.141V354.453H173.416V346.654H174.711V347.764C175.223 346.953 176.163 346.511 177.216 346.511C179.023 346.511 180.404 347.622 180.404 349.856V354.453H179.123ZM181.324 350.525C181.324 348.091 182.932 346.526 185.039 346.526C186.263 346.526 187.387 347.152 187.928 348.049V343.921H189.237V354.453H187.928V352.987C187.458 353.855 186.448 354.581 185.024 354.581C182.932 354.581 181.324 352.944 181.324 350.525ZM187.928 350.539C187.928 348.732 186.704 347.65 185.281 347.65C183.857 347.65 182.648 348.689 182.648 350.525C182.648 352.361 183.857 353.443 185.281 353.443C186.704 353.443 187.928 352.375 187.928 350.539ZM195.092 349.244H196.999C198.479 349.244 199.106 348.547 199.106 347.437C199.106 346.284 198.479 345.601 196.999 345.601H195.092V349.244ZM200.429 347.437C200.429 348.945 199.462 350.311 196.999 350.311H195.092V354.453H193.797V344.533H196.999C199.333 344.533 200.429 345.814 200.429 347.437ZM200.844 350.525C200.844 348.091 202.452 346.526 204.544 346.526C205.996 346.526 206.992 347.266 207.447 348.077V346.654H208.757V354.453H207.447V353.001C206.978 353.841 205.967 354.581 204.53 354.581C202.452 354.581 200.844 352.944 200.844 350.525ZM207.447 350.539C207.447 348.732 206.223 347.65 204.8 347.65C203.377 347.65 202.167 348.689 202.167 350.525C202.167 352.361 203.377 353.443 204.8 353.443C206.223 353.443 207.447 352.375 207.447 350.539ZM209.75 350.539C209.75 348.091 211.33 346.526 213.55 346.526C215.486 346.526 216.752 347.522 217.151 349.159H215.756C215.486 348.219 214.703 347.622 213.55 347.622C212.127 347.622 211.073 348.632 211.073 350.539C211.073 352.475 212.127 353.485 213.55 353.485C214.703 353.485 215.471 352.93 215.756 351.948H217.151C216.752 353.5 215.486 354.581 213.55 354.581C211.33 354.581 209.75 353.016 209.75 350.539ZM218.167 354.453V343.921H219.462V350.112L222.465 346.654H224.273L220.601 350.539L224.287 354.453H222.522L219.462 351.009V354.453H218.167ZM224.296 350.525C224.296 348.091 225.905 346.526 227.997 346.526C229.449 346.526 230.445 347.266 230.9 348.077V346.654H232.21V354.453H230.9V353.001C230.431 353.841 229.42 354.581 227.983 354.581C225.905 354.581 224.296 352.944 224.296 350.525ZM230.9 350.539C230.9 348.732 229.676 347.65 228.253 347.65C226.83 347.65 225.62 348.689 225.62 350.525C225.62 352.361 226.83 353.443 228.253 353.443C229.676 353.443 230.9 352.375 230.9 350.539ZM233.203 350.525C233.203 348.091 234.811 346.526 236.903 346.526C238.326 346.526 239.351 347.237 239.807 348.077V346.654H241.116V354.624C241.116 356.773 239.678 358.296 237.387 358.296C235.338 358.296 233.872 357.257 233.615 355.592H234.896C235.181 356.531 236.106 357.172 237.387 357.172C238.768 357.172 239.807 356.289 239.807 354.624V352.987C239.337 353.827 238.326 354.581 236.903 354.581C234.811 354.581 233.203 352.944 233.203 350.525ZM239.807 350.539C239.807 348.732 238.583 347.65 237.159 347.65C235.736 347.65 234.526 348.689 234.526 350.525C234.526 352.361 235.736 353.443 237.159 353.443C238.583 353.443 239.807 352.375 239.807 350.539ZM245.909 347.622C244.642 347.622 243.589 348.461 243.447 349.984H248.371C248.386 348.461 247.247 347.622 245.909 347.622ZM249.553 352.048C249.154 353.471 247.902 354.581 245.966 354.581C243.746 354.581 242.109 353.016 242.109 350.539C242.109 348.077 243.689 346.526 245.966 346.526C248.229 346.526 249.709 348.12 249.709 350.255C249.709 350.539 249.695 350.767 249.667 351.037H243.433C243.532 352.617 244.642 353.485 245.966 353.485C247.133 353.485 247.873 352.888 248.158 352.048H249.553ZM256.315 352.332C256.315 353.613 255.19 354.581 253.468 354.581C251.646 354.581 250.366 353.585 250.28 352.162H251.618C251.689 352.916 252.358 353.485 253.454 353.485C254.479 353.485 255.048 352.973 255.048 352.332C255.048 350.596 250.437 351.607 250.437 348.703C250.437 347.508 251.561 346.526 253.297 346.526C255.02 346.526 256.158 347.451 256.244 348.974H254.948C254.891 348.191 254.294 347.622 253.255 347.622C252.301 347.622 251.732 348.077 251.732 348.703C251.732 350.553 256.258 349.543 256.315 352.332ZM75.1359 390.453V385.956H70.0834V390.453H68.7883V380.533H70.0834V384.888H75.1359V380.533H76.4311V390.453H75.1359ZM85.3179 386.539C85.3179 389.016 83.5388 390.581 81.3186 390.581C79.1125 390.581 77.4331 389.016 77.4331 386.539C77.4331 384.077 79.1695 382.526 81.3755 382.526C83.5957 382.526 85.3179 384.077 85.3179 386.539ZM78.7567 386.539C78.7567 388.518 79.9665 389.443 81.3186 389.443C82.6706 389.443 83.9943 388.518 83.9943 386.539C83.9943 384.575 82.6991 383.65 81.3613 383.65C79.995 383.65 78.7567 384.575 78.7567 386.539ZM86.3091 390.453V379.921H87.6043V390.453H86.3091ZM89.1 390.453V382.654H90.3952V390.453H89.1ZM89.7689 381.387C89.2708 381.387 88.8865 381.003 88.8865 380.505C88.8865 380.007 89.2708 379.622 89.7689 379.622C90.2386 379.622 90.6229 380.007 90.6229 380.505C90.6229 381.003 90.2386 381.387 89.7689 381.387ZM97.4985 388.332C97.4985 389.613 96.3741 390.581 94.652 390.581C92.8302 390.581 91.5493 389.585 91.4639 388.162H92.8018C92.8729 388.916 93.5419 389.485 94.6377 389.485C95.6625 389.485 96.2318 388.973 96.2318 388.332C96.2318 386.596 91.6205 387.607 91.6205 384.703C91.6205 383.508 92.7448 382.526 94.4812 382.526C96.2033 382.526 97.3419 383.451 97.4273 384.974H96.1321C96.0752 384.191 95.4775 383.622 94.4385 383.622C93.4849 383.622 92.9156 384.077 92.9156 384.703C92.9156 386.553 97.4415 385.543 97.4985 388.332ZM98.8998 388.318V383.721H97.8893V382.654H98.8998V380.69H100.195V382.654H102.23V383.721H100.195V388.318C100.195 389.087 100.48 389.357 101.277 389.357H102.23V390.453H101.063C99.6826 390.453 98.8998 389.884 98.8998 388.318ZM103.088 390.453V382.654H104.383V390.453H103.088ZM103.757 381.387C103.259 381.387 102.874 381.003 102.874 380.505C102.874 380.007 103.259 379.622 103.757 379.622C104.226 379.622 104.611 380.007 104.611 380.505C104.611 381.003 104.226 381.387 103.757 381.387ZM105.395 386.539C105.395 384.091 106.975 382.526 109.195 382.526C111.13 382.526 112.397 383.522 112.796 385.159H111.401C111.13 384.219 110.348 383.622 109.195 383.622C107.772 383.622 106.718 384.632 106.718 386.539C106.718 388.475 107.772 389.485 109.195 389.485C110.348 389.485 111.116 388.93 111.401 387.948H112.796C112.397 389.5 111.13 390.581 109.195 390.581C106.975 390.581 105.395 389.016 105.395 386.539ZM116.283 381.586V380.533H123.001V381.586H120.296V390.453H119.001V381.586H116.283ZM123.883 390.453V379.921H125.178V383.778C125.691 382.953 126.659 382.511 127.754 382.511C129.491 382.511 130.871 383.622 130.871 385.856V390.453H129.59V386.041C129.59 384.447 128.722 383.636 127.413 383.636C126.089 383.636 125.178 384.461 125.178 386.141V390.453H123.883ZM135.591 383.622C134.325 383.622 133.272 384.461 133.129 385.984H138.054C138.068 384.461 136.929 383.622 135.591 383.622ZM139.235 388.048C138.836 389.471 137.584 390.581 135.648 390.581C133.428 390.581 131.791 389.016 131.791 386.539C131.791 384.077 133.371 382.526 135.648 382.526C137.911 382.526 139.392 384.12 139.392 386.255C139.392 386.539 139.377 386.767 139.349 387.037H133.115C133.215 388.617 134.325 389.485 135.648 389.485C136.815 389.485 137.556 388.888 137.84 388.048H139.235ZM141.685 386.212V390.453H140.389V382.654H141.685V383.92C142.126 383.052 142.965 382.511 144.204 382.511V383.849H143.862C142.624 383.849 141.685 384.404 141.685 386.212ZM144.503 386.525C144.503 384.091 146.112 382.526 148.204 382.526C149.655 382.526 150.652 383.266 151.107 384.077V382.654H152.416V390.453H151.107V389.001C150.637 389.841 149.627 390.581 148.189 390.581C146.112 390.581 144.503 388.944 144.503 386.525ZM151.107 386.539C151.107 384.732 149.883 383.65 148.46 383.65C147.037 383.65 145.827 384.689 145.827 386.525C145.827 388.361 147.037 389.443 148.46 389.443C149.883 389.443 151.107 388.375 151.107 386.539ZM155.189 384.091C155.658 383.266 156.683 382.526 158.106 382.526C160.198 382.526 161.807 384.091 161.807 386.525C161.807 388.944 160.198 390.581 158.106 390.581C156.683 390.581 155.673 389.813 155.189 389.016V394.154H153.894V382.654H155.189V384.091ZM160.483 386.525C160.483 384.689 159.273 383.65 157.836 383.65C156.427 383.65 155.189 384.732 155.189 386.539C155.189 388.375 156.427 389.443 157.836 389.443C159.273 389.443 160.483 388.361 160.483 386.525ZM165.76 388.973L168.18 382.654H169.518L164.821 394.125H163.483L165.02 390.368L161.875 382.654H163.312L165.76 388.973ZM179.638 387.749C179.638 389.158 178.485 390.553 176.336 390.553C174.343 390.553 172.934 389.443 172.906 387.806H174.287C174.372 388.631 174.955 389.457 176.336 389.457C177.588 389.457 178.329 388.745 178.329 387.806C178.329 385.13 172.963 386.838 172.963 383.152C172.963 381.515 174.287 380.405 176.251 380.405C178.144 380.405 179.382 381.444 179.538 382.953H178.115C178.03 382.284 177.403 381.529 176.194 381.515C175.126 381.487 174.287 382.042 174.287 383.109C174.287 385.671 179.638 384.077 179.638 387.749ZM184.148 383.622C182.882 383.622 181.828 384.461 181.686 385.984H186.611C186.625 384.461 185.486 383.622 184.148 383.622ZM187.792 388.048C187.393 389.471 186.141 390.581 184.205 390.581C181.985 390.581 180.348 389.016 180.348 386.539C180.348 384.077 181.928 382.526 184.205 382.526C186.468 382.526 187.948 384.12 187.948 386.255C187.948 386.539 187.934 386.767 187.906 387.037H181.672C181.772 388.617 182.882 389.485 184.205 389.485C185.372 389.485 186.112 388.888 186.397 388.048H187.792ZM194.554 388.332C194.554 389.613 193.43 390.581 191.707 390.581C189.886 390.581 188.605 389.585 188.519 388.162H189.857C189.928 388.916 190.597 389.485 191.693 389.485C192.718 389.485 193.287 388.973 193.287 388.332C193.287 386.596 188.676 387.607 188.676 384.703C188.676 383.508 189.8 382.526 191.537 382.526C193.259 382.526 194.397 383.451 194.483 384.974H193.188C193.131 384.191 192.533 383.622 191.494 383.622C190.54 383.622 189.971 384.077 189.971 384.703C189.971 386.553 194.497 385.543 194.554 388.332ZM201.278 388.332C201.278 389.613 200.154 390.581 198.432 390.581C196.61 390.581 195.329 389.585 195.244 388.162H196.581C196.653 388.916 197.322 389.485 198.417 389.485C199.442 389.485 200.011 388.973 200.011 388.332C200.011 386.596 195.4 387.607 195.4 384.703C195.4 383.508 196.525 382.526 198.261 382.526C199.983 382.526 201.122 383.451 201.207 384.974H199.912C199.855 384.191 199.257 383.622 198.218 383.622C197.265 383.622 196.695 384.077 196.695 384.703C196.695 386.553 201.221 385.543 201.278 388.332ZM202.395 390.453V382.654H203.69V390.453H202.395ZM203.064 381.387C202.566 381.387 202.181 381.003 202.181 380.505C202.181 380.007 202.566 379.622 203.064 379.622C203.533 379.622 203.918 380.007 203.918 380.505C203.918 381.003 203.533 381.387 203.064 381.387ZM212.587 386.539C212.587 389.016 210.808 390.581 208.587 390.581C206.381 390.581 204.702 389.016 204.702 386.539C204.702 384.077 206.438 382.526 208.644 382.526C210.864 382.526 212.587 384.077 212.587 386.539ZM206.025 386.539C206.025 388.518 207.235 389.443 208.587 389.443C209.939 389.443 211.263 388.518 211.263 386.539C211.263 384.575 209.968 383.65 208.63 383.65C207.264 383.65 206.025 384.575 206.025 386.539ZM219.285 390.453V386.041C219.285 384.447 218.417 383.636 217.107 383.636C215.784 383.636 214.873 384.461 214.873 386.141V390.453H213.578V382.654H214.873V383.764C215.385 382.953 216.325 382.511 217.378 382.511C219.185 382.511 220.566 383.622 220.566 385.856V390.453H219.285ZM227.578 388.332C227.578 389.613 226.453 390.581 224.731 390.581C222.909 390.581 221.628 389.585 221.543 388.162H222.881C222.952 388.916 223.621 389.485 224.717 389.485C225.742 389.485 226.311 388.973 226.311 388.332C226.311 386.596 221.7 387.607 221.7 384.703C221.7 383.508 222.824 382.526 224.56 382.526C226.282 382.526 227.421 383.451 227.506 384.974H226.211C226.154 384.191 225.557 383.622 224.518 383.622C223.564 383.622 222.995 384.077 222.995 384.703C222.995 386.553 227.521 385.543 227.578 388.332ZM75.2356 423.749C75.2356 425.158 74.0827 426.553 71.9336 426.553C69.9411 426.553 68.5321 425.443 68.5036 423.806H69.8842C69.9696 424.631 70.5531 425.457 71.9336 425.457C73.1861 425.457 73.9262 424.745 73.9262 423.806C73.9262 421.13 68.5606 422.838 68.5606 419.152C68.5606 417.515 69.8842 416.405 71.8482 416.405C73.7411 416.405 74.9794 417.444 75.1359 418.953H73.7127C73.6273 418.284 73.0011 417.529 71.7913 417.515C70.7239 417.487 69.8842 418.042 69.8842 419.109C69.8842 421.671 75.2356 420.077 75.2356 423.749ZM79.746 419.622C78.4793 419.622 77.4261 420.461 77.2838 421.984H82.2082C82.2224 420.461 81.0838 419.622 79.746 419.622ZM83.3895 424.048C82.991 425.471 81.7385 426.581 79.8029 426.581C77.5827 426.581 75.9459 425.016 75.9459 422.539C75.9459 420.077 77.5257 418.526 79.8029 418.526C82.0659 418.526 83.546 420.12 83.546 422.255C83.546 422.539 83.5318 422.767 83.5033 423.037H77.2696C77.3692 424.617 78.4793 425.485 79.8029 425.485C80.97 425.485 81.7101 424.888 81.9947 424.048H83.3895ZM84.544 426.453V415.921H85.8391V426.453H84.544ZM87.5768 426.453V419.721H86.5663V418.654H87.5768V418.099C87.5768 416.362 88.4308 415.58 90.4233 415.58V416.661C89.2562 416.661 88.872 417.088 88.872 418.099V418.654H90.5087V419.721H88.872V426.453H87.5768ZM91.0367 421.785V420.689H96.7155V421.785H91.0367ZM97.9506 421.486C97.9506 418.511 100.128 416.405 102.903 416.405C105.053 416.405 106.76 417.487 107.5 419.408H105.949C105.408 418.213 104.355 417.544 102.903 417.544C100.826 417.544 99.2742 419.052 99.2742 421.486C99.2742 423.906 100.826 425.414 102.903 425.414C104.355 425.414 105.408 424.745 105.949 423.564H107.5C106.76 425.471 105.053 426.539 102.903 426.539C100.128 426.539 97.9506 424.461 97.9506 421.486ZM108.233 422.525C108.233 420.091 109.841 418.526 111.933 418.526C113.385 418.526 114.381 419.266 114.837 420.077V418.654H116.146V426.453H114.837V425.001C114.367 425.841 113.357 426.581 111.919 426.581C109.841 426.581 108.233 424.944 108.233 422.525ZM114.837 422.539C114.837 420.732 113.613 419.65 112.19 419.65C110.766 419.65 109.557 420.689 109.557 422.525C109.557 424.361 110.766 425.443 112.19 425.443C113.613 425.443 114.837 424.375 114.837 422.539ZM118.918 422.212V426.453H117.623V418.654H118.918V419.92C119.36 419.052 120.199 418.511 121.437 418.511V419.849H121.096C119.858 419.849 118.918 420.404 118.918 422.212ZM125.537 419.622C124.27 419.622 123.217 420.461 123.075 421.984H127.999C128.013 420.461 126.875 419.622 125.537 419.622ZM129.181 424.048C128.782 425.471 127.53 426.581 125.594 426.581C123.374 426.581 121.737 425.016 121.737 422.539C121.737 420.077 123.317 418.526 125.594 418.526C127.857 418.526 129.337 420.12 129.337 422.255C129.337 422.539 129.323 422.767 129.294 423.037H123.061C123.16 424.617 124.27 425.485 125.594 425.485C126.761 425.485 127.501 424.888 127.786 424.048H129.181ZM139.865 423.749C139.865 425.158 138.712 426.553 136.563 426.553C134.571 426.553 133.162 425.443 133.133 423.806H134.514C134.599 424.631 135.183 425.457 136.563 425.457C137.816 425.457 138.556 424.745 138.556 423.806C138.556 421.13 133.19 422.838 133.19 419.152C133.19 417.515 134.514 416.405 136.478 416.405C138.371 416.405 139.609 417.444 139.765 418.953H138.342C138.257 418.284 137.631 417.529 136.421 417.515C135.353 417.487 134.514 418.042 134.514 419.109C134.514 421.671 139.865 420.077 139.865 423.749ZM147.976 418.654V426.453H146.681V425.3C146.183 426.112 145.229 426.567 144.19 426.567C142.397 426.567 140.988 425.457 140.988 423.222V418.654H142.269V423.052C142.269 424.631 143.137 425.443 144.447 425.443C145.785 425.443 146.681 424.617 146.681 422.938V418.654H147.976ZM150.747 420.105C151.245 419.237 152.284 418.526 153.664 418.526C155.771 418.526 157.365 420.091 157.365 422.525C157.365 424.944 155.756 426.581 153.664 426.581C152.241 426.581 151.231 425.87 150.747 425.016V426.453H149.451V415.921H150.747V420.105ZM156.041 422.525C156.041 420.689 154.831 419.65 153.394 419.65C151.985 419.65 150.747 420.732 150.747 422.539C150.747 424.375 151.985 425.443 153.394 425.443C154.831 425.443 156.041 424.361 156.041 422.525ZM163.965 424.332C163.965 425.613 162.841 426.581 161.119 426.581C159.297 426.581 158.016 425.585 157.931 424.162H159.269C159.34 424.916 160.009 425.485 161.105 425.485C162.129 425.485 162.699 424.973 162.699 424.332C162.699 422.596 158.087 423.607 158.087 420.703C158.087 419.508 159.212 418.526 160.948 418.526C162.67 418.526 163.809 419.451 163.894 420.974H162.599C162.542 420.191 161.944 419.622 160.905 419.622C159.952 419.622 159.383 420.077 159.383 420.703C159.383 422.553 163.908 421.543 163.965 424.332ZM164.598 422.539C164.598 420.091 166.178 418.526 168.398 418.526C170.334 418.526 171.601 419.522 171.999 421.159H170.604C170.334 420.219 169.551 419.622 168.398 419.622C166.975 419.622 165.922 420.632 165.922 422.539C165.922 424.475 166.975 425.485 168.398 425.485C169.551 425.485 170.32 424.93 170.604 423.948H171.999C171.601 425.5 170.334 426.581 168.398 426.581C166.178 426.581 164.598 425.016 164.598 422.539ZM174.311 422.212V426.453H173.016V418.654H174.311V419.92C174.752 419.052 175.592 418.511 176.83 418.511V419.849H176.488C175.25 419.849 174.311 420.404 174.311 422.212ZM177.613 426.453V418.654H178.908V426.453H177.613ZM178.282 417.387C177.784 417.387 177.4 417.003 177.4 416.505C177.4 416.007 177.784 415.622 178.282 415.622C178.752 415.622 179.136 416.007 179.136 416.505C179.136 417.003 178.752 417.387 178.282 417.387ZM181.699 420.091C182.169 419.266 183.194 418.526 184.617 418.526C186.709 418.526 188.317 420.091 188.317 422.525C188.317 424.944 186.709 426.581 184.617 426.581C183.194 426.581 182.183 425.813 181.699 425.016V430.154H180.404V418.654H181.699V420.091ZM186.994 422.525C186.994 420.689 185.784 419.65 184.347 419.65C182.938 419.65 181.699 420.732 181.699 422.539C181.699 424.375 182.938 425.443 184.347 425.443C185.784 425.443 186.994 424.361 186.994 422.525ZM189.595 424.318V419.721H188.585V418.654H189.595V416.69H190.89V418.654H192.926V419.721H190.89V424.318C190.89 425.087 191.175 425.357 191.972 425.357H192.926V426.453H191.758C190.378 426.453 189.595 425.884 189.595 424.318ZM193.783 426.453V418.654H195.078V426.453H193.783ZM194.452 417.387C193.954 417.387 193.57 417.003 193.57 416.505C193.57 416.007 193.954 415.622 194.452 415.622C194.922 415.622 195.306 416.007 195.306 416.505C195.306 417.003 194.922 417.387 194.452 417.387ZM203.975 422.539C203.975 425.016 202.196 426.581 199.976 426.581C197.77 426.581 196.09 425.016 196.09 422.539C196.09 420.077 197.826 418.526 200.032 418.526C202.253 418.526 203.975 420.077 203.975 422.539ZM197.414 422.539C197.414 424.518 198.623 425.443 199.976 425.443C201.328 425.443 202.651 424.518 202.651 422.539C202.651 420.575 201.356 419.65 200.018 419.65C198.652 419.65 197.414 420.575 197.414 422.539ZM210.673 426.453V422.041C210.673 420.447 209.805 419.636 208.496 419.636C207.172 419.636 206.261 420.461 206.261 422.141V426.453H204.966V418.654H206.261V419.764C206.774 418.953 207.713 418.511 208.766 418.511C210.574 418.511 211.954 419.622 211.954 421.856V426.453H210.673ZM222.077 423.664C222.077 422.568 221.252 421.885 219.985 421.885H217.736V425.386H220.028C221.308 425.386 222.077 424.745 222.077 423.664ZM221.821 419.209C221.821 418.227 221.152 417.601 219.885 417.601H217.736V420.817H219.914C221.123 420.817 221.821 420.219 221.821 419.209ZM223.372 423.792C223.372 425.286 222.191 426.453 220.141 426.453H216.441V416.533H219.999C222.091 416.533 223.144 417.672 223.144 419.052C223.144 420.305 222.362 421.031 221.408 421.344C222.49 421.529 223.372 422.568 223.372 423.792ZM231.859 422.539C231.859 425.016 230.08 426.581 227.859 426.581C225.653 426.581 223.974 425.016 223.974 422.539C223.974 420.077 225.71 418.526 227.916 418.526C230.137 418.526 231.859 420.077 231.859 422.539ZM225.298 422.539C225.298 424.518 226.507 425.443 227.859 425.443C229.211 425.443 230.535 424.518 230.535 422.539C230.535 420.575 229.24 419.65 227.902 419.65C226.536 419.65 225.298 420.575 225.298 422.539ZM236.92 426.453L235.07 423.55L233.291 426.453H231.939L234.458 422.582L231.939 418.654H233.405L235.255 421.543L237.02 418.654H238.372L235.867 422.511L238.386 426.453H236.92ZM242.265 419.622C240.998 419.622 239.945 420.461 239.803 421.984H244.727C244.741 420.461 243.603 419.622 242.265 419.622ZM245.908 424.048C245.51 425.471 244.257 426.581 242.322 426.581C240.102 426.581 238.465 425.016 238.465 422.539C238.465 420.077 240.045 418.526 242.322 418.526C244.585 418.526 246.065 420.12 246.065 422.255C246.065 422.539 246.051 422.767 246.022 423.037H239.788C239.888 424.617 240.998 425.485 242.322 425.485C243.489 425.485 244.229 424.888 244.514 424.048H245.908ZM252.67 424.332C252.67 425.613 251.546 426.581 249.824 426.581C248.002 426.581 246.721 425.585 246.636 424.162H247.974C248.045 424.916 248.714 425.485 249.81 425.485C250.834 425.485 251.404 424.973 251.404 424.332C251.404 422.596 246.792 423.607 246.792 420.703C246.792 419.508 247.917 418.526 249.653 418.526C251.375 418.526 252.514 419.451 252.599 420.974H251.304C251.247 420.191 250.649 419.622 249.61 419.622C248.657 419.622 248.088 420.077 248.088 420.703C248.088 422.553 252.614 421.543 252.67 424.332Z" fill="black" fill-opacity="0.8"/>
<ellipse cx="47.5" cy="96.2109" rx="3.5" ry="3.21092" fill="#FFAE00"/>
<ellipse cx="47.5" cy="132.333" rx="3.5" ry="3.21092" fill="#FFAE00"/>
<ellipse cx="47.5" cy="168.455" rx="3.5" ry="3.21092" fill="#FFAE00"/>
<ellipse cx="47.5" cy="204.576" rx="3.5" ry="3.21092" fill="#FFAE00"/>
<ellipse cx="47.5" cy="240.698" rx="3.5" ry="3.21092" fill="#FFAE00"/>
<ellipse cx="47.5" cy="276.82" rx="3.5" ry="3.21092" fill="#FFAE00"/>
<ellipse cx="47.5" cy="312.942" rx="3.5" ry="3.21092" fill="#FFAE00"/>
<ellipse cx="47.5" cy="349.064" rx="3.5" ry="3.21092" fill="#FFAE00"/>
<ellipse cx="47.5" cy="385.186" rx="3.5" ry="3.21092" fill="#FFAE00"/>
<ellipse cx="47.5" cy="421.308" rx="3.5" ry="3.21092" fill="#FFAE00"/>
<path d="M297.106 12.0168L277.661 51.1126H247.225L266.67 12.0168L297.106 12.0168Z" fill="#FFAE00"/>
<path d="M253.459 12.0168L234.014 51.1126H203.579L223.024 12.0168L253.459 12.0168Z" fill="#FFAE00"/>
<path d="M207.142 12.0168L187.697 51.1126H157.262L176.707 12.0168L207.142 12.0168Z" fill="#FFAE00"/>
</svg>
