<svg width="764" height="274" viewBox="0 0 764 274" fill="none" xmlns="http://www.w3.org/2000/svg">
<path d="M0 0.000732422H764L716.49 40.2948V274.001H0V0.000732422Z" fill="white"/>
<path d="M62.2542 60.2567C62.2542 62.0773 60.7647 63.8795 57.9879 63.8795C55.4133 63.8795 53.5928 62.4451 53.556 60.3303H55.3398C55.4501 61.3969 56.2041 62.4635 57.9879 62.4635C59.6061 62.4635 60.5624 61.544 60.5624 60.3303C60.5624 56.8731 53.6296 59.0798 53.6296 54.3169C53.6296 52.2022 55.3398 50.7678 57.8775 50.7678C60.3233 50.7678 61.9232 52.1102 62.1255 54.0595H60.2865C60.1762 53.1952 59.3671 52.2206 57.804 52.2022C56.4248 52.1654 55.3398 52.8826 55.3398 54.2618C55.3398 57.5719 62.2542 55.5123 62.2542 60.2567ZM65.4708 55.5307C66.0776 54.4641 67.4017 53.5078 69.2406 53.5078C71.9439 53.5078 74.0219 55.5307 74.0219 58.6752C74.0219 61.8015 71.9439 63.9162 69.2406 63.9162C67.4017 63.9162 66.096 62.9232 65.4708 61.8934V68.532H63.7974V53.6733H65.4708V55.5307ZM72.3117 58.6752C72.3117 56.303 70.7486 54.9606 68.8912 54.9606C67.0707 54.9606 65.4708 56.3582 65.4708 58.6936C65.4708 61.0659 67.0707 62.4451 68.8912 62.4451C70.7486 62.4451 72.3117 61.0475 72.3117 58.6752ZM74.6799 58.6752C74.6799 55.5307 76.7579 53.5078 79.4611 53.5078C81.3369 53.5078 82.6241 54.4641 83.2126 55.5123V53.6733H84.9044V63.7507H83.2126V61.875C82.6057 62.96 81.3001 63.9162 79.4427 63.9162C76.7579 63.9162 74.6799 61.8015 74.6799 58.6752ZM83.2126 58.6936C83.2126 56.3582 81.6311 54.9606 79.7921 54.9606C77.9532 54.9606 76.3901 56.303 76.3901 58.6752C76.3901 61.0475 77.9532 62.4451 79.7921 62.4451C81.6311 62.4451 83.2126 61.0659 83.2126 58.6936ZM99.4023 63.7507L98.3725 60.9004H92.7821L91.7523 63.7507H89.9869L94.6211 51.0068H96.552L101.168 63.7507H99.4023ZM97.8944 59.5395L95.5773 53.0665L93.2603 59.5395H97.8944ZM103.941 55.5307C104.548 54.4641 105.872 53.5078 107.711 53.5078C110.414 53.5078 112.492 55.5307 112.492 58.6752C112.492 61.8015 110.414 63.9162 107.711 63.9162C105.872 63.9162 104.567 62.9232 103.941 61.8934V68.532H102.268V53.6733H103.941V55.5307ZM110.782 58.6752C110.782 56.303 109.219 54.9606 107.362 54.9606C105.541 54.9606 103.941 56.3582 103.941 58.6936C103.941 61.0659 105.541 62.4451 107.362 62.4451C109.219 62.4451 110.782 61.0475 110.782 58.6752ZM115.449 55.5307C116.056 54.4641 117.38 53.5078 119.219 53.5078C121.922 53.5078 124 55.5307 124 58.6752C124 61.8015 121.922 63.9162 119.219 63.9162C117.38 63.9162 116.074 62.9232 115.449 61.8934V68.532H113.776V53.6733H115.449V55.5307ZM122.29 58.6752C122.29 56.303 120.727 54.9606 118.87 54.9606C117.049 54.9606 115.449 56.3582 115.449 58.6936C115.449 61.0659 117.049 62.4451 118.87 62.4451C120.727 62.4451 122.29 61.0475 122.29 58.6752ZM134.846 58.6936C134.846 61.8934 132.547 63.9162 129.679 63.9162C126.828 63.9162 124.658 61.8934 124.658 58.6936C124.658 55.5123 126.902 53.5078 129.752 53.5078C132.621 53.5078 134.846 55.5123 134.846 58.6936ZM126.368 58.6936C126.368 61.2498 127.932 62.4451 129.679 62.4451C131.426 62.4451 133.136 61.2498 133.136 58.6936C133.136 56.1559 131.462 54.9606 129.734 54.9606C127.968 54.9606 126.368 56.1559 126.368 58.6936ZM136.127 63.7507V53.6733H137.8V63.7507H136.127ZM136.991 52.0367C136.347 52.0367 135.851 51.5401 135.851 50.8965C135.851 50.2529 136.347 49.7564 136.991 49.7564C137.598 49.7564 138.094 50.2529 138.094 50.8965C138.094 51.5401 137.598 52.0367 136.991 52.0367ZM147.107 63.7507V58.05C147.107 55.9904 145.985 54.9422 144.293 54.9422C142.583 54.9422 141.406 56.0088 141.406 58.1787V63.7507H139.733V53.6733H141.406V55.1077C142.068 54.0595 143.282 53.4894 144.643 53.4894C146.978 53.4894 148.762 54.9238 148.762 57.8109V63.7507H147.107ZM150.944 60.9923V55.0525H149.638V53.6733H150.944V51.1356H152.617V53.6733H155.247V55.0525H152.617V60.9923C152.617 61.9853 152.985 62.3347 154.015 62.3347H155.247V63.7507H153.739C151.955 63.7507 150.944 63.0152 150.944 60.9923ZM170.901 63.7507V58.05C170.901 55.9904 169.798 54.9422 168.143 54.9422C166.451 54.9422 165.292 56.0272 165.292 58.1971V63.7507H163.637V58.05C163.637 55.9904 162.534 54.9422 160.879 54.9422C159.187 54.9422 158.029 56.0272 158.029 58.1971V63.7507H156.355V53.6733H158.029V55.1261C158.691 54.0595 159.886 53.4894 161.21 53.4894C162.865 53.4894 164.244 54.225 164.906 55.7329C165.495 54.2802 166.929 53.4894 168.474 53.4894C170.772 53.4894 172.556 54.9238 172.556 57.8109V63.7507H170.901ZM178.667 54.9238C177.03 54.9238 175.669 56.0088 175.485 57.9764H181.848C181.866 56.0088 180.395 54.9238 178.667 54.9238ZM183.374 60.6429C182.859 62.4819 181.241 63.9162 178.74 63.9162C175.871 63.9162 173.757 61.8934 173.757 58.6936C173.757 55.5123 175.798 53.5078 178.74 53.5078C181.664 53.5078 183.577 55.5674 183.577 58.3258C183.577 58.6936 183.558 58.9879 183.521 59.3373H175.467C175.596 61.3785 177.03 62.5003 178.74 62.5003C180.248 62.5003 181.204 61.7279 181.572 60.6429H183.374ZM192.24 63.7507V58.05C192.24 55.9904 191.118 54.9422 189.427 54.9422C187.716 54.9422 186.539 56.0088 186.539 58.1787V63.7507H184.866V53.6733H186.539V55.1077C187.201 54.0595 188.415 53.4894 189.776 53.4894C192.111 53.4894 193.895 54.9238 193.895 57.8109V63.7507H192.24ZM196.077 60.9923V55.0525H194.771V53.6733H196.077V51.1356H197.751V53.6733H200.38V55.0525H197.751V60.9923C197.751 61.9853 198.118 62.3347 199.148 62.3347H200.38V63.7507H198.872C197.088 63.7507 196.077 63.0152 196.077 60.9923ZM208.734 61.0107C208.734 62.6658 207.281 63.9162 205.056 63.9162C202.702 63.9162 201.047 62.629 200.937 60.79H202.665C202.757 61.7647 203.621 62.5003 205.037 62.5003C206.362 62.5003 207.097 61.8382 207.097 61.0107C207.097 58.7672 201.139 60.0728 201.139 56.3214C201.139 54.7767 202.592 53.5078 204.835 53.5078C207.06 53.5078 208.531 54.7031 208.642 56.6708H206.968C206.895 55.6594 206.122 54.9238 204.78 54.9238C203.548 54.9238 202.812 55.5123 202.812 56.3214C202.812 58.712 208.66 57.4064 208.734 61.0107ZM221.883 53.6733H220.21C220.247 52.6251 219.548 52.055 218.647 52.055C217.654 52.055 217.01 52.6803 217.01 53.5262C217.01 54.2802 217.433 54.9054 218.334 55.8617L222.159 59.7051C222.27 59.5395 222.38 59.374 222.49 59.1902L223.741 57.0938H225.543L224.035 59.7051C223.796 60.128 223.557 60.4958 223.299 60.8636L226.186 63.7507H223.998L222.325 62.0589C221.093 63.3462 219.713 63.9714 217.911 63.9714C215.245 63.9714 213.424 62.4451 213.424 60.0728C213.424 58.3075 214.436 56.8915 216.44 56.1007C215.649 55.1813 215.337 54.4641 215.337 53.5262C215.337 51.8895 216.642 50.6758 218.72 50.6758C220.743 50.6758 221.975 51.9631 221.883 53.6733ZM217.911 62.537C219.235 62.537 220.265 62.0221 221.221 60.9555L217.451 57.1673C215.852 57.7742 215.098 58.7304 215.098 60.0177C215.098 61.4521 216.238 62.537 217.911 62.537ZM230.027 52.2941V50.9333H238.707V52.2941H235.213V63.7507H233.54V52.2941H230.027ZM241.521 58.2707V63.7507H239.848V53.6733H241.521V55.31C242.091 54.1882 243.176 53.4894 244.776 53.4894V55.218H244.335C242.735 55.218 241.521 55.9352 241.521 58.2707ZM250.073 54.9238C248.436 54.9238 247.075 56.0088 246.892 57.9764H253.254C253.273 56.0088 251.802 54.9238 250.073 54.9238ZM254.781 60.6429C254.266 62.4819 252.647 63.9162 250.146 63.9162C247.278 63.9162 245.163 61.8934 245.163 58.6936C245.163 55.5123 247.204 53.5078 250.146 53.5078C253.07 53.5078 254.983 55.5674 254.983 58.3258C254.983 58.6936 254.965 58.9879 254.928 59.3373H246.873C247.002 61.3785 248.436 62.5003 250.146 62.5003C251.654 62.5003 252.611 61.7279 252.978 60.6429H254.781ZM255.647 58.6752C255.647 55.5307 257.725 53.5078 260.428 53.5078C262.304 53.5078 263.591 54.4641 264.18 55.5123V53.6733H265.872V63.7507H264.18V61.875C263.573 62.96 262.267 63.9162 260.41 63.9162C257.725 63.9162 255.647 61.8015 255.647 58.6752ZM264.18 58.6936C264.18 56.3582 262.598 54.9606 260.759 54.9606C258.92 54.9606 257.357 56.303 257.357 58.6752C257.357 61.0475 258.92 62.4451 260.759 62.4451C262.598 62.4451 264.18 61.0659 264.18 58.6936ZM268.148 60.9923V55.0525H266.842V53.6733H268.148V51.1356H269.821V53.6733H272.451V55.0525H269.821V60.9923C269.821 61.9853 270.189 62.3347 271.219 62.3347H272.451V63.7507H270.943C269.159 63.7507 268.148 63.0152 268.148 60.9923ZM288.105 63.7507V58.05C288.105 55.9904 287.002 54.9422 285.347 54.9422C283.655 54.9422 282.496 56.0272 282.496 58.1971V63.7507H280.841V58.05C280.841 55.9904 279.738 54.9422 278.083 54.9422C276.391 54.9422 275.233 56.0272 275.233 58.1971V63.7507H273.559V53.6733H275.233V55.1261C275.895 54.0595 277.09 53.4894 278.414 53.4894C280.069 53.4894 281.448 54.225 282.11 55.7329C282.699 54.2802 284.133 53.4894 285.678 53.4894C287.976 53.4894 289.76 54.9238 289.76 57.8109V63.7507H288.105ZM295.871 54.9238C294.234 54.9238 292.873 56.0088 292.689 57.9764H299.052C299.07 56.0088 297.599 54.9238 295.871 54.9238ZM300.578 60.6429C300.063 62.4819 298.445 63.9162 295.944 63.9162C293.075 63.9162 290.961 61.8934 290.961 58.6936C290.961 55.5123 293.002 53.5078 295.944 53.5078C298.868 53.5078 300.781 55.5674 300.781 58.3258C300.781 58.6936 300.762 58.9879 300.725 59.3373H292.671C292.799 61.3785 294.234 62.5003 295.944 62.5003C297.452 62.5003 298.408 61.7279 298.776 60.6429H300.578ZM309.444 63.7507V58.05C309.444 55.9904 308.322 54.9422 306.631 54.9422C304.92 54.9422 303.743 56.0088 303.743 58.1787V63.7507H302.07V53.6733H303.743V55.1077C304.405 54.0595 305.619 53.4894 306.98 53.4894C309.315 53.4894 311.099 54.9238 311.099 57.8109V63.7507H309.444ZM313.281 60.9923V55.0525H311.975V53.6733H313.281V51.1356H314.954V53.6733H317.584V55.0525H314.954V60.9923C314.954 61.9853 315.322 62.3347 316.352 62.3347H317.584V63.7507H316.076C314.292 63.7507 313.281 63.0152 313.281 60.9923ZM325.938 61.0107C325.938 62.6658 324.485 63.9162 322.26 63.9162C319.906 63.9162 318.251 62.629 318.141 60.79H319.869C319.961 61.7647 320.825 62.5003 322.241 62.5003C323.565 62.5003 324.301 61.8382 324.301 61.0107C324.301 58.7672 318.343 60.0728 318.343 56.3214C318.343 54.7767 319.796 53.5078 322.039 53.5078C324.264 53.5078 325.735 54.7031 325.846 56.6708H324.172C324.099 55.6594 323.326 54.9238 321.984 54.9238C320.752 54.9238 320.016 55.5123 320.016 56.3214C320.016 58.712 325.864 57.4064 325.938 61.0107ZM55.5972 97.0202H58.0614C59.9739 97.0202 60.7831 96.1191 60.7831 94.6847C60.7831 93.1952 59.9739 92.3125 58.0614 92.3125H55.5972V97.0202ZM62.4933 94.6847C62.4933 96.634 61.2428 98.3994 58.0614 98.3994H55.5972V103.751H53.9238V90.9333H58.0614C61.0773 90.9333 62.4933 92.5883 62.4933 94.6847ZM63.6537 103.751V90.1425H65.3271V95.1261C65.9891 94.0595 67.2396 93.4894 68.6556 93.4894C70.8991 93.4894 72.6829 94.9238 72.6829 97.8109V103.751H71.0278V98.05C71.0278 95.9904 69.9061 94.9422 68.2143 94.9422C66.504 94.9422 65.3271 96.0088 65.3271 98.1787V103.751H63.6537ZM73.8717 98.6752C73.8717 95.5307 75.9498 93.5078 78.653 93.5078C80.5287 93.5078 81.816 94.4641 82.4044 95.5123V93.6733H84.0963V103.751H82.4044V101.875C81.7976 102.96 80.4919 103.916 78.6346 103.916C75.9498 103.916 73.8717 101.801 73.8717 98.6752ZM82.4044 98.6936C82.4044 96.3582 80.823 94.9606 78.984 94.9606C77.1451 94.9606 75.582 96.303 75.582 98.6752C75.582 101.047 77.1451 102.445 78.984 102.445C80.823 102.445 82.4044 101.066 82.4044 98.6936ZM87.6782 98.2707V103.751H86.0048V93.6733H87.6782V95.31C88.2483 94.1882 89.3332 93.4894 90.9331 93.4894V95.218H90.4918C88.8919 95.218 87.6782 95.9352 87.6782 98.2707ZM106.491 103.751V98.05C106.491 95.9904 105.388 94.9422 103.733 94.9422C102.041 94.9422 100.883 96.0272 100.883 98.1971V103.751H99.2276V98.05C99.2276 95.9904 98.1243 94.9422 96.4692 94.9422C94.7774 94.9422 93.6188 96.0272 93.6188 98.1971V103.751H91.9454V93.6733H93.6188V95.1261C94.2809 94.0595 95.4762 93.4894 96.8002 93.4894C98.4553 93.4894 99.8345 94.225 100.497 95.7329C101.085 94.2802 102.519 93.4894 104.064 93.4894C106.363 93.4894 108.147 94.9238 108.147 97.8109V103.751H106.491ZM109.347 98.6752C109.347 95.5307 111.425 93.5078 114.128 93.5078C116.004 93.5078 117.291 94.4641 117.88 95.5123V93.6733H119.571V103.751H117.88V101.875C117.273 102.96 115.967 103.916 114.11 103.916C111.425 103.916 109.347 101.801 109.347 98.6752ZM117.88 98.6936C117.88 96.3582 116.298 94.9606 114.459 94.9606C112.62 94.9606 111.057 96.303 111.057 98.6752C111.057 101.047 112.62 102.445 114.459 102.445C116.298 102.445 117.88 101.066 117.88 98.6936ZM120.855 98.6936C120.855 95.5307 122.896 93.5078 125.765 93.5078C128.266 93.5078 129.902 94.7951 130.417 96.9099H128.615C128.266 95.6962 127.254 94.9238 125.765 94.9238C123.926 94.9238 122.565 96.2295 122.565 98.6936C122.565 101.195 123.926 102.5 125.765 102.5C127.254 102.5 128.247 101.783 128.615 100.514H130.417C129.902 102.519 128.266 103.916 125.765 103.916C122.896 103.916 120.855 101.893 120.855 98.6936ZM135.556 101.838L138.682 93.6733H140.41L134.342 108.495H132.613L134.599 103.64L130.535 93.6733H132.393L135.556 101.838ZM152.88 93.6733H151.206C151.243 92.6251 150.544 92.055 149.643 92.055C148.65 92.055 148.007 92.6803 148.007 93.5262C148.007 94.2802 148.43 94.9054 149.331 95.8617L153.156 99.7051C153.266 99.5395 153.376 99.374 153.487 99.1902L154.737 97.0938H156.539L155.031 99.7051C154.792 100.128 154.553 100.496 154.296 100.864L157.183 103.751H154.995L153.321 102.059C152.089 103.346 150.71 103.971 148.908 103.971C146.241 103.971 144.421 102.445 144.421 100.073C144.421 98.3075 145.432 96.8915 147.437 96.1007C146.646 95.1813 146.333 94.4641 146.333 93.5262C146.333 91.8895 147.639 90.6758 149.717 90.6758C151.74 90.6758 152.972 91.9631 152.88 93.6733ZM148.908 102.537C150.232 102.537 151.262 102.022 152.218 100.956L148.448 97.1673C146.848 97.7742 146.094 98.7304 146.094 100.018C146.094 101.452 147.234 102.537 148.908 102.537ZM163.488 97.0202H165.952C167.865 97.0202 168.674 96.1191 168.674 94.6847C168.674 93.1952 167.865 92.3125 165.952 92.3125H163.488V97.0202ZM170.384 94.6847C170.384 96.634 169.134 98.3994 165.952 98.3994H163.488V103.751H161.815V90.9333H165.952C168.968 90.9333 170.384 92.5883 170.384 94.6847ZM173.218 98.2707V103.751H171.544V93.6733H173.218V95.31C173.788 94.1882 174.873 93.4894 176.473 93.4894V95.218H176.031C174.432 95.218 173.218 95.9352 173.218 98.2707ZM181.77 94.9238C180.133 94.9238 178.772 96.0088 178.588 97.9764H184.951C184.97 96.0088 183.498 94.9238 181.77 94.9238ZM186.477 100.643C185.963 102.482 184.344 103.916 181.843 103.916C178.975 103.916 176.86 101.893 176.86 98.6936C176.86 95.5123 178.901 93.5078 181.843 93.5078C184.767 93.5078 186.68 95.5674 186.68 98.3258C186.68 98.6936 186.661 98.9879 186.625 99.3373H178.57C178.699 101.378 180.133 102.5 181.843 102.5C183.351 102.5 184.308 101.728 184.675 100.643H186.477ZM195.215 101.011C195.215 102.666 193.762 103.916 191.537 103.916C189.183 103.916 187.528 102.629 187.417 100.79H189.146C189.238 101.765 190.102 102.5 191.518 102.5C192.842 102.5 193.578 101.838 193.578 101.011C193.578 98.7672 187.62 100.073 187.62 96.3214C187.62 94.7767 189.073 93.5078 191.316 93.5078C193.541 93.5078 195.012 94.7031 195.123 96.6708H193.449C193.376 95.6594 192.603 94.9238 191.261 94.9238C190.029 94.9238 189.293 95.5123 189.293 96.3214C189.293 98.712 195.141 97.4064 195.215 101.011ZM196.032 98.6936C196.032 95.5307 198.073 93.5078 200.942 93.5078C203.443 93.5078 205.08 94.7951 205.595 96.9099H203.793C203.443 95.6962 202.432 94.9238 200.942 94.9238C199.103 94.9238 197.742 96.2295 197.742 98.6936C197.742 101.195 199.103 102.5 200.942 102.5C202.432 102.5 203.425 101.783 203.793 100.514H205.595C205.08 102.519 203.443 103.916 200.942 103.916C198.073 103.916 196.032 101.893 196.032 98.6936ZM208.582 98.2707V103.751H206.908V93.6733H208.582V95.31C209.152 94.1882 210.237 93.4894 211.837 93.4894V95.218H211.395C209.795 95.218 208.582 95.9352 208.582 98.2707ZM212.849 103.751V93.6733H214.522V103.751H212.849ZM213.713 92.0367C213.069 92.0367 212.573 91.5401 212.573 90.8965C212.573 90.2529 213.069 89.7564 213.713 89.7564C214.32 89.7564 214.816 90.2529 214.816 90.8965C214.816 91.5401 214.32 92.0367 213.713 92.0367ZM218.128 95.5307C218.735 94.4641 220.059 93.5078 221.898 93.5078C224.601 93.5078 226.679 95.5307 226.679 98.6752C226.679 101.801 224.601 103.916 221.898 103.916C220.059 103.916 218.754 102.923 218.128 101.893V108.532H216.455V93.6733H218.128V95.5307ZM224.969 98.6752C224.969 96.303 223.406 94.9606 221.549 94.9606C219.728 94.9606 218.128 96.3582 218.128 98.6936C218.128 101.066 219.728 102.445 221.549 102.445C223.406 102.445 224.969 101.047 224.969 98.6752ZM228.33 100.992V95.0525H227.025V93.6733H228.33V91.1356H230.004V93.6733H232.634V95.0525H230.004V100.992C230.004 101.985 230.372 102.335 231.401 102.335H232.634V103.751H231.126C229.342 103.751 228.33 103.015 228.33 100.992ZM233.742 103.751V93.6733H235.415V103.751H233.742ZM234.606 92.0367C233.962 92.0367 233.466 91.5401 233.466 90.8965C233.466 90.2529 233.962 89.7564 234.606 89.7564C235.213 89.7564 235.709 90.2529 235.709 90.8965C235.709 91.5401 235.213 92.0367 234.606 92.0367ZM246.91 98.6936C246.91 101.893 244.612 103.916 241.743 103.916C238.892 103.916 236.722 101.893 236.722 98.6936C236.722 95.5123 238.966 93.5078 241.816 93.5078C244.685 93.5078 246.91 95.5123 246.91 98.6936ZM238.433 98.6936C238.433 101.25 239.996 102.445 241.743 102.445C243.49 102.445 245.2 101.25 245.2 98.6936C245.2 96.1559 243.527 94.9606 241.798 94.9606C240.033 94.9606 238.433 96.1559 238.433 98.6936ZM255.565 103.751V98.05C255.565 95.9904 254.443 94.9422 252.752 94.9422C251.041 94.9422 249.864 96.0088 249.864 98.1787V103.751H248.191V93.6733H249.864V95.1077C250.526 94.0595 251.74 93.4894 253.101 93.4894C255.436 93.4894 257.22 94.9238 257.22 97.8109V103.751H255.565ZM271.348 100.257C271.348 102.077 269.858 103.879 267.082 103.879C264.507 103.879 262.686 102.445 262.65 100.33H264.433C264.544 101.397 265.298 102.463 267.082 102.463C268.7 102.463 269.656 101.544 269.656 100.33C269.656 96.8731 262.723 99.0798 262.723 94.3169C262.723 92.2022 264.433 90.7678 266.971 90.7678C269.417 90.7678 271.017 92.1102 271.219 94.0595H269.38C269.27 93.1952 268.461 92.2206 266.898 92.2022C265.518 92.1654 264.433 92.8826 264.433 94.2618C264.433 97.5719 271.348 95.5123 271.348 100.257ZM277.176 94.9238C275.539 94.9238 274.178 96.0088 273.994 97.9764H280.357C280.376 96.0088 278.904 94.9238 277.176 94.9238ZM281.883 100.643C281.369 102.482 279.75 103.916 277.249 103.916C274.381 103.916 272.266 101.893 272.266 98.6936C272.266 95.5123 274.307 93.5078 277.249 93.5078C280.173 93.5078 282.086 95.5674 282.086 98.3258C282.086 98.6936 282.067 98.9879 282.031 99.3373H273.976C274.105 101.378 275.539 102.5 277.249 102.5C278.757 102.5 279.714 101.728 280.081 100.643H281.883ZM285.049 98.2707V103.751H283.375V93.6733H285.049V95.31C285.619 94.1882 286.704 93.4894 288.304 93.4894V95.218H287.862C286.262 95.218 285.049 95.9352 285.049 98.2707ZM288.121 93.6733H289.923L293.067 102.206L296.193 93.6733H297.977L294.024 103.751H292.074L288.121 93.6733ZM298.705 103.751V93.6733H300.378V103.751H298.705ZM299.569 92.0367C298.925 92.0367 298.429 91.5401 298.429 90.8965C298.429 90.2529 298.925 89.7564 299.569 89.7564C300.176 89.7564 300.672 90.2529 300.672 90.8965C300.672 91.5401 300.176 92.0367 299.569 92.0367ZM301.685 98.6936C301.685 95.5307 303.727 93.5078 306.595 93.5078C309.096 93.5078 310.733 94.7951 311.248 96.9099H309.446C309.096 95.6962 308.085 94.9238 306.595 94.9238C304.756 94.9238 303.396 96.2295 303.396 98.6936C303.396 101.195 304.756 102.5 306.595 102.5C308.085 102.5 309.078 101.783 309.446 100.514H311.248C310.733 102.519 309.096 103.916 306.595 103.916C303.727 103.916 301.685 101.893 301.685 98.6936ZM316.846 94.9238C315.209 94.9238 313.849 96.0088 313.665 97.9764H320.027C320.046 96.0088 318.575 94.9238 316.846 94.9238ZM321.554 100.643C321.039 102.482 319.421 103.916 316.92 103.916C314.051 103.916 311.936 101.893 311.936 98.6936C311.936 95.5123 313.977 93.5078 316.92 93.5078C319.843 93.5078 321.756 95.5674 321.756 98.3258C321.756 98.6936 321.738 98.9879 321.701 99.3373H313.646C313.775 101.378 315.209 102.5 316.92 102.5C318.427 102.5 319.384 101.728 319.752 100.643H321.554ZM330.291 101.011C330.291 102.666 328.838 103.916 326.613 103.916C324.259 103.916 322.604 102.629 322.494 100.79H324.222C324.314 101.765 325.179 102.5 326.595 102.5C327.919 102.5 328.654 101.838 328.654 101.011C328.654 98.7672 322.696 100.073 322.696 96.3214C322.696 94.7767 324.149 93.5078 326.392 93.5078C328.617 93.5078 330.089 94.7031 330.199 96.6708H328.525C328.452 95.6594 327.68 94.9238 326.337 94.9238C325.105 94.9238 324.369 95.5123 324.369 96.3214C324.369 98.712 330.217 97.4064 330.291 101.011ZM53.9238 130.933H55.5972V142.39H60.0843V143.751H53.9238V130.933ZM69.8792 133.673V143.751H68.2058V142.261C67.5622 143.309 66.3301 143.898 64.9876 143.898C62.6706 143.898 60.85 142.463 60.85 139.576V133.673H62.5051V139.356C62.5051 141.397 63.6268 142.445 65.3186 142.445C67.0473 142.445 68.2058 141.378 68.2058 139.209V133.673H69.8792ZM77.0446 143.751L74.654 139.999L72.3553 143.751H70.6083L73.8633 138.749L70.6083 133.673H72.5025L74.8931 137.406L77.1734 133.673H78.9204L75.6838 138.657L78.9388 143.751H77.0446ZM88.6027 133.673V143.751H86.9293V142.261C86.2856 143.309 85.0535 143.898 83.7111 143.898C81.394 143.898 79.5735 142.463 79.5735 139.576V133.673H81.2285V139.356C81.2285 141.397 82.3503 142.445 84.0421 142.445C85.7707 142.445 86.9293 141.378 86.9293 139.209V133.673H88.6027ZM92.1822 138.271V143.751H90.5087V133.673H92.1822V135.31C92.7522 134.188 93.8372 133.489 95.4371 133.489V135.218H94.9958C93.3959 135.218 92.1822 135.935 92.1822 138.271ZM100.274 141.838L103.401 133.673H105.129L99.0607 148.495H97.3321L99.3181 143.64L95.2541 133.673H97.1114L100.274 141.838ZM118.206 140.257C118.206 142.077 116.716 143.879 113.939 143.879C111.365 143.879 109.544 142.445 109.507 140.33H111.291C111.401 141.397 112.155 142.463 113.939 142.463C115.557 142.463 116.514 141.544 116.514 140.33C116.514 136.873 109.581 139.08 109.581 134.317C109.581 132.202 111.291 130.768 113.829 130.768C116.275 130.768 117.875 132.11 118.077 134.059H116.238C116.128 133.195 115.318 132.221 113.755 132.202C112.376 132.165 111.291 132.883 111.291 134.262C111.291 137.572 118.206 135.512 118.206 140.257ZM119.749 143.751V130.143H121.422V138.142L125.302 133.673H127.638L122.893 138.694L127.656 143.751H125.376L121.422 139.3V143.751H119.749ZM128.293 143.751V133.673H129.967V143.751H128.293ZM129.158 132.037C128.514 132.037 128.017 131.54 128.017 130.897C128.017 130.253 128.514 129.756 129.158 129.756C129.764 129.756 130.261 130.253 130.261 130.897C130.261 131.54 129.764 132.037 129.158 132.037ZM139.274 143.751V138.05C139.274 135.99 138.152 134.942 136.46 134.942C134.75 134.942 133.573 136.009 133.573 138.179V143.751H131.899V133.673H133.573V135.108C134.235 134.059 135.449 133.489 136.809 133.489C139.145 133.489 140.929 134.924 140.929 137.811V143.751H139.274ZM142.117 138.694C142.117 135.531 144.159 133.508 147.027 133.508C149.528 133.508 151.165 134.795 151.68 136.91H149.878C149.528 135.696 148.517 134.924 147.027 134.924C145.188 134.924 143.828 136.229 143.828 138.694C143.828 141.195 145.188 142.5 147.027 142.5C148.517 142.5 149.51 141.783 149.878 140.514H151.68C151.165 142.519 149.528 143.916 147.027 143.916C144.159 143.916 142.117 141.893 142.117 138.694ZM152.368 138.675C152.368 135.531 154.446 133.508 157.149 133.508C159.025 133.508 160.312 134.464 160.901 135.512V133.673H162.593V143.751H160.901V141.875C160.294 142.96 158.988 143.916 157.131 143.916C154.446 143.916 152.368 141.801 152.368 138.675ZM160.901 138.694C160.901 136.358 159.319 134.961 157.48 134.961C155.641 134.961 154.078 136.303 154.078 138.675C154.078 141.047 155.641 142.445 157.48 142.445C159.319 142.445 160.901 141.066 160.901 138.694ZM166.175 138.271V143.751H164.501V133.673H166.175V135.31C166.745 134.188 167.83 133.489 169.429 133.489V135.218H168.988C167.388 135.218 166.175 135.935 166.175 138.271ZM174.726 134.924C173.09 134.924 171.729 136.009 171.545 137.976H177.908C177.926 136.009 176.455 134.924 174.726 134.924ZM179.434 140.643C178.919 142.482 177.301 143.916 174.8 143.916C171.931 143.916 169.817 141.893 169.817 138.694C169.817 135.512 171.858 133.508 174.8 133.508C177.724 133.508 179.636 135.567 179.636 138.326C179.636 138.694 179.618 138.988 179.581 139.337H171.527C171.655 141.378 173.09 142.5 174.8 142.5C176.308 142.5 177.264 141.728 177.632 140.643H179.434ZM192.633 133.673H190.959C190.996 132.625 190.297 132.055 189.396 132.055C188.403 132.055 187.759 132.68 187.759 133.526C187.759 134.28 188.182 134.905 189.083 135.862L192.908 139.705C193.019 139.54 193.129 139.374 193.239 139.19L194.49 137.094H196.292L194.784 139.705C194.545 140.128 194.306 140.496 194.049 140.864L196.936 143.751H194.747L193.074 142.059C191.842 143.346 190.463 143.971 188.661 143.971C185.994 143.971 184.173 142.445 184.173 140.073C184.173 138.307 185.185 136.891 187.189 136.101C186.399 135.181 186.086 134.464 186.086 133.526C186.086 131.89 187.392 130.676 189.47 130.676C191.492 130.676 192.725 131.963 192.633 133.673ZM188.661 142.537C189.985 142.537 191.014 142.022 191.971 140.956L188.201 137.167C186.601 137.774 185.847 138.73 185.847 140.018C185.847 141.452 186.987 142.537 188.661 142.537ZM208.85 140.146C208.85 138.73 207.783 137.848 206.146 137.848H203.241V142.372H206.201C207.857 142.372 208.85 141.544 208.85 140.146ZM208.519 134.391C208.519 133.122 207.654 132.312 206.018 132.312H203.241V136.469H206.054C207.617 136.469 208.519 135.696 208.519 134.391ZM210.523 140.312C210.523 142.243 208.997 143.751 206.349 143.751H201.567V130.933H206.165C208.868 130.933 210.229 132.404 210.229 134.188C210.229 135.806 209.217 136.744 207.985 137.149C209.383 137.388 210.523 138.73 210.523 140.312ZM216.21 134.924C214.574 134.924 213.213 136.009 213.029 137.976H219.392C219.41 136.009 217.939 134.924 216.21 134.924ZM220.918 140.643C220.403 142.482 218.785 143.916 216.284 143.916C213.415 143.916 211.301 141.893 211.301 138.694C211.301 135.512 213.342 133.508 216.284 133.508C219.208 133.508 221.12 135.567 221.12 138.326C221.12 138.694 221.102 138.988 221.065 139.337H213.011C213.139 141.378 214.574 142.5 216.284 142.5C217.792 142.5 218.748 141.728 219.116 140.643H220.918ZM221.785 138.675C221.785 135.531 223.863 133.508 226.566 133.508C228.442 133.508 229.729 134.464 230.317 135.512V133.673H232.009V143.751H230.317V141.875C229.71 142.96 228.405 143.916 226.548 143.916C223.863 143.916 221.785 141.801 221.785 138.675ZM230.317 138.694C230.317 136.358 228.736 134.961 226.897 134.961C225.058 134.961 223.495 136.303 223.495 138.675C223.495 141.047 225.058 142.445 226.897 142.445C228.736 142.445 230.317 141.066 230.317 138.694ZM242.855 133.673V143.751H241.181V142.261C240.538 143.309 239.306 143.898 237.963 143.898C235.646 143.898 233.826 142.463 233.826 139.576V133.673H235.481V139.356C235.481 141.397 236.603 142.445 238.294 142.445C240.023 142.445 241.181 141.378 241.181 139.209V133.673H242.855ZM245.129 140.992V135.053H243.823V133.673H245.129V131.136H246.802V133.673H249.432V135.053H246.802V140.992C246.802 141.985 247.17 142.335 248.2 142.335H249.432V143.751H247.924C246.14 143.751 245.129 143.015 245.129 140.992ZM254.365 141.838L257.491 133.673H259.22L253.151 148.495H251.423L253.409 143.64L249.345 133.673H251.202L254.365 141.838ZM272.296 140.257C272.296 142.077 270.807 143.879 268.03 143.879C265.455 143.879 263.635 142.445 263.598 140.33H265.382C265.492 141.397 266.246 142.463 268.03 142.463C269.648 142.463 270.604 141.544 270.604 140.33C270.604 136.873 263.671 139.08 263.671 134.317C263.671 132.202 265.382 130.768 267.919 130.768C270.365 130.768 271.965 132.11 272.167 134.059H270.328C270.218 133.195 269.409 132.221 267.846 132.202C266.467 132.165 265.382 132.883 265.382 134.262C265.382 137.572 272.296 135.512 272.296 140.257ZM274.207 140.992V135.053H272.901V133.673H274.207V131.136H275.88V133.673H278.51V135.053H275.88V140.992C275.88 141.985 276.248 142.335 277.278 142.335H278.51V143.751H277.002C275.218 143.751 274.207 143.015 274.207 140.992ZM289.181 138.694C289.181 141.893 286.882 143.916 284.013 143.916C281.163 143.916 278.993 141.893 278.993 138.694C278.993 135.512 281.237 133.508 284.087 133.508C286.956 133.508 289.181 135.512 289.181 138.694ZM280.703 138.694C280.703 141.25 282.266 142.445 284.013 142.445C285.76 142.445 287.471 141.25 287.471 138.694C287.471 136.156 285.797 134.961 284.069 134.961C282.303 134.961 280.703 136.156 280.703 138.694ZM292.135 138.271V143.751H290.462V133.673H292.135V135.31C292.705 134.188 293.79 133.489 295.39 133.489V135.218H294.949C293.349 135.218 292.135 135.935 292.135 138.271ZM300.687 134.924C299.05 134.924 297.69 136.009 297.506 137.976H303.868C303.887 136.009 302.416 134.924 300.687 134.924ZM305.395 140.643C304.88 142.482 303.262 143.916 300.761 143.916C297.892 143.916 295.777 141.893 295.777 138.694C295.777 135.512 297.818 133.508 300.761 133.508C303.684 133.508 305.597 135.567 305.597 138.326C305.597 138.694 305.579 138.988 305.542 139.337H297.487C297.616 141.378 299.05 142.5 300.761 142.5C302.268 142.5 303.225 141.728 303.593 140.643H305.395ZM62.1255 183.751V177.94H55.5972V183.751H53.9238V170.933H55.5972V176.56H62.1255V170.933H63.7989V183.751H62.1255ZM70.0036 174.924C68.367 174.924 67.0062 176.009 66.8223 177.976H73.185C73.2034 176.009 71.7323 174.924 70.0036 174.924ZM74.7113 180.643C74.1964 182.482 72.5782 183.916 70.0772 183.916C67.2084 183.916 65.0937 181.893 65.0937 178.694C65.0937 175.512 67.1349 173.508 70.0772 173.508C73.0011 173.508 74.9136 175.567 74.9136 178.326C74.9136 178.694 74.8952 178.988 74.8585 179.337H66.8039C66.9326 181.378 68.367 182.5 70.0772 182.5C71.5851 182.5 72.5414 181.728 72.9092 180.643H74.7113ZM75.5778 178.675C75.5778 175.531 77.6558 173.508 80.3591 173.508C82.2348 173.508 83.522 174.464 84.1105 175.512V173.673H85.8023V183.751H84.1105V181.875C83.5037 182.96 82.198 183.916 80.3407 183.916C77.6558 183.916 75.5778 181.801 75.5778 178.675ZM84.1105 178.694C84.1105 176.358 82.529 174.961 80.6901 174.961C78.8511 174.961 77.288 176.303 77.288 178.675C77.288 181.047 78.8511 182.445 80.6901 182.445C82.529 182.445 84.1105 181.066 84.1105 178.694ZM87.7108 183.751V170.143H89.3842V183.751H87.7108ZM91.6847 180.992V175.053H90.379V173.673H91.6847V171.136H93.3581V173.673H95.9878V175.053H93.3581V180.992C93.3581 181.985 93.7259 182.335 94.7557 182.335H95.9878V183.751H94.4798C92.6961 183.751 91.6847 183.015 91.6847 180.992ZM97.0959 183.751V170.143H98.7693V175.126C99.4313 174.059 100.682 173.489 102.098 173.489C104.341 173.489 106.125 174.924 106.125 177.811V183.751H104.47V178.05C104.47 175.99 103.348 174.942 101.656 174.942C99.9463 174.942 98.7693 176.009 98.7693 178.179V183.751H97.0959ZM119.646 173.673H117.973C118.009 172.625 117.31 172.055 116.409 172.055C115.416 172.055 114.773 172.68 114.773 173.526C114.773 174.28 115.196 174.905 116.097 175.862L119.922 179.705C120.032 179.54 120.142 179.374 120.253 179.19L121.503 177.094H123.305L121.798 179.705C121.558 180.128 121.319 180.496 121.062 180.864L123.949 183.751H121.761L120.087 182.059C118.855 183.346 117.476 183.971 115.674 183.971C113.007 183.971 111.187 182.445 111.187 180.073C111.187 178.307 112.198 176.891 114.203 176.101C113.412 175.181 113.099 174.464 113.099 173.526C113.099 171.89 114.405 170.676 116.483 170.676C118.506 170.676 119.738 171.963 119.646 173.673ZM115.674 182.537C116.998 182.537 118.028 182.022 118.984 180.956L115.214 177.167C113.614 177.774 112.86 178.73 112.86 180.018C112.86 181.452 114 182.537 115.674 182.537ZM131.174 183.769L127.588 170.933H129.371L132.167 181.801L135.256 170.933H137.132L140.074 181.765L142.888 170.933H144.69L140.975 183.751H139.099L136.12 173.434L133.031 183.751L131.174 183.769ZM149.886 174.924C148.25 174.924 146.889 176.009 146.705 177.976H153.068C153.086 176.009 151.615 174.924 149.886 174.924ZM154.594 180.643C154.079 182.482 152.461 183.916 149.96 183.916C147.091 183.916 144.976 181.893 144.976 178.694C144.976 175.512 147.018 173.508 149.96 173.508C152.884 173.508 154.796 175.567 154.796 178.326C154.796 178.694 154.778 178.988 154.741 179.337H146.687C146.815 181.378 148.25 182.5 149.96 182.5C151.468 182.5 152.424 181.728 152.792 180.643H154.594ZM156.086 183.751V170.143H157.759V183.751H156.086ZM159.692 183.751V170.143H161.365V183.751H159.692ZM170.672 183.751V178.05C170.672 175.99 169.55 174.942 167.858 174.942C166.148 174.942 164.971 176.009 164.971 178.179V183.751H163.298V173.673H164.971V175.108C165.633 174.059 166.847 173.489 168.208 173.489C170.543 173.489 172.327 174.924 172.327 177.811V183.751H170.672ZM178.426 174.924C176.789 174.924 175.428 176.009 175.245 177.976H181.607C181.626 176.009 180.155 174.924 178.426 174.924ZM183.134 180.643C182.619 182.482 181 183.916 178.499 183.916C175.631 183.916 173.516 181.893 173.516 178.694C173.516 175.512 175.557 173.508 178.499 173.508C181.423 173.508 183.336 175.567 183.336 178.326C183.336 178.694 183.318 178.988 183.281 179.337H175.226C175.355 181.378 176.789 182.5 178.499 182.5C180.007 182.5 180.964 181.728 181.331 180.643H183.134ZM191.871 181.011C191.871 182.666 190.418 183.916 188.193 183.916C185.839 183.916 184.184 182.629 184.074 180.79H185.802C185.894 181.765 186.758 182.5 188.174 182.5C189.499 182.5 190.234 181.838 190.234 181.011C190.234 178.767 184.276 180.073 184.276 176.321C184.276 174.777 185.729 173.508 187.972 173.508C190.197 173.508 191.668 174.703 191.779 176.671H190.105C190.032 175.659 189.259 174.924 187.917 174.924C186.685 174.924 185.949 175.512 185.949 176.321C185.949 178.712 191.797 177.406 191.871 181.011ZM200.559 181.011C200.559 182.666 199.106 183.916 196.881 183.916C194.527 183.916 192.872 182.629 192.762 180.79H194.491C194.582 181.765 195.447 182.5 196.863 182.5C198.187 182.5 198.922 181.838 198.922 181.011C198.922 178.767 192.964 180.073 192.964 176.321C192.964 174.777 194.417 173.508 196.66 173.508C198.886 173.508 200.357 174.703 200.467 176.671H198.794C198.72 175.659 197.948 174.924 196.605 174.924C195.373 174.924 194.638 175.512 194.638 176.321C194.638 178.712 200.485 177.406 200.559 181.011ZM205.36 177.333C205.36 173.489 208.173 170.768 211.759 170.768C214.536 170.768 216.743 172.165 217.699 174.648H215.695C214.996 173.103 213.635 172.239 211.759 172.239C209.075 172.239 207.07 174.188 207.07 177.333C207.07 180.459 209.075 182.408 211.759 182.408C213.635 182.408 214.996 181.544 215.695 180.018H217.699C216.743 182.482 214.536 183.861 211.759 183.861C208.173 183.861 205.36 181.176 205.36 177.333ZM228.833 178.694C228.833 181.893 226.535 183.916 223.666 183.916C220.815 183.916 218.646 181.893 218.646 178.694C218.646 175.512 220.889 173.508 223.739 173.508C226.608 173.508 228.833 175.512 228.833 178.694ZM220.356 178.694C220.356 181.25 221.919 182.445 223.666 182.445C225.413 182.445 227.123 181.25 227.123 178.694C227.123 176.156 225.45 174.961 223.721 174.961C221.956 174.961 220.356 176.156 220.356 178.694ZM237.488 183.751V178.05C237.488 175.99 236.366 174.942 234.675 174.942C232.964 174.942 231.788 176.009 231.788 178.179V183.751H230.114V173.673H231.788V175.108C232.45 174.059 233.663 173.489 235.024 173.489C237.36 173.489 239.143 174.924 239.143 177.811V183.751H237.488ZM248.203 181.011C248.203 182.666 246.75 183.916 244.525 183.916C242.171 183.916 240.516 182.629 240.406 180.79H242.134C242.226 181.765 243.091 182.5 244.507 182.5C245.831 182.5 246.566 181.838 246.566 181.011C246.566 178.767 240.608 180.073 240.608 176.321C240.608 174.777 242.061 173.508 244.304 173.508C246.529 173.508 248.001 174.703 248.111 176.671H246.437C246.364 175.659 245.591 174.924 244.249 174.924C243.017 174.924 242.281 175.512 242.281 176.321C242.281 178.712 248.129 177.406 248.203 181.011ZM258.583 173.673V183.751H256.909V182.261C256.266 183.309 255.034 183.898 253.691 183.898C251.374 183.898 249.554 182.463 249.554 179.576V173.673H251.209V179.356C251.209 181.397 252.331 182.445 254.022 182.445C255.751 182.445 256.909 181.378 256.909 179.209V173.673H258.583ZM260.489 183.751V170.143H262.162V183.751H260.489ZM264.463 180.992V175.053H263.157V173.673H264.463V171.136H266.136V173.673H268.766V175.053H266.136V180.992C266.136 181.985 266.504 182.335 267.534 182.335H268.766V183.751H267.258C265.474 183.751 264.463 183.015 264.463 180.992ZM269.249 178.675C269.249 175.531 271.327 173.508 274.03 173.508C275.906 173.508 277.193 174.464 277.782 175.512V173.673H279.473V183.751H277.782V181.875C277.175 182.96 275.869 183.916 274.012 183.916C271.327 183.916 269.249 181.801 269.249 178.675ZM277.782 178.694C277.782 176.358 276.2 174.961 274.361 174.961C272.522 174.961 270.959 176.303 270.959 178.675C270.959 181.047 272.522 182.445 274.361 182.445C276.2 182.445 277.782 181.066 277.782 178.694ZM281.75 180.992V175.053H280.444V173.673H281.75V171.136H283.423V173.673H286.053V175.053H283.423V180.992C283.423 181.985 283.791 182.335 284.821 182.335H286.053V183.751H284.545C282.761 183.751 281.75 183.015 281.75 180.992ZM287.161 183.751V173.673H288.834V183.751H287.161ZM288.025 172.037C287.382 172.037 286.885 171.54 286.885 170.897C286.885 170.253 287.382 169.756 288.025 169.756C288.632 169.756 289.129 170.253 289.129 170.897C289.129 171.54 288.632 172.037 288.025 172.037ZM300.329 178.694C300.329 181.893 298.031 183.916 295.162 183.916C292.312 183.916 290.142 181.893 290.142 178.694C290.142 175.512 292.385 173.508 295.236 173.508C298.104 173.508 300.329 175.512 300.329 178.694ZM291.852 178.694C291.852 181.25 293.415 182.445 295.162 182.445C296.909 182.445 298.619 181.25 298.619 178.694C298.619 176.156 296.946 174.961 295.217 174.961C293.452 174.961 291.852 176.156 291.852 178.694ZM308.984 183.751V178.05C308.984 175.99 307.863 174.942 306.171 174.942C304.461 174.942 303.284 176.009 303.284 178.179V183.751H301.61V173.673H303.284V175.108C303.946 174.059 305.159 173.489 306.52 173.489C308.856 173.489 310.639 174.924 310.639 177.811V183.751H308.984ZM319.699 181.011C319.699 182.666 318.246 183.916 316.021 183.916C313.667 183.916 312.012 182.629 311.902 180.79H313.63C313.722 181.765 314.587 182.5 316.003 182.5C317.327 182.5 318.062 181.838 318.062 181.011C318.062 178.767 312.104 180.073 312.104 176.321C312.104 174.777 313.557 173.508 315.8 173.508C318.025 173.508 319.497 174.703 319.607 176.671H317.934C317.86 175.659 317.088 174.924 315.745 174.924C314.513 174.924 313.778 175.512 313.778 176.321C313.778 178.712 319.625 177.406 319.699 181.011ZM55.5972 217.02H58.0614C59.9739 217.02 60.7831 216.119 60.7831 214.685C60.7831 213.195 59.9739 212.312 58.0614 212.312H55.5972V217.02ZM62.4933 214.685C62.4933 216.634 61.2428 218.399 58.0614 218.399H55.5972V223.751H53.9238V210.933H58.0614C61.0773 210.933 62.4933 212.588 62.4933 214.685ZM67.9384 214.924C66.3018 214.924 64.9409 216.009 64.757 217.976H71.1198C71.1382 216.009 69.667 214.924 67.9384 214.924ZM72.6461 220.643C72.1312 222.482 70.5129 223.916 68.012 223.916C65.1432 223.916 63.0284 221.893 63.0284 218.694C63.0284 215.512 65.0697 213.508 68.012 213.508C70.9359 213.508 72.8484 215.567 72.8484 218.326C72.8484 218.694 72.83 218.988 72.7932 219.337H64.7387C64.8674 221.378 66.3018 222.5 68.012 222.5C69.5199 222.5 70.4762 221.728 70.844 220.643H72.6461ZM75.8113 218.271V223.751H74.1378V213.673H75.8113V215.31C76.3813 214.188 77.4663 213.489 79.0662 213.489V215.218H78.6248C77.025 215.218 75.8113 215.935 75.8113 218.271ZM87.3239 221.011C87.3239 222.666 85.8711 223.916 83.646 223.916C81.2922 223.916 79.6371 222.629 79.5268 220.79H81.2554C81.3473 221.765 82.2116 222.5 83.6276 222.5C84.9517 222.5 85.6873 221.838 85.6873 221.011C85.6873 218.767 79.7291 220.073 79.7291 216.321C79.7291 214.777 81.1818 213.508 83.4254 213.508C85.6505 213.508 87.1216 214.703 87.232 216.671H85.5585C85.485 215.659 84.7126 214.924 83.3702 214.924C82.1381 214.924 81.4025 215.512 81.4025 216.321C81.4025 218.712 87.2504 217.406 87.3239 221.011ZM98.3293 218.694C98.3293 221.893 96.0306 223.916 93.1618 223.916C90.3115 223.916 88.1415 221.893 88.1415 218.694C88.1415 215.512 90.385 213.508 93.2354 213.508C96.1042 213.508 98.3293 215.512 98.3293 218.694ZM89.8517 218.694C89.8517 221.25 91.4148 222.445 93.1618 222.445C94.9088 222.445 96.6191 221.25 96.6191 218.694C96.6191 216.156 94.9456 214.961 93.217 214.961C91.4516 214.961 89.8517 216.156 89.8517 218.694ZM106.984 223.751V218.05C106.984 215.99 105.862 214.942 104.171 214.942C102.46 214.942 101.284 216.009 101.284 218.179V223.751H99.6101V213.673H101.284V215.108C101.946 214.059 103.159 213.489 104.52 213.489C106.856 213.489 108.639 214.924 108.639 217.811V223.751H106.984ZM109.828 218.675C109.828 215.531 111.906 213.508 114.609 213.508C116.485 213.508 117.772 214.464 118.361 215.512V213.673H120.053V223.751H118.361V221.875C117.754 222.96 116.448 223.916 114.591 223.916C111.906 223.916 109.828 221.801 109.828 218.675ZM118.361 218.694C118.361 216.358 116.779 214.961 114.94 214.961C113.101 214.961 111.538 216.303 111.538 218.675C111.538 221.047 113.101 222.445 114.94 222.445C116.779 222.445 118.361 221.066 118.361 218.694ZM121.961 223.751V210.143H123.635V223.751H121.961ZM125.567 223.751V213.673H127.241V223.751H125.567ZM126.432 212.037C125.788 212.037 125.291 211.54 125.291 210.897C125.291 210.253 125.788 209.756 126.432 209.756C127.038 209.756 127.535 210.253 127.535 210.897C127.535 211.54 127.038 212.037 126.432 212.037ZM135.334 213.673V215.034L130.424 222.372H135.371V223.751H128.511V222.372L133.403 215.034H128.548V213.673H135.334ZM140.907 214.924C139.27 214.924 137.91 216.009 137.726 217.976H144.089C144.107 216.009 142.636 214.924 140.907 214.924ZM145.615 220.643C145.1 222.482 143.482 223.916 140.981 223.916C138.112 223.916 135.997 221.893 135.997 218.694C135.997 215.512 138.038 213.508 140.981 213.508C143.905 213.508 145.817 215.567 145.817 218.326C145.817 218.694 145.799 218.988 145.762 219.337H137.707C137.836 221.378 139.27 222.5 140.981 222.5C142.489 222.5 143.445 221.728 143.813 220.643H145.615ZM146.481 218.675C146.481 215.531 148.559 213.508 151.281 213.508C152.862 213.508 154.315 214.317 155.014 215.475V210.143H156.706V223.751H155.014V221.857C154.407 222.978 153.102 223.916 151.263 223.916C148.559 223.916 146.481 221.801 146.481 218.675ZM155.014 218.694C155.014 216.358 153.433 214.961 151.594 214.961C149.755 214.961 148.192 216.303 148.192 218.675C148.192 221.047 149.755 222.445 151.594 222.445C153.433 222.445 155.014 221.066 155.014 218.694ZM165.19 223.769L161.604 210.933H163.388L166.183 221.801L169.273 210.933H171.149L174.091 221.765L176.904 210.933H178.707L174.992 223.751H173.116L170.137 213.434L167.048 223.751L165.19 223.769ZM183.903 214.924C182.267 214.924 180.906 216.009 180.722 217.976H187.085C187.103 216.009 185.632 214.924 183.903 214.924ZM188.611 220.643C188.096 222.482 186.478 223.916 183.977 223.916C181.108 223.916 178.993 221.893 178.993 218.694C178.993 215.512 181.034 213.508 183.977 213.508C186.901 213.508 188.813 215.567 188.813 218.326C188.813 218.694 188.795 218.988 188.758 219.337H180.703C180.832 221.378 182.267 222.5 183.977 222.5C185.485 222.5 186.441 221.728 186.809 220.643H188.611ZM190.103 223.751V210.143H191.776V223.751H190.103ZM193.709 223.751V210.143H195.382V223.751H193.709ZM204.689 223.751V218.05C204.689 215.99 203.567 214.942 201.875 214.942C200.165 214.942 198.988 216.009 198.988 218.179V223.751H197.315V213.673H198.988V215.108C199.65 214.059 200.864 213.489 202.225 213.489C204.56 213.489 206.344 214.924 206.344 217.811V223.751H204.689ZM212.443 214.924C210.806 214.924 209.445 216.009 209.261 217.976H215.624C215.643 216.009 214.171 214.924 212.443 214.924ZM217.151 220.643C216.636 222.482 215.017 223.916 212.516 223.916C209.648 223.916 207.533 221.893 207.533 218.694C207.533 215.512 209.574 213.508 212.516 213.508C215.44 213.508 217.353 215.567 217.353 218.326C217.353 218.694 217.334 218.988 217.298 219.337H209.243C209.372 221.378 210.806 222.5 212.516 222.5C214.024 222.5 214.981 221.728 215.348 220.643H217.151ZM225.888 221.011C225.888 222.666 224.435 223.916 222.21 223.916C219.856 223.916 218.201 222.629 218.091 220.79H219.819C219.911 221.765 220.775 222.5 222.191 222.5C223.515 222.5 224.251 221.838 224.251 221.011C224.251 218.767 218.293 220.073 218.293 216.321C218.293 214.777 219.746 213.508 221.989 213.508C224.214 213.508 225.685 214.703 225.796 216.671H224.122C224.049 215.659 223.276 214.924 221.934 214.924C220.702 214.924 219.966 215.512 219.966 216.321C219.966 218.712 225.814 217.406 225.888 221.011ZM234.576 221.011C234.576 222.666 233.123 223.916 230.898 223.916C228.544 223.916 226.889 222.629 226.779 220.79H228.507C228.599 221.765 229.464 222.5 230.88 222.5C232.204 222.5 232.939 221.838 232.939 221.011C232.939 218.767 226.981 220.073 226.981 216.321C226.981 214.777 228.434 213.508 230.677 213.508C232.902 213.508 234.374 214.703 234.484 216.671H232.811C232.737 215.659 231.965 214.924 230.622 214.924C229.39 214.924 228.655 215.512 228.655 216.321C228.655 218.712 234.502 217.406 234.576 221.011ZM241.675 217.02H244.14C246.052 217.02 246.861 216.119 246.861 214.685C246.861 213.195 246.052 212.312 244.14 212.312H241.675V217.02ZM248.571 214.685C248.571 216.634 247.321 218.399 244.14 218.399H241.675V223.751H240.002V210.933H244.14C247.155 210.933 248.571 212.588 248.571 214.685ZM249.732 223.751V210.143H251.405V223.751H249.732ZM252.713 218.675C252.713 215.531 254.791 213.508 257.494 213.508C259.37 213.508 260.657 214.464 261.245 215.512V213.673H262.937V223.751H261.245V221.875C260.639 222.96 259.333 223.916 257.476 223.916C254.791 223.916 252.713 221.801 252.713 218.675ZM261.245 218.694C261.245 216.358 259.664 214.961 257.825 214.961C255.986 214.961 254.423 216.303 254.423 218.675C254.423 221.047 255.986 222.445 257.825 222.445C259.664 222.445 261.245 221.066 261.245 218.694ZM272.22 223.751V218.05C272.22 215.99 271.098 214.942 269.406 214.942C267.696 214.942 266.519 216.009 266.519 218.179V223.751H264.846V213.673H266.519V215.108C267.181 214.059 268.395 213.489 269.756 213.489C272.091 213.489 273.875 214.924 273.875 217.811V223.751H272.22ZM282.934 221.011C282.934 222.666 281.482 223.916 279.257 223.916C276.903 223.916 275.248 222.629 275.137 220.79H276.866C276.958 221.765 277.822 222.5 279.238 222.5C280.562 222.5 281.298 221.838 281.298 221.011C281.298 218.767 275.34 220.073 275.34 216.321C275.34 214.777 276.792 213.508 279.036 213.508C281.261 213.508 282.732 214.703 282.842 216.671H281.169C281.095 215.659 280.323 214.924 278.981 214.924C277.749 214.924 277.013 215.512 277.013 216.321C277.013 218.712 282.861 217.406 282.934 221.011Z" fill="black" fill-opacity="0.8"/>
<path d="M396.819 60.3964C396.819 58.9804 395.753 58.0977 394.116 58.0977H391.211V62.6215H394.171C395.826 62.6215 396.819 61.794 396.819 60.3964ZM396.488 54.6405C396.488 53.3716 395.624 52.5625 393.987 52.5625H391.211V56.7185H394.024C395.587 56.7185 396.488 55.9462 396.488 54.6405ZM398.493 60.5619C398.493 62.4928 396.966 64.0007 394.318 64.0007H389.537V51.1833H394.134C396.838 51.1833 398.199 52.6544 398.199 54.4382C398.199 56.0565 397.187 56.9944 395.955 57.3989C397.353 57.638 398.493 58.9804 398.493 60.5619ZM404.18 55.1738C402.544 55.1738 401.183 56.2588 400.999 58.2264H407.362C407.38 56.2588 405.909 55.1738 404.18 55.1738ZM408.888 60.8929C408.373 62.7319 406.755 64.1662 404.254 64.1662C401.385 64.1662 399.27 62.1434 399.27 58.9436C399.27 55.7623 401.311 53.7578 404.254 53.7578C407.178 53.7578 409.09 55.8174 409.09 58.5758C409.09 58.9436 409.072 59.2379 409.035 59.5873H400.98C401.109 61.6285 402.544 62.7503 404.254 62.7503C405.762 62.7503 406.718 61.9779 407.086 60.8929H408.888ZM409.754 58.9252C409.754 55.7807 411.832 53.7578 414.536 53.7578C416.411 53.7578 417.699 54.7141 418.287 55.7623V53.9233H419.979V64.0007H418.287V62.125C417.68 63.21 416.375 64.1662 414.517 64.1662C411.832 64.1662 409.754 62.0515 409.754 58.9252ZM418.287 58.9436C418.287 56.6082 416.706 55.2106 414.867 55.2106C413.028 55.2106 411.465 56.553 411.465 58.9252C411.465 61.2975 413.028 62.6951 414.867 62.6951C416.706 62.6951 418.287 61.3159 418.287 58.9436ZM430.825 53.9233V64.0007H429.151V62.5112C428.508 63.5594 427.276 64.1478 425.933 64.1478C423.616 64.1478 421.795 62.7135 421.795 59.8263V53.9233H423.451V59.6057C423.451 61.6469 424.572 62.6951 426.264 62.6951C427.993 62.6951 429.151 61.6285 429.151 59.4585V53.9233H430.825ZM433.099 61.2423V55.3025H431.793V53.9233H433.099V51.3856H434.772V53.9233H437.402V55.3025H434.772V61.2423C434.772 62.2353 435.14 62.5847 436.17 62.5847H437.402V64.0007H435.894C434.11 64.0007 433.099 63.2652 433.099 61.2423ZM442.335 62.0882L445.461 53.9233H447.19L441.121 68.7452H439.392L441.379 63.8904L437.314 53.9233H439.172L442.335 62.0882ZM451.31 58.9252C451.31 55.7807 453.388 53.7578 456.091 53.7578C457.967 53.7578 459.254 54.7141 459.843 55.7623V53.9233H461.535V64.0007H459.843V62.125C459.236 63.21 457.93 64.1662 456.073 64.1662C453.388 64.1662 451.31 62.0515 451.31 58.9252ZM459.843 58.9436C459.843 56.6082 458.261 55.2106 456.423 55.2106C454.584 55.2106 453.02 56.553 453.02 58.9252C453.02 61.2975 454.584 62.6951 456.423 62.6951C458.261 62.6951 459.843 61.3159 459.843 58.9436ZM470.817 64.0007V58.3C470.817 56.2404 469.696 55.1922 468.004 55.1922C466.294 55.1922 465.117 56.2588 465.117 58.4287V64.0007H463.443V53.9233H465.117V55.3577C465.779 54.3095 466.992 53.7394 468.353 53.7394C470.689 53.7394 472.472 55.1738 472.472 58.0609V64.0007H470.817ZM473.661 58.9252C473.661 55.7807 475.739 53.7578 478.461 53.7578C480.042 53.7578 481.495 54.5669 482.194 55.7255V50.3925H483.886V64.0007H482.194V62.1066C481.587 63.2284 480.282 64.1662 478.443 64.1662C475.739 64.1662 473.661 62.0515 473.661 58.9252ZM482.194 58.9436C482.194 56.6082 480.613 55.2106 478.774 55.2106C476.935 55.2106 475.372 56.553 475.372 58.9252C475.372 61.2975 476.935 62.6951 478.774 62.6951C480.613 62.6951 482.194 61.3159 482.194 58.9436ZM492.37 64.0191L488.784 51.1833H490.568L493.363 62.0515L496.453 51.1833H498.329L501.271 62.0147L504.084 51.1833H505.887L502.172 64.0007H500.296L497.317 53.6843L494.228 64.0007L492.37 64.0191ZM511.083 55.1738C509.447 55.1738 508.086 56.2588 507.902 58.2264H514.265C514.283 56.2588 512.812 55.1738 511.083 55.1738ZM515.791 60.8929C515.276 62.7319 513.658 64.1662 511.157 64.1662C508.288 64.1662 506.173 62.1434 506.173 58.9436C506.173 55.7623 508.214 53.7578 511.157 53.7578C514.081 53.7578 515.993 55.8174 515.993 58.5758C515.993 58.9436 515.975 59.2379 515.938 59.5873H507.883C508.012 61.6285 509.447 62.7503 511.157 62.7503C512.665 62.7503 513.621 61.9779 513.989 60.8929H515.791ZM517.283 64.0007V50.3925H518.956V64.0007H517.283ZM520.889 64.0007V50.3925H522.562V64.0007H520.889ZM531.869 64.0007V58.3C531.869 56.2404 530.747 55.1922 529.055 55.1922C527.345 55.1922 526.168 56.2588 526.168 58.4287V64.0007H524.495V53.9233H526.168V55.3577C526.83 54.3095 528.044 53.7394 529.405 53.7394C531.74 53.7394 533.524 55.1738 533.524 58.0609V64.0007H531.869ZM539.623 55.1738C537.986 55.1738 536.625 56.2588 536.441 58.2264H542.804C542.823 56.2588 541.351 55.1738 539.623 55.1738ZM544.33 60.8929C543.816 62.7319 542.197 64.1662 539.696 64.1662C536.828 64.1662 534.713 62.1434 534.713 58.9436C534.713 55.7623 536.754 53.7578 539.696 53.7578C542.62 53.7578 544.533 55.8174 544.533 58.5758C544.533 58.9436 544.514 59.2379 544.478 59.5873H536.423C536.552 61.6285 537.986 62.7503 539.696 62.7503C541.204 62.7503 542.161 61.9779 542.528 60.8929H544.33ZM553.068 61.2607C553.068 62.9158 551.615 64.1662 549.39 64.1662C547.036 64.1662 545.381 62.879 545.271 61.04H546.999C547.091 62.0147 547.955 62.7503 549.371 62.7503C550.695 62.7503 551.431 62.0882 551.431 61.2607C551.431 59.0172 545.473 60.3228 545.473 56.5714C545.473 55.0267 546.926 53.7578 549.169 53.7578C551.394 53.7578 552.865 54.9531 552.976 56.9208H551.302C551.229 55.9094 550.456 55.1738 549.114 55.1738C547.882 55.1738 547.146 55.7623 547.146 56.5714C547.146 58.962 552.994 57.6564 553.068 61.2607ZM561.756 61.2607C561.756 62.9158 560.303 64.1662 558.078 64.1662C555.724 64.1662 554.069 62.879 553.959 61.04H555.687C555.779 62.0147 556.644 62.7503 558.06 62.7503C559.384 62.7503 560.119 62.0882 560.119 61.2607C560.119 59.0172 554.161 60.3228 554.161 56.5714C554.161 55.0267 555.614 53.7578 557.857 53.7578C560.083 53.7578 561.554 54.9531 561.664 56.9208H559.991C559.917 55.9094 559.145 55.1738 557.802 55.1738C556.57 55.1738 555.835 55.7623 555.835 56.5714C555.835 58.962 561.682 57.6564 561.756 61.2607ZM566.557 57.5828C566.557 53.7394 569.37 51.0178 572.956 51.0178C575.733 51.0178 577.94 52.4154 578.896 54.898H576.892C576.193 53.3532 574.832 52.4889 572.956 52.4889C570.271 52.4889 568.267 54.4382 568.267 57.5828C568.267 60.709 570.271 62.6583 572.956 62.6583C574.832 62.6583 576.193 61.794 576.892 60.2677H578.896C577.94 62.7319 575.733 64.1111 572.956 64.1111C569.37 64.1111 566.557 61.4262 566.557 57.5828ZM590.03 58.9436C590.03 62.1434 587.731 64.1662 584.863 64.1662C582.012 64.1662 579.842 62.1434 579.842 58.9436C579.842 55.7623 582.086 53.7578 584.936 53.7578C587.805 53.7578 590.03 55.7623 590.03 58.9436ZM581.553 58.9436C581.553 61.4998 583.116 62.6951 584.863 62.6951C586.61 62.6951 588.32 61.4998 588.32 58.9436C588.32 56.4059 586.646 55.2106 584.918 55.2106C583.152 55.2106 581.553 56.4059 581.553 58.9436ZM598.685 64.0007V58.3C598.685 56.2404 597.563 55.1922 595.872 55.1922C594.161 55.1922 592.984 56.2588 592.984 58.4287V64.0007H591.311V53.9233H592.984V55.3577C593.646 54.3095 594.86 53.7394 596.221 53.7394C598.556 53.7394 600.34 55.1738 600.34 58.0609V64.0007H598.685ZM602.522 61.2423V55.3025H601.216V53.9233H602.522V51.3856H604.195V53.9233H606.825V55.3025H604.195V61.2423C604.195 62.2353 604.563 62.5847 605.593 62.5847H606.825V64.0007H605.317C603.533 64.0007 602.522 63.2652 602.522 61.2423ZM612.218 55.1738C610.581 55.1738 609.221 56.2588 609.037 58.2264H615.399C615.418 56.2588 613.947 55.1738 612.218 55.1738ZM616.926 60.8929C616.411 62.7319 614.793 64.1662 612.292 64.1662C609.423 64.1662 607.308 62.1434 607.308 58.9436C607.308 55.7623 609.349 53.7578 612.292 53.7578C615.215 53.7578 617.128 55.8174 617.128 58.5758C617.128 58.9436 617.11 59.2379 617.073 59.5873H609.018C609.147 61.6285 610.581 62.7503 612.292 62.7503C613.799 62.7503 614.756 61.9779 615.124 60.8929H616.926ZM625.792 64.0007V58.3C625.792 56.2404 624.67 55.1922 622.978 55.1922C621.268 55.1922 620.091 56.2588 620.091 58.4287V64.0007H618.417V53.9233H620.091V55.3577C620.753 54.3095 621.967 53.7394 623.327 53.7394C625.663 53.7394 627.447 55.1738 627.447 58.0609V64.0007H625.792ZM629.628 61.2423V55.3025H628.323V53.9233H629.628V51.3856H631.302V53.9233H633.932V55.3025H631.302V61.2423C631.302 62.2353 631.67 62.5847 632.7 62.5847H633.932V64.0007H632.424C630.64 64.0007 629.628 63.2652 629.628 61.2423ZM397.867 100.507C397.867 102.327 396.378 104.129 393.601 104.129C391.027 104.129 389.206 102.695 389.169 100.58H390.953C391.063 101.647 391.817 102.713 393.601 102.713C395.219 102.713 396.176 101.794 396.176 100.58C396.176 97.1231 389.243 99.3298 389.243 94.5669C389.243 92.4522 390.953 91.0178 393.491 91.0178C395.937 91.0178 397.536 92.3602 397.739 94.3095H395.9C395.789 93.4452 394.98 92.4706 393.417 92.4522C392.038 92.4154 390.953 93.1326 390.953 94.5118C390.953 97.8219 397.867 95.7623 397.867 100.507ZM399.778 101.242V95.3025H398.473V93.9233H399.778V91.3856H401.452V93.9233H404.082V95.3025H401.452V101.242C401.452 102.235 401.82 102.585 402.849 102.585H404.082V104.001H402.574C400.79 104.001 399.778 103.265 399.778 101.242ZM414.752 98.9436C414.752 102.143 412.453 104.166 409.585 104.166C406.734 104.166 404.564 102.143 404.564 98.9436C404.564 95.7623 406.808 93.7578 409.658 93.7578C412.527 93.7578 414.752 95.7623 414.752 98.9436ZM406.275 98.9436C406.275 101.5 407.838 102.695 409.585 102.695C411.332 102.695 413.042 101.5 413.042 98.9436C413.042 96.4059 411.369 95.2106 409.64 95.2106C407.875 95.2106 406.275 96.4059 406.275 98.9436ZM417.706 98.5207V104.001H416.033V93.9233H417.706V95.56C418.276 94.4382 419.361 93.7394 420.961 93.7394V95.468H420.52C418.92 95.468 417.706 96.1852 417.706 98.5207ZM426.258 95.1738C424.622 95.1738 423.261 96.2588 423.077 98.2264H429.44C429.458 96.2588 427.987 95.1738 426.258 95.1738ZM430.966 100.893C430.451 102.732 428.833 104.166 426.332 104.166C423.463 104.166 421.348 102.143 421.348 98.9436C421.348 95.7623 423.39 93.7578 426.332 93.7578C429.256 93.7578 431.168 95.8174 431.168 98.5758C431.168 98.9436 431.15 99.2379 431.113 99.5873H423.059C423.187 101.628 424.622 102.75 426.332 102.75C427.84 102.75 428.796 101.978 429.164 100.893H430.966ZM436.441 91.1833H438.114V102.64H442.601V104.001H436.441V91.1833ZM453.022 98.9436C453.022 102.143 450.723 104.166 447.854 104.166C445.004 104.166 442.834 102.143 442.834 98.9436C442.834 95.7623 445.077 93.7578 447.928 93.7578C450.796 93.7578 453.022 95.7623 453.022 98.9436ZM444.544 98.9436C444.544 101.5 446.107 102.695 447.854 102.695C449.601 102.695 451.311 101.5 451.311 98.9436C451.311 96.4059 449.638 95.2106 447.909 95.2106C446.144 95.2106 444.544 96.4059 444.544 98.9436ZM453.677 98.9436C453.677 95.7807 455.718 93.7578 458.587 93.7578C461.088 93.7578 462.725 95.0451 463.24 97.1599H461.438C461.088 95.9462 460.077 95.1738 458.587 95.1738C456.748 95.1738 455.387 96.4795 455.387 98.9436C455.387 101.445 456.748 102.75 458.587 102.75C460.077 102.75 461.07 102.033 461.438 100.764H463.24C462.725 102.769 461.088 104.166 458.587 104.166C455.718 104.166 453.677 102.143 453.677 98.9436ZM463.928 98.9252C463.928 95.7807 466.006 93.7578 468.709 93.7578C470.585 93.7578 471.872 94.7141 472.461 95.7623V93.9233H474.152V104.001H472.461V102.125C471.854 103.21 470.548 104.166 468.691 104.166C466.006 104.166 463.928 102.051 463.928 98.9252ZM472.461 98.9436C472.461 96.6082 470.879 95.2106 469.04 95.2106C467.201 95.2106 465.638 96.553 465.638 98.9252C465.638 101.297 467.201 102.695 469.04 102.695C470.879 102.695 472.461 101.316 472.461 98.9436ZM476.429 101.242V95.3025H475.123V93.9233H476.429V91.3856H478.102V93.9233H480.732V95.3025H478.102V101.242C478.102 102.235 478.47 102.585 479.5 102.585H480.732V104.001H479.224C477.44 104.001 476.429 103.265 476.429 101.242ZM491.402 98.9436C491.402 102.143 489.104 104.166 486.235 104.166C483.385 104.166 481.215 102.143 481.215 98.9436C481.215 95.7623 483.458 93.7578 486.309 93.7578C489.177 93.7578 491.402 95.7623 491.402 98.9436ZM482.925 98.9436C482.925 101.5 484.488 102.695 486.235 102.695C487.982 102.695 489.692 101.5 489.692 98.9436C489.692 96.4059 488.019 95.2106 486.29 95.2106C484.525 95.2106 482.925 96.4059 482.925 98.9436ZM494.357 98.5207V104.001H492.683V93.9233H494.357V95.56C494.927 94.4382 496.012 93.7394 497.612 93.7394V95.468H497.17C495.57 95.468 494.357 96.1852 494.357 98.5207ZM501.982 98.9252C501.982 95.7807 504.06 93.7578 506.763 93.7578C508.639 93.7578 509.926 94.7141 510.514 95.7623V93.9233H512.206V104.001H510.514V102.125C509.908 103.21 508.602 104.166 506.745 104.166C504.06 104.166 501.982 102.051 501.982 98.9252ZM510.514 98.9436C510.514 96.6082 508.933 95.2106 507.094 95.2106C505.255 95.2106 503.692 96.553 503.692 98.9252C503.692 101.297 505.255 102.695 507.094 102.695C508.933 102.695 510.514 101.316 510.514 98.9436ZM521.489 104.001V98.3C521.489 96.2404 520.367 95.1922 518.675 95.1922C516.965 95.1922 515.788 96.2588 515.788 98.4287V104.001H514.115V93.9233H515.788V95.3577C516.45 94.3095 517.664 93.7394 519.025 93.7394C521.36 93.7394 523.144 95.1738 523.144 98.0609V104.001H521.489ZM524.333 98.9252C524.333 95.7807 526.411 93.7578 529.132 93.7578C530.714 93.7578 532.167 94.5669 532.866 95.7255V90.3925H534.557V104.001H532.866V102.107C532.259 103.228 530.953 104.166 529.114 104.166C526.411 104.166 524.333 102.051 524.333 98.9252ZM532.866 98.9436C532.866 96.6082 531.284 95.2106 529.445 95.2106C527.606 95.2106 526.043 96.553 526.043 98.9252C526.043 101.297 527.606 102.695 529.445 102.695C531.284 102.695 532.866 101.316 532.866 98.9436ZM547.731 100.396C547.731 98.9804 546.665 98.0977 545.028 98.0977H542.122V102.622H545.083C546.738 102.622 547.731 101.794 547.731 100.396ZM547.4 94.6405C547.4 93.3716 546.536 92.5625 544.899 92.5625H542.122V96.7185H544.936C546.499 96.7185 547.4 95.9462 547.4 94.6405ZM549.405 100.562C549.405 102.493 547.878 104.001 545.23 104.001H540.449V91.1833H545.046C547.75 91.1833 549.11 92.6544 549.11 94.4382C549.11 96.0565 548.099 96.9944 546.867 97.3989C548.265 97.638 549.405 98.9804 549.405 100.562ZM560.37 98.9436C560.37 102.143 558.071 104.166 555.203 104.166C552.352 104.166 550.182 102.143 550.182 98.9436C550.182 95.7623 552.426 93.7578 555.276 93.7578C558.145 93.7578 560.37 95.7623 560.37 98.9436ZM551.892 98.9436C551.892 101.5 553.456 102.695 555.203 102.695C556.95 102.695 558.66 101.5 558.66 98.9436C558.66 96.4059 556.986 95.2106 555.258 95.2106C553.492 95.2106 551.892 96.4059 551.892 98.9436ZM571.213 98.9436C571.213 102.143 568.915 104.166 566.046 104.166C563.195 104.166 561.026 102.143 561.026 98.9436C561.026 95.7623 563.269 93.7578 566.119 93.7578C568.988 93.7578 571.213 95.7623 571.213 98.9436ZM562.736 98.9436C562.736 101.5 564.299 102.695 566.046 102.695C567.793 102.695 569.503 101.5 569.503 98.9436C569.503 96.4059 567.83 95.2106 566.101 95.2106C564.336 95.2106 562.736 96.4059 562.736 98.9436ZM572.494 104.001V90.3925H574.168V98.392L578.048 93.9233H580.383L575.639 98.9436L580.402 104.001H578.121L574.168 99.5505V104.001H572.494ZM581.039 104.001V93.9233H582.712V104.001H581.039ZM581.903 92.2867C581.259 92.2867 580.763 91.7901 580.763 91.1465C580.763 90.5029 581.259 90.0064 581.903 90.0064C582.51 90.0064 583.006 90.5029 583.006 91.1465C583.006 91.7901 582.51 92.2867 581.903 92.2867ZM592.019 104.001V98.3C592.019 96.2404 590.897 95.1922 589.205 95.1922C587.495 95.1922 586.318 96.2588 586.318 98.4287V104.001H584.645V93.9233H586.318V95.3577C586.98 94.3095 588.194 93.7394 589.555 93.7394C591.89 93.7394 593.674 95.1738 593.674 98.0609V104.001H592.019ZM594.863 98.9252C594.863 95.7807 596.941 93.7578 599.644 93.7578C601.483 93.7578 602.807 94.6773 603.396 95.7623V93.9233H605.087V104.221C605.087 106.998 603.23 108.966 600.269 108.966C597.621 108.966 595.727 107.623 595.396 105.472H597.051C597.419 106.686 598.614 107.513 600.269 107.513C602.053 107.513 603.396 106.373 603.396 104.221V102.107C602.789 103.192 601.483 104.166 599.644 104.166C596.941 104.166 594.863 102.051 594.863 98.9252ZM603.396 98.9436C603.396 96.6082 601.814 95.2106 599.975 95.2106C598.136 95.2106 596.573 96.553 596.573 98.9252C596.573 101.297 598.136 102.695 599.975 102.695C601.814 102.695 603.396 101.316 603.396 98.9436ZM619.309 100.507C619.309 102.327 617.82 104.129 615.043 104.129C612.469 104.129 610.648 102.695 610.611 100.58H612.395C612.505 101.647 613.259 102.713 615.043 102.713C616.661 102.713 617.618 101.794 617.618 100.58C617.618 97.1231 610.685 99.3298 610.685 94.5669C610.685 92.4522 612.395 91.0178 614.933 91.0178C617.379 91.0178 618.978 92.3602 619.181 94.3095H617.342C617.231 93.4452 616.422 92.4706 614.859 92.4522C613.48 92.4154 612.395 93.1326 612.395 94.5118C612.395 97.8219 619.309 95.7623 619.309 100.507ZM624.678 102.088L627.804 93.9233H629.532L623.464 108.745H621.735L623.721 103.89L619.657 93.9233H621.515L624.678 102.088ZM637.541 101.261C637.541 102.916 636.088 104.166 633.863 104.166C631.509 104.166 629.854 102.879 629.743 101.04H631.472C631.564 102.015 632.428 102.75 633.844 102.75C635.168 102.75 635.904 102.088 635.904 101.261C635.904 99.0172 629.946 100.323 629.946 96.5714C629.946 95.0267 631.398 93.7578 633.642 93.7578C635.867 93.7578 637.338 94.9531 637.449 96.9208H635.775C635.702 95.9094 634.929 95.1738 633.587 95.1738C632.355 95.1738 631.619 95.7623 631.619 96.5714C631.619 98.962 637.467 97.6564 637.541 101.261ZM639.351 101.242V95.3025H638.046V93.9233H639.351V91.3856H641.025V93.9233H643.654V95.3025H641.025V101.242C641.025 102.235 641.392 102.585 642.422 102.585H643.654V104.001H642.146C640.363 104.001 639.351 103.265 639.351 101.242ZM649.047 95.1738C647.411 95.1738 646.05 96.2588 645.866 98.2264H652.229C652.247 96.2588 650.776 95.1738 649.047 95.1738ZM653.755 100.893C653.24 102.732 651.622 104.166 649.121 104.166C646.252 104.166 644.137 102.143 644.137 98.9436C644.137 95.7623 646.178 93.7578 649.121 93.7578C652.045 93.7578 653.957 95.8174 653.957 98.5758C653.957 98.9436 653.939 99.2379 653.902 99.5873H645.847C645.976 101.628 647.411 102.75 649.121 102.75C650.629 102.75 651.585 101.978 651.953 100.893H653.755ZM669.793 104.001V98.3C669.793 96.2404 668.689 95.1922 667.034 95.1922C665.342 95.1922 664.184 96.2772 664.184 98.4471V104.001H662.529V98.3C662.529 96.2404 661.425 95.1922 659.77 95.1922C658.079 95.1922 656.92 96.2772 656.92 98.4471V104.001H655.247V93.9233H656.92V95.3761C657.582 94.3095 658.777 93.7394 660.101 93.7394C661.756 93.7394 663.136 94.475 663.798 95.9829C664.386 94.5302 665.82 93.7394 667.365 93.7394C669.664 93.7394 671.448 95.1738 671.448 98.0609V104.001H669.793ZM397.867 140.507C397.867 142.327 396.378 144.129 393.601 144.129C391.027 144.129 389.206 142.695 389.169 140.58H390.953C391.063 141.647 391.817 142.713 393.601 142.713C395.219 142.713 396.176 141.794 396.176 140.58C396.176 137.123 389.243 139.33 389.243 134.567C389.243 132.452 390.953 131.018 393.491 131.018C395.937 131.018 397.536 132.36 397.739 134.309H395.9C395.789 133.445 394.98 132.471 393.417 132.452C392.038 132.415 390.953 133.133 390.953 134.512C390.953 137.822 397.867 135.762 397.867 140.507ZM401.084 135.781C401.691 134.714 403.015 133.758 404.854 133.758C407.557 133.758 409.635 135.781 409.635 138.925C409.635 142.051 407.557 144.166 404.854 144.166C403.015 144.166 401.709 143.173 401.084 142.143V148.782H399.411V133.923H401.084V135.781ZM407.925 138.925C407.925 136.553 406.362 135.211 404.505 135.211C402.684 135.211 401.084 136.608 401.084 138.944C401.084 141.316 402.684 142.695 404.505 142.695C406.362 142.695 407.925 141.297 407.925 138.925ZM410.293 138.925C410.293 135.781 412.371 133.758 415.074 133.758C416.95 133.758 418.237 134.714 418.826 135.762V133.923H420.518V144.001H418.826V142.125C418.219 143.21 416.913 144.166 415.056 144.166C412.371 144.166 410.293 142.051 410.293 138.925ZM418.826 138.944C418.826 136.608 417.244 135.211 415.405 135.211C413.566 135.211 412.003 136.553 412.003 138.925C412.003 141.297 413.566 142.695 415.405 142.695C417.244 142.695 418.826 141.316 418.826 138.944ZM432.22 131.036C434.924 131.036 437.167 132.434 438.123 134.898H436.119C435.42 133.408 434.023 132.544 432.22 132.544C429.517 132.544 427.494 134.493 427.494 137.583C427.494 140.654 429.517 142.603 432.22 142.603C434.74 142.603 436.468 140.985 436.726 138.447H431.614V137.086H438.51V138.374C438.215 141.555 435.696 144.111 432.22 144.111C428.616 144.111 425.784 141.426 425.784 137.583C425.784 133.739 428.616 131.036 432.22 131.036ZM439.803 144.001V133.923H441.476V144.001H439.803ZM440.667 132.287C440.023 132.287 439.527 131.79 439.527 131.147C439.527 130.503 440.023 130.006 440.667 130.006C441.274 130.006 441.77 130.503 441.77 131.147C441.77 131.79 441.274 132.287 440.667 132.287ZM443.721 144.001V135.303H442.416V133.923H443.721V133.206C443.721 130.963 444.825 129.951 447.399 129.951V131.349C445.891 131.349 445.395 131.9 445.395 133.206V133.923H447.51V135.303H445.395V144.001H443.721ZM448.909 141.242V135.303H447.603V133.923H448.909V131.386H450.583V133.923H453.212V135.303H450.583V141.242C450.583 142.235 450.95 142.585 451.98 142.585H453.212V144.001H451.704C449.921 144.001 448.909 143.265 448.909 141.242ZM457.678 137.583C457.678 133.739 460.492 131.018 464.078 131.018C466.855 131.018 469.061 132.415 470.018 134.898H468.013C467.314 133.353 465.954 132.489 464.078 132.489C461.393 132.489 459.389 134.438 459.389 137.583C459.389 140.709 461.393 142.658 464.078 142.658C465.954 142.658 467.314 141.794 468.013 140.268H470.018C469.061 142.732 466.855 144.111 464.078 144.111C460.492 144.111 457.678 141.426 457.678 137.583ZM470.964 138.925C470.964 135.781 473.042 133.758 475.745 133.758C477.621 133.758 478.908 134.714 479.497 135.762V133.923H481.188V144.001H479.497V142.125C478.89 143.21 477.584 144.166 475.727 144.166C473.042 144.166 470.964 142.051 470.964 138.925ZM479.497 138.944C479.497 136.608 477.915 135.211 476.076 135.211C474.237 135.211 472.674 136.553 472.674 138.925C472.674 141.297 474.237 142.695 476.076 142.695C477.915 142.695 479.497 141.316 479.497 138.944ZM484.77 138.521V144.001H483.097V133.923H484.77V135.56C485.34 134.438 486.425 133.739 488.025 133.739V135.468H487.584C485.984 135.468 484.77 136.185 484.77 138.521ZM488.412 138.925C488.412 135.781 490.49 133.758 493.212 133.758C494.794 133.758 496.246 134.567 496.945 135.725V130.393H498.637V144.001H496.945V142.107C496.338 143.228 495.033 144.166 493.194 144.166C490.49 144.166 488.412 142.051 488.412 138.925ZM496.945 138.944C496.945 136.608 495.364 135.211 493.525 135.211C491.686 135.211 490.123 136.553 490.123 138.925C490.123 141.297 491.686 142.695 493.525 142.695C495.364 142.695 496.945 141.316 496.945 138.944ZM507.791 141.261C507.791 142.916 506.338 144.166 504.113 144.166C501.759 144.166 500.104 142.879 499.994 141.04H501.722C501.814 142.015 502.679 142.75 504.095 142.75C505.419 142.75 506.154 142.088 506.154 141.261C506.154 139.017 500.196 140.323 500.196 136.571C500.196 135.027 501.649 133.758 503.892 133.758C506.117 133.758 507.589 134.953 507.699 136.921H506.025C505.952 135.909 505.18 135.174 503.837 135.174C502.605 135.174 501.869 135.762 501.869 136.571C501.869 138.962 507.717 137.656 507.791 141.261ZM512.592 138.925C512.592 135.781 514.67 133.758 517.373 133.758C519.249 133.758 520.536 134.714 521.124 135.762V133.923H522.816V144.001H521.124V142.125C520.517 143.21 519.212 144.166 517.354 144.166C514.67 144.166 512.592 142.051 512.592 138.925ZM521.124 138.944C521.124 136.608 519.543 135.211 517.704 135.211C515.865 135.211 514.302 136.553 514.302 138.925C514.302 141.297 515.865 142.695 517.704 142.695C519.543 142.695 521.124 141.316 521.124 138.944ZM532.099 144.001V138.3C532.099 136.24 530.977 135.192 529.285 135.192C527.575 135.192 526.398 136.259 526.398 138.429V144.001H524.725V133.923H526.398V135.358C527.06 134.309 528.274 133.739 529.635 133.739C531.97 133.739 533.754 135.174 533.754 138.061V144.001H532.099ZM534.943 138.925C534.943 135.781 537.021 133.758 539.742 133.758C541.324 133.758 542.777 134.567 543.475 135.725V130.393H545.167V144.001H543.475V142.107C542.869 143.228 541.563 144.166 539.724 144.166C537.021 144.166 534.943 142.051 534.943 138.925ZM543.475 138.944C543.475 136.608 541.894 135.211 540.055 135.211C538.216 135.211 536.653 136.553 536.653 138.925C536.653 141.297 538.216 142.695 540.055 142.695C541.894 142.695 543.475 141.316 543.475 138.944ZM552.732 137.27H555.197C557.109 137.27 557.918 136.369 557.918 134.935C557.918 133.445 557.109 132.562 555.197 132.562H552.732V137.27ZM559.628 134.935C559.628 136.884 558.378 138.649 555.197 138.649H552.732V144.001H551.059V131.183H555.197C558.212 131.183 559.628 132.838 559.628 134.935ZM560.164 138.925C560.164 135.781 562.242 133.758 564.945 133.758C566.82 133.758 568.108 134.714 568.696 135.762V133.923H570.388V144.001H568.696V142.125C568.089 143.21 566.784 144.166 564.926 144.166C562.242 144.166 560.164 142.051 560.164 138.925ZM568.696 138.944C568.696 136.608 567.115 135.211 565.276 135.211C563.437 135.211 561.874 136.553 561.874 138.925C561.874 141.297 563.437 142.695 565.276 142.695C567.115 142.695 568.696 141.316 568.696 138.944ZM571.671 138.944C571.671 135.781 573.713 133.758 576.581 133.758C579.082 133.758 580.719 135.045 581.234 137.16H579.432C579.082 135.946 578.071 135.174 576.581 135.174C574.742 135.174 573.382 136.479 573.382 138.944C573.382 141.445 574.742 142.75 576.581 142.75C578.071 142.75 579.064 142.033 579.432 140.764H581.234C580.719 142.769 579.082 144.166 576.581 144.166C573.713 144.166 571.671 142.143 571.671 138.944ZM582.547 144.001V130.393H584.221V138.392L588.101 133.923H590.436L585.692 138.944L590.455 144.001H588.174L584.221 139.55V144.001H582.547ZM590.467 138.925C590.467 135.781 592.545 133.758 595.248 133.758C597.124 133.758 598.411 134.714 598.999 135.762V133.923H600.691V144.001H598.999V142.125C598.392 143.21 597.087 144.166 595.229 144.166C592.545 144.166 590.467 142.051 590.467 138.925ZM598.999 138.944C598.999 136.608 597.418 135.211 595.579 135.211C593.74 135.211 592.177 136.553 592.177 138.925C592.177 141.297 593.74 142.695 595.579 142.695C597.418 142.695 598.999 141.316 598.999 138.944ZM601.974 138.925C601.974 135.781 604.052 133.758 606.756 133.758C608.595 133.758 609.919 134.677 610.507 135.762V133.923H612.199V144.221C612.199 146.998 610.342 148.966 607.381 148.966C604.733 148.966 602.839 147.623 602.508 145.472H604.163C604.531 146.686 605.726 147.513 607.381 147.513C609.165 147.513 610.507 146.373 610.507 144.221V142.107C609.9 143.192 608.595 144.166 606.756 144.166C604.052 144.166 601.974 142.051 601.974 138.925ZM610.507 138.944C610.507 136.608 608.926 135.211 607.087 135.211C605.248 135.211 603.685 136.553 603.685 138.925C603.685 141.297 605.248 142.695 607.087 142.695C608.926 142.695 610.507 141.316 610.507 138.944ZM618.392 135.174C616.755 135.174 615.395 136.259 615.211 138.226H621.573C621.592 136.259 620.121 135.174 618.392 135.174ZM623.1 140.893C622.585 142.732 620.967 144.166 618.466 144.166C615.597 144.166 613.482 142.143 613.482 138.944C613.482 135.762 615.523 133.758 618.466 133.758C621.39 133.758 623.302 135.817 623.302 138.576C623.302 138.944 623.284 139.238 623.247 139.587H615.192C615.321 141.628 616.755 142.75 618.466 142.75C619.974 142.75 620.93 141.978 621.298 140.893H623.1ZM631.837 141.261C631.837 142.916 630.384 144.166 628.159 144.166C625.805 144.166 624.15 142.879 624.04 141.04H625.768C625.86 142.015 626.725 142.75 628.141 142.75C629.465 142.75 630.2 142.088 630.2 141.261C630.2 139.017 624.242 140.323 624.242 136.571C624.242 135.027 625.695 133.758 627.938 133.758C630.164 133.758 631.635 134.953 631.745 136.921H630.072C629.998 135.909 629.226 135.174 627.883 135.174C626.651 135.174 625.916 135.762 625.916 136.571C625.916 138.962 631.763 137.656 631.837 141.261ZM397.739 184.001V178.19H391.211V184.001H389.537V171.183H391.211V176.81H397.739V171.183H399.412V184.001H397.739ZM410.895 178.944C410.895 182.143 408.596 184.166 405.727 184.166C402.877 184.166 400.707 182.143 400.707 178.944C400.707 175.762 402.95 173.758 405.801 173.758C408.67 173.758 410.895 175.762 410.895 178.944ZM402.417 178.944C402.417 181.5 403.98 182.695 405.727 182.695C407.474 182.695 409.184 181.5 409.184 178.944C409.184 176.406 407.511 175.211 405.782 175.211C404.017 175.211 402.417 176.406 402.417 178.944ZM412.175 184.001V170.393H413.849V184.001H412.175ZM415.782 184.001V173.923H417.455V184.001H415.782ZM416.646 172.287C416.002 172.287 415.506 171.79 415.506 171.147C415.506 170.503 416.002 170.006 416.646 170.006C417.253 170.006 417.749 170.503 417.749 171.147C417.749 171.79 417.253 172.287 416.646 172.287ZM426.633 181.261C426.633 182.916 425.18 184.166 422.955 184.166C420.601 184.166 418.946 182.879 418.836 181.04H420.565C420.656 182.015 421.521 182.75 422.937 182.75C424.261 182.75 424.996 182.088 424.996 181.261C424.996 179.017 419.038 180.323 419.038 176.571C419.038 175.027 420.491 173.758 422.734 173.758C424.96 173.758 426.431 174.953 426.541 176.921H424.868C424.794 175.909 424.022 175.174 422.679 175.174C421.447 175.174 420.712 175.762 420.712 176.571C420.712 178.962 426.559 177.656 426.633 181.261ZM428.444 181.242V175.303H427.138V173.923H428.444V171.386H430.117V173.923H432.747V175.303H430.117V181.242C430.117 182.235 430.485 182.585 431.515 182.585H432.747V184.001H431.239C429.455 184.001 428.444 183.265 428.444 181.242ZM433.855 184.001V173.923H435.528V184.001H433.855ZM434.719 172.287C434.076 172.287 433.579 171.79 433.579 171.147C433.579 170.503 434.076 170.006 434.719 170.006C435.326 170.006 435.823 170.503 435.823 171.147C435.823 171.79 435.326 172.287 434.719 172.287ZM436.836 178.944C436.836 175.781 438.877 173.758 441.746 173.758C444.247 173.758 445.883 175.045 446.398 177.16H444.596C444.247 175.946 443.235 175.174 441.746 175.174C439.907 175.174 438.546 176.479 438.546 178.944C438.546 181.445 439.907 182.75 441.746 182.75C443.235 182.75 444.228 182.033 444.596 180.764H446.398C445.883 182.769 444.247 184.166 441.746 184.166C438.877 184.166 436.836 182.143 436.836 178.944ZM450.904 172.544V171.183H459.584V172.544H456.09V184.001H454.416V172.544H450.904ZM460.724 184.001V170.393H462.398V175.376C463.06 174.309 464.31 173.739 465.726 173.739C467.97 173.739 469.754 175.174 469.754 178.061V184.001H468.099V178.3C468.099 176.24 466.977 175.192 465.285 175.192C463.575 175.192 462.398 176.259 462.398 178.429V184.001H460.724ZM475.852 175.174C474.216 175.174 472.855 176.259 472.671 178.226H479.034C479.052 176.259 477.581 175.174 475.852 175.174ZM480.56 180.893C480.045 182.732 478.427 184.166 475.926 184.166C473.057 184.166 470.942 182.143 470.942 178.944C470.942 175.762 472.984 173.758 475.926 173.758C478.85 173.758 480.762 175.817 480.762 178.576C480.762 178.944 480.744 179.238 480.707 179.587H472.653C472.781 181.628 474.216 182.75 475.926 182.75C477.434 182.75 478.39 181.978 478.758 180.893H480.56ZM483.725 178.521V184.001H482.052V173.923H483.725V175.56C484.295 174.438 485.38 173.739 486.98 173.739V175.468H486.539C484.939 175.468 483.725 176.185 483.725 178.521ZM487.367 178.925C487.367 175.781 489.445 173.758 492.148 173.758C494.024 173.758 495.311 174.714 495.9 175.762V173.923H497.592V184.001H495.9V182.125C495.293 183.21 493.987 184.166 492.13 184.166C489.445 184.166 487.367 182.051 487.367 178.925ZM495.9 178.944C495.9 176.608 494.318 175.211 492.479 175.211C490.641 175.211 489.077 176.553 489.077 178.925C489.077 181.297 490.641 182.695 492.479 182.695C494.318 182.695 495.9 181.316 495.9 178.944ZM501.174 175.781C501.78 174.714 503.105 173.758 504.943 173.758C507.647 173.758 509.725 175.781 509.725 178.925C509.725 182.051 507.647 184.166 504.943 184.166C503.105 184.166 501.799 183.173 501.174 182.143V188.782H499.5V173.923H501.174V175.781ZM508.015 178.925C508.015 176.553 506.451 175.211 504.594 175.211C502.774 175.211 501.174 176.608 501.174 178.944C501.174 181.316 502.774 182.695 504.594 182.695C506.451 182.695 508.015 181.297 508.015 178.925ZM514.833 182.088L517.959 173.923H519.688L513.619 188.745H511.891L513.877 183.89L509.813 173.923H511.67L514.833 182.088ZM532.764 180.507C532.764 182.327 531.275 184.129 528.498 184.129C525.923 184.129 524.103 182.695 524.066 180.58H525.85C525.96 181.647 526.714 182.713 528.498 182.713C530.116 182.713 531.072 181.794 531.072 180.58C531.072 177.123 524.139 179.33 524.139 174.567C524.139 172.452 525.85 171.018 528.387 171.018C530.833 171.018 532.433 172.36 532.635 174.309H530.796C530.686 173.445 529.877 172.471 528.314 172.452C526.935 172.415 525.85 173.133 525.85 174.512C525.85 177.822 532.764 175.762 532.764 180.507ZM538.592 175.174C536.955 175.174 535.595 176.259 535.411 178.226H541.773C541.792 176.259 540.321 175.174 538.592 175.174ZM543.3 180.893C542.785 182.732 541.167 184.166 538.666 184.166C535.797 184.166 533.682 182.143 533.682 178.944C533.682 175.762 535.723 173.758 538.666 173.758C541.589 173.758 543.502 175.817 543.502 178.576C543.502 178.944 543.484 179.238 543.447 179.587H535.392C535.521 181.628 536.955 182.75 538.666 182.75C540.173 182.75 541.13 181.978 541.498 180.893H543.3ZM552.037 181.261C552.037 182.916 550.584 184.166 548.359 184.166C546.005 184.166 544.35 182.879 544.24 181.04H545.968C546.06 182.015 546.925 182.75 548.341 182.75C549.665 182.75 550.4 182.088 550.4 181.261C550.4 179.017 544.442 180.323 544.442 176.571C544.442 175.027 545.895 173.758 548.138 173.758C550.363 173.758 551.835 174.953 551.945 176.921H550.271C550.198 175.909 549.426 175.174 548.083 175.174C546.851 175.174 546.115 175.762 546.115 176.571C546.115 178.962 551.963 177.656 552.037 181.261ZM560.725 181.261C560.725 182.916 559.272 184.166 557.047 184.166C554.693 184.166 553.038 182.879 552.928 181.04H554.657C554.749 182.015 555.613 182.75 557.029 182.75C558.353 182.75 559.088 182.088 559.088 181.261C559.088 179.017 553.13 180.323 553.13 176.571C553.13 175.027 554.583 173.758 556.827 173.758C559.052 173.758 560.523 174.953 560.633 176.921H558.96C558.886 175.909 558.114 175.174 556.771 175.174C555.539 175.174 554.804 175.762 554.804 176.571C554.804 178.962 560.652 177.656 560.725 181.261ZM562.168 184.001V173.923H563.841V184.001H562.168ZM563.032 172.287C562.389 172.287 561.892 171.79 561.892 171.147C561.892 170.503 562.389 170.006 563.032 170.006C563.639 170.006 564.136 170.503 564.136 171.147C564.136 171.79 563.639 172.287 563.032 172.287ZM575.337 178.944C575.337 182.143 573.038 184.166 570.169 184.166C567.319 184.166 565.149 182.143 565.149 178.944C565.149 175.762 567.392 173.758 570.243 173.758C573.111 173.758 575.337 175.762 575.337 178.944ZM566.859 178.944C566.859 181.5 568.422 182.695 570.169 182.695C571.916 182.695 573.626 181.5 573.626 178.944C573.626 176.406 571.953 175.211 570.224 175.211C568.459 175.211 566.859 176.406 566.859 178.944ZM583.991 184.001V178.3C583.991 176.24 582.87 175.192 581.178 175.192C579.468 175.192 578.291 176.259 578.291 178.429V184.001H576.617V173.923H578.291V175.358C578.953 174.309 580.166 173.739 581.527 173.739C583.863 173.739 585.647 175.174 585.647 178.061V184.001H583.991ZM594.706 181.261C594.706 182.916 593.253 184.166 591.028 184.166C588.674 184.166 587.019 182.879 586.909 181.04H588.638C588.73 182.015 589.594 182.75 591.01 182.75C592.334 182.75 593.069 182.088 593.069 181.261C593.069 179.017 587.111 180.323 587.111 176.571C587.111 175.027 588.564 173.758 590.808 173.758C593.033 173.758 594.504 174.953 594.614 176.921H592.941C592.867 175.909 592.095 175.174 590.752 175.174C589.52 175.174 588.785 175.762 588.785 176.571C588.785 178.962 594.633 177.656 594.706 181.261ZM397.867 220.507C397.867 222.327 396.378 224.129 393.601 224.129C391.027 224.129 389.206 222.695 389.169 220.58H390.953C391.063 221.647 391.817 222.713 393.601 222.713C395.219 222.713 396.176 221.794 396.176 220.58C396.176 217.123 389.243 219.33 389.243 214.567C389.243 212.452 390.953 211.018 393.491 211.018C395.937 211.018 397.536 212.36 397.739 214.309H395.9C395.789 213.445 394.98 212.471 393.417 212.452C392.038 212.415 390.953 213.133 390.953 214.512C390.953 217.822 397.867 215.762 397.867 220.507ZM403.695 215.174C402.059 215.174 400.698 216.259 400.514 218.226H406.877C406.895 216.259 405.424 215.174 403.695 215.174ZM408.403 220.893C407.888 222.732 406.27 224.166 403.769 224.166C400.9 224.166 398.785 222.143 398.785 218.944C398.785 215.762 400.827 213.758 403.769 213.758C406.693 213.758 408.605 215.817 408.605 218.576C408.605 218.944 408.587 219.238 408.55 219.587H400.496C400.624 221.628 402.059 222.75 403.769 222.75C405.277 222.75 406.233 221.978 406.601 220.893H408.403ZM409.895 224.001V210.393H411.568V224.001H409.895ZM413.813 224.001V215.303H412.508V213.923H413.813V213.206C413.813 210.963 414.917 209.951 417.491 209.951V211.349C415.983 211.349 415.487 211.9 415.487 213.206V213.923H417.602V215.303H415.487V224.001H413.813ZM418.284 217.969V216.553H425.621V217.969H418.284ZM427.217 217.583C427.217 213.739 430.031 211.018 433.617 211.018C436.394 211.018 438.6 212.415 439.557 214.898H437.552C436.853 213.353 435.492 212.489 433.617 212.489C430.932 212.489 428.927 214.438 428.927 217.583C428.927 220.709 430.932 222.658 433.617 222.658C435.492 222.658 436.853 221.794 437.552 220.268H439.557C438.6 222.732 436.394 224.111 433.617 224.111C430.031 224.111 427.217 221.426 427.217 217.583ZM440.503 218.925C440.503 215.781 442.581 213.758 445.284 213.758C447.16 213.758 448.447 214.714 449.036 215.762V213.923H450.727V224.001H449.036V222.125C448.429 223.21 447.123 224.166 445.266 224.166C442.581 224.166 440.503 222.051 440.503 218.925ZM449.036 218.944C449.036 216.608 447.454 215.211 445.615 215.211C443.776 215.211 442.213 216.553 442.213 218.925C442.213 221.297 443.776 222.695 445.615 222.695C447.454 222.695 449.036 221.316 449.036 218.944ZM454.309 218.521V224.001H452.636V213.923H454.309V215.56C454.879 214.438 455.964 213.739 457.564 213.739V215.468H457.123C455.523 215.468 454.309 216.185 454.309 218.521ZM462.861 215.174C461.225 215.174 459.864 216.259 459.68 218.226H466.043C466.061 216.259 464.59 215.174 462.861 215.174ZM467.569 220.893C467.054 222.732 465.436 224.166 462.935 224.166C460.066 224.166 457.951 222.143 457.951 218.944C457.951 215.762 459.992 213.758 462.935 213.758C465.859 213.758 467.771 215.817 467.771 218.576C467.771 218.944 467.753 219.238 467.716 219.587H459.661C459.79 221.628 461.225 222.75 462.935 222.75C464.443 222.75 465.399 221.978 465.767 220.893H467.569ZM481.374 220.507C481.374 222.327 479.885 224.129 477.108 224.129C474.533 224.129 472.713 222.695 472.676 220.58H474.46C474.57 221.647 475.324 222.713 477.108 222.713C478.726 222.713 479.682 221.794 479.682 220.58C479.682 217.123 472.75 219.33 472.75 214.567C472.75 212.452 474.46 211.018 476.998 211.018C479.443 211.018 481.043 212.36 481.246 214.309H479.407C479.296 213.445 478.487 212.471 476.924 212.452C475.545 212.415 474.46 213.133 474.46 214.512C474.46 217.822 481.374 215.762 481.374 220.507ZM491.855 213.923V224.001H490.181V222.511C489.538 223.559 488.305 224.148 486.963 224.148C484.646 224.148 482.825 222.713 482.825 219.826V213.923H484.48V219.606C484.48 221.647 485.602 222.695 487.294 222.695C489.023 222.695 490.181 221.628 490.181 219.459V213.923H491.855ZM495.434 215.799C496.078 214.677 497.42 213.758 499.204 213.758C501.926 213.758 503.985 215.781 503.985 218.925C503.985 222.051 501.907 224.166 499.204 224.166C497.365 224.166 496.059 223.247 495.434 222.143V224.001H493.761V210.393H495.434V215.799ZM502.275 218.925C502.275 216.553 500.712 215.211 498.855 215.211C497.034 215.211 495.434 216.608 495.434 218.944C495.434 221.316 497.034 222.695 498.855 222.695C500.712 222.695 502.275 221.297 502.275 218.925ZM512.514 221.261C512.514 222.916 511.061 224.166 508.836 224.166C506.482 224.166 504.827 222.879 504.717 221.04H506.445C506.537 222.015 507.402 222.75 508.818 222.75C510.142 222.75 510.877 222.088 510.877 221.261C510.877 219.017 504.919 220.323 504.919 216.571C504.919 215.027 506.372 213.758 508.615 213.758C510.84 213.758 512.312 214.953 512.422 216.921H510.749C510.675 215.909 509.903 215.174 508.56 215.174C507.328 215.174 506.592 215.762 506.592 216.571C506.592 218.962 512.44 217.656 512.514 221.261ZM513.332 218.944C513.332 215.781 515.373 213.758 518.241 213.758C520.742 213.758 522.379 215.045 522.894 217.16H521.092C520.742 215.946 519.731 215.174 518.241 215.174C516.403 215.174 515.042 216.479 515.042 218.944C515.042 221.445 516.403 222.75 518.241 222.75C519.731 222.75 520.724 222.033 521.092 220.764H522.894C522.379 222.769 520.742 224.166 518.241 224.166C515.373 224.166 513.332 222.143 513.332 218.944ZM525.881 218.521V224.001H524.207V213.923H525.881V215.56C526.451 214.438 527.536 213.739 529.136 213.739V215.468H528.694C527.095 215.468 525.881 216.185 525.881 218.521ZM530.148 224.001V213.923H531.822V224.001H530.148ZM531.012 212.287C530.369 212.287 529.872 211.79 529.872 211.147C529.872 210.503 530.369 210.006 531.012 210.006C531.619 210.006 532.116 210.503 532.116 211.147C532.116 211.79 531.619 212.287 531.012 212.287ZM535.428 215.781C536.034 214.714 537.358 213.758 539.197 213.758C541.901 213.758 543.979 215.781 543.979 218.925C543.979 222.051 541.901 224.166 539.197 224.166C537.358 224.166 536.053 223.173 535.428 222.143V228.782H533.754V213.923H535.428V215.781ZM542.268 218.925C542.268 216.553 540.705 215.211 538.848 215.211C537.027 215.211 535.428 216.608 535.428 218.944C535.428 221.316 537.027 222.695 538.848 222.695C540.705 222.695 542.268 221.297 542.268 218.925ZM545.63 221.242V215.303H544.324V213.923H545.63V211.386H547.303V213.923H549.933V215.303H547.303V221.242C547.303 222.235 547.671 222.585 548.701 222.585H549.933V224.001H548.425C546.641 224.001 545.63 223.265 545.63 221.242ZM551.041 224.001V213.923H552.714V224.001H551.041ZM551.905 212.287C551.262 212.287 550.765 211.79 550.765 211.147C550.765 210.503 551.262 210.006 551.905 210.006C552.512 210.006 553.009 210.503 553.009 211.147C553.009 211.79 552.512 212.287 551.905 212.287ZM564.209 218.944C564.209 222.143 561.911 224.166 559.042 224.166C556.192 224.166 554.022 222.143 554.022 218.944C554.022 215.762 556.265 213.758 559.116 213.758C561.984 213.758 564.209 215.762 564.209 218.944ZM555.732 218.944C555.732 221.5 557.295 222.695 559.042 222.695C560.789 222.695 562.499 221.5 562.499 218.944C562.499 216.406 560.826 215.211 559.097 215.211C557.332 215.211 555.732 216.406 555.732 218.944ZM572.864 224.001V218.3C572.864 216.24 571.743 215.192 570.051 215.192C568.341 215.192 567.164 216.259 567.164 218.429V224.001H565.49V213.923H567.164V215.358C567.826 214.309 569.039 213.739 570.4 213.739C572.736 213.739 574.519 215.174 574.519 218.061V224.001H572.864ZM587.599 220.396C587.599 218.98 586.532 218.098 584.896 218.098H581.99V222.622H584.951C586.606 222.622 587.599 221.794 587.599 220.396ZM587.268 214.641C587.268 213.372 586.404 212.562 584.767 212.562H581.99V216.719H584.804C586.367 216.719 587.268 215.946 587.268 214.641ZM589.272 220.562C589.272 222.493 587.746 224.001 585.098 224.001H580.317V211.183H584.914C587.617 211.183 588.978 212.654 588.978 214.438C588.978 216.056 587.967 216.994 586.735 217.399C588.132 217.638 589.272 218.98 589.272 220.562ZM600.238 218.944C600.238 222.143 597.939 224.166 595.07 224.166C592.22 224.166 590.05 222.143 590.05 218.944C590.05 215.762 592.293 213.758 595.144 213.758C598.013 213.758 600.238 215.762 600.238 218.944ZM591.76 218.944C591.76 221.5 593.323 222.695 595.07 222.695C596.817 222.695 598.527 221.5 598.527 218.944C598.527 216.406 596.854 215.211 595.125 215.211C593.36 215.211 591.76 216.406 591.76 218.944ZM606.778 224.001L604.387 220.249L602.089 224.001H600.342L603.597 218.999L600.342 213.923H602.236L604.626 217.656L606.907 213.923H608.654L605.417 218.907L608.672 224.001H606.778ZM613.683 215.174C612.047 215.174 610.686 216.259 610.502 218.226H616.865C616.883 216.259 615.412 215.174 613.683 215.174ZM618.391 220.893C617.876 222.732 616.258 224.166 613.757 224.166C610.888 224.166 608.773 222.143 608.773 218.944C608.773 215.762 610.815 213.758 613.757 213.758C616.681 213.758 618.593 215.817 618.593 218.576C618.593 218.944 618.575 219.238 618.538 219.587H610.484C610.612 221.628 612.047 222.75 613.757 222.75C615.265 222.75 616.221 221.978 616.589 220.893H618.391ZM627.128 221.261C627.128 222.916 625.675 224.166 623.45 224.166C621.097 224.166 619.441 222.879 619.331 221.04H621.06C621.152 222.015 622.016 222.75 623.432 222.75C624.756 222.75 625.492 222.088 625.492 221.261C625.492 219.017 619.533 220.323 619.533 216.571C619.533 215.027 620.986 213.758 623.23 213.758C625.455 213.758 626.926 214.953 627.036 216.921H625.363C625.289 215.909 624.517 215.174 623.175 215.174C621.942 215.174 621.207 215.762 621.207 216.571C621.207 218.962 627.055 217.656 627.128 221.261Z" fill="black" fill-opacity="0.8"/>
<circle cx="35.5355" cy="58.4952" r="4.14878" fill="#FFAE00"/>
<circle cx="35.5355" cy="98.4743" r="4.14878" fill="#FFAE00"/>
<circle cx="35.5355" cy="138.454" r="4.14878" fill="#FFAE00"/>
<circle cx="35.5355" cy="178.433" r="4.14878" fill="#FFAE00"/>
<circle cx="35.5355" cy="218.412" r="4.14878" fill="#FFAE00"/>
<circle cx="371.149" cy="58.7452" r="4.14878" fill="#FFAE00"/>
<circle cx="371.149" cy="98.7243" r="4.14878" fill="#FFAE00"/>
<circle cx="371.149" cy="138.704" r="4.14878" fill="#FFAE00"/>
<circle cx="371.149" cy="178.683" r="4.14878" fill="#FFAE00"/>
<circle cx="371.149" cy="218.662" r="4.14878" fill="#FFAE00"/>
<path d="M692.299 101.25L738.467 124.213V160.155L692.299 137.192V101.25Z" fill="#FFAE00"/>
<path d="M692.299 152.792L738.467 175.755V211.696L692.299 188.733V152.792Z" fill="#FFAE00"/>
<path d="M692.299 207.489L738.467 230.451V266.393L692.299 243.43V207.489Z" fill="#FFAE00"/>
</svg>
