<svg width="100%" height="100%" viewBox="0 0 18 20" fill="none" xmlns="http://www.w3.org/2000/svg">
<path d="M8.04227 19.7095C7.53556 19.7096 7.03014 19.6587 6.53364 19.5575C5.57624 19.3613 4.66682 18.9786 3.85727 18.4312C2.65374 17.6187 1.71167 16.4746 1.1452 15.1375C0.953697 14.6847 0.807496 14.2141 0.708735 13.7325C0.505943 12.737 0.505943 11.7108 0.708735 10.7153C0.904843 9.75788 1.28755 8.84846 1.83502 8.03891C2.64751 6.83538 3.7916 5.89331 5.12866 5.32684C5.58144 5.13534 6.05206 4.98914 6.53364 4.89038C7.52917 4.68758 8.55537 4.68758 9.5509 4.89038C10.5083 5.08648 11.4177 5.46919 12.2273 6.01666C13.4308 6.82915 14.3729 7.97324 14.9393 9.31031C15.1308 9.76308 15.277 10.2337 15.3758 10.7153C15.5752 11.695 15.5784 12.7044 15.385 13.6853C15.2192 14.529 14.9074 15.3373 14.4637 16.0738C13.7992 17.1834 12.8582 18.1017 11.7327 18.7389C10.6072 19.3762 9.33565 19.7106 8.04227 19.7095ZM10.6208 8.71722C10.4995 8.71712 10.3793 8.74098 10.2673 8.78742C10.1552 8.83387 10.0535 8.90198 9.96778 8.98785L7.3513 11.6009C7.17797 11.7745 7.08071 12.0099 7.08093 12.2552C7.08114 12.5006 7.17881 12.7358 7.35245 12.9091C7.52608 13.0825 7.76147 13.1797 8.00681 13.1795C8.25215 13.1793 8.48736 13.0816 8.66069 12.908L9.96778 11.6009L11.2749 10.2949C11.4055 10.1663 11.4948 10.0015 11.5313 9.82184C11.5678 9.64213 11.5498 9.45562 11.4797 9.28618C11.4096 9.11674 11.2905 8.97208 11.1377 8.87073C10.9849 8.76937 10.8053 8.71592 10.6219 8.71722H10.6208Z" fill="url(#paint0_linear_1466_407)"/>
<path d="M4.37695 1.09949C4.37695 0.839874 4.48008 0.590893 4.66366 0.407317C4.84724 0.223742 5.09622 0.12061 5.35583 0.12061L11.2291 0.12061C11.4887 0.12061 11.7377 0.223742 11.9213 0.407317C12.1049 0.590893 12.208 0.839874 12.208 1.09949C12.208 1.3591 12.1049 1.60809 11.9213 1.79166C11.7377 1.97524 11.4887 2.07837 11.2291 2.07837L5.35583 2.07837C5.09622 2.07837 4.84724 1.97524 4.66366 1.79166C4.48008 1.60809 4.37695 1.3591 4.37695 1.09949V1.09949Z" fill="url(#paint1_linear_1466_407)"/>
<path d="M14.424 2.93005C14.6136 2.74042 14.8708 2.63389 15.1389 2.63389C15.4071 2.63389 15.6643 2.74042 15.8539 2.93005L17.1454 4.22156C17.335 4.41118 17.4416 4.66836 17.4416 4.93653C17.4416 5.2047 17.335 5.46188 17.1454 5.65151C16.9558 5.84113 16.6986 5.94766 16.4304 5.94766C16.1623 5.94766 15.9051 5.84113 15.7155 5.65151L14.424 4.35999C14.2343 4.17037 14.1278 3.91319 14.1278 3.64502C14.1278 3.37685 14.2343 3.11967 14.424 2.93005Z" fill="url(#paint2_linear_1466_407)"/>
<defs>
<linearGradient id="paint0_linear_1466_407" x1="8.04219" y1="4.73828" x2="8.04219" y2="19.7095" gradientUnits="userSpaceOnUse">
<stop stop-color="#FE724C"/>
<stop offset="1" stop-color="#FCA892"/>
</linearGradient>
<linearGradient id="paint1_linear_1466_407" x1="4.37695" y1="1.09949" x2="12.208" y2="1.09949" gradientUnits="userSpaceOnUse">
<stop stop-color="#FE724C"/>
<stop offset="1" stop-color="#FCA892"/>
</linearGradient>
<linearGradient id="paint2_linear_1466_407" x1="14.424" y1="2.93005" x2="17.1454" y2="5.65151" gradientUnits="userSpaceOnUse">
<stop stop-color="#FE724C"/>
<stop offset="1" stop-color="#FCA892"/>
</linearGradient>
</defs>
</svg>
