<svg xmlns="http://www.w3.org/2000/svg" enable-background="new 0 0 50 50" viewBox="0 0 50 50" id="TowelHanger">
  <path fill="#676767" d="M30.0817,5.7167v1.47h-0.73v-1.9l0.18-0.1c0.09-0.05,2.16-1.25,1.4-2.69c-0.31-0.6-0.78-0.87-1.41-0.8
			c-0.44,0.04-0.87,0.24-1.21,0.56l-0.71,0.66l-0.5-0.54l0.71-0.66c0.46-0.4301,1.04-0.7,1.63-0.76c0.66-0.06,1.5699,0.09,2.15,1.19
			C32.4017,3.6966,31.0517,5.0966,30.0817,5.7167z" class="color676767 svgShape"></path>
  <rect width="33.795" height=".944" x="12.839" y="20.059" fill="#676767" class="color676767 svgShape"></rect>
  <path fill="#e07283" d="M48.9799,21.1023c-0.0879,0.5389-0.697,0.8161-1.1744,0.5515l-3.1013-1.7249
		c-4.1654-2.991-14.5423-8.5465-14.6653-8.6129c0,0,0,0-0.001,0c-0.123,0.0664-10.4999,5.6219-14.6663,8.6129l-3.1004,1.7249
		c-0.4774,0.2645-1.0865-0.0127-1.1753-0.5515c-0.0791-0.4861,0.0576-1.149,0.821-1.9465
		c2.4423-2.5494,7.7342-3.1448,12.3088-7.7597c2.214-2.2345,2.4893-4.2093,5.8122-4.5686h0.001
		c3.322,0.3592,3.5973,2.3341,5.8113,4.5686c4.6164,4.6551,9.7955,5.1362,12.3088,7.7597
		C48.9233,19.9533,49.0599,20.6161,48.9799,21.1023z" class="color72b0e0 svgShape"></path>
  <path fill="#d06e7d" d="M38.983,17.7209H20.4905c-0.5395,0-0.9769,0.4374-0.9769,0.9769V39.531
		c0,0.5395,0.4374,0.9769,0.9769,0.9769H38.983c0.5396,0,0.9769-0.4374,0.9769-0.9769V18.6978
		C39.9599,18.1583,39.5226,17.7209,38.983,17.7209z" class="colora4d06e svgShape"></path>
  <rect width="20.446" height="1.824" x="19.514" y="34.32" fill="#c16371" class="color8ec163 svgShape"></rect>
  <rect width="20.446" height=".964" x="19.514" y="36.944" fill="#c16371" class="color8ec163 svgShape"></rect>
  <path fill="#ee7386" d="M27.5514,44.2566c0,2.5633-2.0764,4.6395-4.6354,4.6395H4.6168c-1.893,0-3.4577-1.5348-3.4577-3.4575
		c0-1.9081,1.5496-3.4575,3.4577-3.4575H2.0066v-2.3596H22.916C25.4747,39.6215,27.5514,41.6974,27.5514,44.2566z" class="coloree7373 svgShape"></path>
  <path fill="#b71830" d="M22.9139,49.0546H4.6161c-1.9933,0-3.6153-1.6218-3.6153-3.6153s1.622-3.6153,3.6153-3.6153h18.1761
		c1.3832,0,2.5086,1.1251,2.5086,2.5084s-1.1254,2.5084-2.5086,2.5084H4.9775c-0.7727,0-1.4014-0.6287-1.4014-1.4014
		s0.6287-1.4014,1.4014-1.4014H22.476v0.3179H4.9775c-0.5977,0-1.0836,0.4861-1.0836,1.0836c0,0.5974,0.4859,1.0836,1.0836,1.0836
		h17.8148c1.2081,0,2.1907-0.9826,2.1907-2.1905c0-1.2079-0.9826-2.1905-2.1907-2.1905H4.6161
		c-1.8182,0-3.2974,1.4792-3.2974,3.2974s1.4792,3.2974,3.2974,3.2974h18.2978c2.4697,0,4.4787-2.0092,4.4787-4.4787
		c0-2.4694-2.009-4.4787-4.4787-4.4787H2.0074v-0.3179h20.9065c2.6447,0,4.7965,2.1518,4.7965,4.7965
		C27.7104,46.9028,25.5586,49.0546,22.9139,49.0546z" class="colord25c59 svgShape"></path>
  <path fill="#676767" d="M1.159,34.6201c0,2.5633,2.0764,4.6395,4.6354,4.6395h18.2992c1.893,0,3.4577-1.5348,3.4577-3.4575
		c0-1.9081-1.5496-3.4575-3.4577-3.4575h2.6101V29.985H5.7944C3.2358,29.985,1.159,32.0609,1.159,34.6201z" class="color676767 svgShape"></path>
  <path fill="#535252" d="M24.0943,39.4181H5.7965C3.1518,39.4181,1,37.2663,1,34.6216s2.1518-4.7965,4.7965-4.7965H26.703v0.3179
		H5.7965c-2.4697,0-4.4787,2.0092-4.4787,4.4787c0,2.4695,2.009,4.4787,4.4787,4.4787h18.2978c1.8182,0,3.2974-1.4792,3.2974-3.2974
		c0-1.8182-1.4792-3.2974-3.2974-3.2974H5.9182c-1.2081,0-2.1907,0.9826-2.1907,2.1905c0,1.2079,0.9826,2.1905,2.1907,2.1905H23.733
		c0.5977,0,1.0836-0.4861,1.0836-1.0835c0-0.5974-0.4859-1.0836-1.0836-1.0836H6.2344v-0.3179H23.733
		c0.7727,0,1.4014,0.6287,1.4014,1.4014c0,0.7727-0.6287,1.4014-1.4014,1.4014H5.9182c-1.3832,0-2.5086-1.1251-2.5086-2.5084
		c0-1.3832,1.1254-2.5084,2.5086-2.5084h18.1761c1.9933,0,3.6153,1.6218,3.6153,3.6153S26.0876,39.4181,24.0943,39.4181z" class="color535352 svgShape"></path>
</svg>
